{"glyphs":{"0":{"ha":938,"x_min":49,"x_max":889,"o":"m 468 -19 q 149 99 250 -19 q 49 464 49 218 q 150 828 49 708 q 468 947 251 947 q 788 828 688 947 q 889 464 889 708 q 788 99 889 218 q 468 -19 688 -19 m 468 201 q 568 256 531 201 q 606 464 606 311 q 568 670 606 615 q 468 725 531 725 q 370 670 407 725 q 333 464 333 615 q 370 256 333 310 q 468 201 407 201 z "},"1":{"ha":664,"x_min":56,"x_max":511,"o":"m 233 0 l 233 661 l 56 569 l 56 804 l 276 926 l 511 926 l 511 0 l 233 0 z "},"2":{"ha":861,"x_min":93,"x_max":769,"o":"m 769 250 l 769 0 l 93 0 l 93 189 q 265 306 176 232 q 412 462 353 381 q 471 607 471 543 q 430 710 471 679 q 336 740 389 740 q 226 713 279 740 q 100 626 174 686 l 100 854 q 249 922 169 897 q 429 947 328 947 q 666 874 582 947 q 750 651 750 800 q 704 487 750 560 q 596 364 658 414 q 433 250 533 314 l 769 250 z "},"3":{"ha":833,"x_min":94,"x_max":740,"o":"m 376 -11 q 94 67 247 -11 l 94 296 q 245 214 189 239 q 367 189 301 189 q 466 211 429 189 q 503 274 503 233 q 472 347 503 321 q 363 374 442 374 l 211 374 l 211 574 l 365 574 q 438 596 414 574 q 463 650 463 618 q 427 715 463 696 q 339 733 392 733 q 241 721 292 733 q 111 672 190 708 l 111 874 q 234 922 168 904 q 365 939 300 939 q 601 880 500 939 q 703 685 703 821 q 682 602 703 642 q 627 536 661 563 q 558 503 593 510 q 690 414 640 479 q 740 260 740 349 q 633 50 740 111 q 376 -11 525 -11 z "},"4":{"ha":858,"x_min":54,"x_max":822,"o":"m 431 0 l 431 236 l 54 236 l 54 419 l 460 926 l 711 926 l 711 439 l 822 439 l 822 236 l 711 236 l 711 0 l 431 0 m 281 439 l 431 439 l 431 629 l 281 439 z "},"5":{"ha":850,"x_min":101,"x_max":801,"o":"m 467 644 q 635 609 560 644 q 756 503 711 574 q 801 329 801 432 q 685 62 801 143 q 382 -19 568 -19 q 219 5 297 -19 q 101 63 140 29 l 101 317 q 210 236 142 271 q 344 201 279 201 q 467 226 417 201 q 517 304 517 251 q 481 385 517 356 q 385 414 444 414 q 297 401 343 414 q 225 374 251 389 l 108 504 l 172 928 l 719 928 l 719 692 l 339 692 l 329 633 q 467 644 396 644 z "},"6":{"ha":893,"x_min":49,"x_max":844,"o":"m 521 613 q 767 534 689 611 q 844 294 844 457 q 738 64 844 147 q 433 -19 631 -19 q 49 429 49 -19 q 192 840 49 733 q 522 947 336 947 q 658 935 599 947 q 753 906 717 924 l 753 676 q 652 716 700 703 q 542 729 604 729 q 383 676 429 729 q 329 528 336 622 q 521 613 401 613 m 457 203 q 534 226 506 203 q 563 300 563 250 q 536 388 563 358 q 465 418 510 418 q 383 395 413 418 q 340 317 354 372 q 383 227 354 251 q 457 203 411 203 z "},"7":{"ha":832,"x_min":92,"x_max":772,"o":"m 92 926 l 772 926 l 772 779 l 475 0 l 171 0 l 463 675 l 92 675 l 92 926 z "},"8":{"ha":906,"x_min":49,"x_max":857,"o":"m 453 -19 q 151 51 253 -19 q 49 256 49 121 q 90 387 49 333 q 206 471 132 440 q 71 669 71 536 q 165 880 71 813 q 453 947 260 947 q 740 880 646 947 q 835 669 835 813 q 700 471 835 536 q 815 387 774 440 q 857 256 857 333 q 755 51 857 121 q 453 -19 653 -19 m 453 546 q 515 570 483 546 q 547 636 547 594 q 522 706 547 675 q 453 738 496 738 q 384 706 410 738 q 358 636 358 675 q 390 570 358 594 q 453 546 422 546 m 453 190 q 533 224 504 190 q 561 308 561 258 q 532 374 561 343 q 453 406 503 406 q 374 374 403 406 q 344 308 344 343 q 373 224 344 258 q 453 190 401 190 z "},"9":{"ha":897,"x_min":49,"x_max":844,"o":"m 431 947 q 746 834 647 947 q 844 499 844 721 q 701 88 844 194 q 371 -19 557 -19 q 235 -8 294 -19 q 140 22 176 4 l 140 251 q 241 212 193 225 q 351 199 289 199 q 510 252 464 199 q 564 400 557 306 q 372 315 492 315 q 126 394 204 317 q 49 633 49 471 q 151 863 49 779 q 431 947 253 947 m 429 510 q 510 532 482 510 q 553 610 539 554 q 509 701 539 676 q 431 725 479 725 q 358 701 386 725 q 331 628 331 678 q 357 540 331 569 q 429 510 383 510 z "},"\u0000":{"ha":0,"x_min":0,"x_max":0,"o":""},"\r":{"ha":375,"x_min":0,"x_max":0,"o":""}," ":{"ha":375,"x_min":0,"x_max":0,"o":""},"A":{"ha":989,"x_min":14,"x_max":975,"o":"m 690 0 l 639 163 l 321 163 l 271 0 l 14 0 l 356 926 l 664 926 l 975 0 l 690 0 m 382 357 l 576 357 l 478 664 l 382 357 z "},"Á":{"ha":989,"x_min":14,"x_max":975,"o":"m 690 0 l 639 163 l 321 163 l 271 0 l 14 0 l 356 926 l 664 926 l 975 0 l 690 0 m 382 357 l 576 357 l 478 664 l 382 357 m 428 992 l 467 1147 l 732 1147 l 547 992 l 428 992 z "},"Ă":{"ha":989,"x_min":14,"x_max":975,"o":"m 690 0 l 639 163 l 321 163 l 271 0 l 14 0 l 356 926 l 664 926 l 975 0 l 690 0 m 382 357 l 576 357 l 478 664 l 382 357 m 494 976 q 340 1028 389 976 q 276 1172 292 1081 l 410 1172 q 440 1118 419 1142 q 494 1094 461 1094 q 579 1172 554 1094 l 714 1172 q 653 1030 706 1083 q 494 976 601 976 z "},"Ắ":{"ha":989,"x_min":14,"x_max":975,"o":"m 690 0 l 639 163 l 321 163 l 271 0 l 14 0 l 356 926 l 664 926 l 975 0 l 690 0 m 382 357 l 576 357 l 478 664 l 382 357 m 494 976 q 340 1028 389 976 q 276 1172 292 1081 l 410 1172 q 440 1118 419 1142 q 494 1094 461 1094 q 579 1172 554 1094 l 714 1172 q 653 1030 706 1083 q 494 976 601 976 m 428 1219 l 467 1375 l 732 1375 l 547 1219 l 428 1219 z "},"Ặ":{"ha":989,"x_min":14,"x_max":975,"o":"m 690 0 l 639 163 l 321 163 l 271 0 l 14 0 l 356 926 l 664 926 l 975 0 l 690 0 m 382 357 l 576 357 l 478 664 l 382 357 m 411 -221 l 411 -69 l 578 -69 l 578 -221 l 411 -221 m 494 976 q 340 1028 389 976 q 276 1172 292 1081 l 410 1172 q 440 1118 419 1142 q 494 1094 461 1094 q 579 1172 554 1094 l 714 1172 q 653 1030 706 1083 q 494 976 601 976 z "},"Ằ":{"ha":989,"x_min":14,"x_max":975,"o":"m 690 0 l 639 163 l 321 163 l 271 0 l 14 0 l 356 926 l 664 926 l 975 0 l 690 0 m 382 357 l 576 357 l 478 664 l 382 357 m 494 976 q 340 1028 389 976 q 276 1172 292 1081 l 410 1172 q 440 1118 419 1142 q 494 1094 461 1094 q 579 1172 554 1094 l 714 1172 q 653 1030 706 1083 q 494 976 601 976 m 432 1201 l 261 1378 l 507 1378 l 565 1201 l 432 1201 z "},"Ẳ":{"ha":989,"x_min":14,"x_max":975,"o":"m 690 0 l 639 163 l 321 163 l 271 0 l 14 0 l 356 926 l 664 926 l 975 0 l 690 0 m 382 357 l 576 357 l 478 664 l 382 357 m 492 976 q 338 1028 386 976 q 274 1172 289 1081 l 407 1172 q 438 1118 417 1142 q 492 1094 458 1094 q 576 1172 551 1094 l 711 1172 q 651 1030 703 1083 q 492 976 599 976 m 442 1285 q 477 1294 463 1285 q 492 1318 492 1304 q 436 1350 492 1350 q 393 1344 417 1350 l 393 1435 q 490 1442 425 1442 q 613 1414 567 1442 q 658 1328 658 1386 q 636 1260 658 1285 q 576 1235 614 1235 l 576 1203 l 442 1203 l 442 1285 z "},"Ẵ":{"ha":989,"x_min":14,"x_max":975,"o":"m 690 0 l 639 163 l 321 163 l 271 0 l 14 0 l 356 926 l 664 926 l 975 0 l 690 0 m 382 357 l 576 357 l 478 664 l 382 357 m 494 976 q 340 1028 389 976 q 276 1172 292 1081 l 410 1172 q 440 1118 419 1142 q 494 1094 461 1094 q 579 1172 554 1094 l 714 1172 q 653 1030 706 1083 q 494 976 601 976 m 246 1253 q 268 1358 246 1308 q 331 1436 290 1407 q 426 1465 372 1465 q 490 1452 461 1465 q 556 1414 519 1439 q 604 1385 583 1394 q 646 1375 625 1375 q 699 1463 699 1375 l 811 1463 q 787 1349 811 1397 q 723 1276 763 1301 q 639 1251 683 1251 q 551 1267 585 1251 q 479 1310 518 1282 q 445 1334 458 1326 q 415 1342 432 1342 q 369 1315 383 1342 q 356 1253 356 1288 l 246 1253 z "},"Ǎ":{"ha":989,"x_min":14,"x_max":975,"o":"m 690 0 l 639 163 l 321 163 l 271 0 l 14 0 l 356 926 l 664 926 l 975 0 l 690 0 m 382 357 l 576 357 l 478 664 l 382 357 m 385 971 l 274 1140 l 429 1140 l 488 1065 l 546 1140 l 701 1140 l 604 971 l 385 971 z "},"Â":{"ha":989,"x_min":14,"x_max":975,"o":"m 690 0 l 639 163 l 321 163 l 271 0 l 14 0 l 356 926 l 664 926 l 975 0 l 690 0 m 382 357 l 576 357 l 478 664 l 382 357 m 267 981 l 392 1150 l 597 1150 l 722 981 l 553 981 l 494 1056 l 436 981 l 267 981 z "},"Ấ":{"ha":989,"x_min":14,"x_max":986,"o":"m 690 0 l 639 163 l 321 163 l 271 0 l 14 0 l 356 926 l 664 926 l 975 0 l 690 0 m 382 357 l 576 357 l 478 664 l 382 357 m 268 975 l 393 1144 l 599 1144 l 724 975 l 554 975 l 496 1050 l 438 975 l 268 975 m 682 1078 l 721 1233 l 986 1233 l 801 1078 l 682 1078 z "},"Ậ":{"ha":989,"x_min":14,"x_max":975,"o":"m 690 0 l 639 163 l 321 163 l 271 0 l 14 0 l 356 926 l 664 926 l 975 0 l 690 0 m 382 357 l 576 357 l 478 664 l 382 357 m 411 -221 l 411 -69 l 578 -69 l 578 -221 l 411 -221 m 267 981 l 392 1150 l 597 1150 l 722 981 l 553 981 l 494 1056 l 436 981 l 267 981 z "},"Ầ":{"ha":989,"x_min":14,"x_max":975,"o":"m 690 0 l 639 163 l 321 163 l 271 0 l 14 0 l 356 926 l 664 926 l 975 0 l 690 0 m 382 357 l 576 357 l 478 664 l 382 357 m 281 975 l 406 1144 l 611 1144 l 736 975 l 567 975 l 508 1050 l 450 975 l 281 975 m 172 1078 l 29 1231 l 247 1231 l 306 1078 l 172 1078 z "},"Ẩ":{"ha":989,"x_min":14,"x_max":975,"o":"m 690 0 l 639 163 l 321 163 l 271 0 l 14 0 l 356 926 l 664 926 l 975 0 l 690 0 m 382 357 l 576 357 l 478 664 l 382 357 m 253 988 l 378 1157 l 583 1157 l 708 988 l 539 988 l 481 1063 l 422 988 l 253 988 m 665 1161 q 701 1171 686 1161 q 715 1194 715 1181 q 660 1226 715 1226 q 617 1221 640 1226 l 617 1311 q 714 1318 649 1318 q 836 1290 790 1318 q 882 1204 882 1263 q 860 1136 882 1161 q 800 1111 838 1111 l 800 1079 l 665 1079 l 665 1161 z "},"Ẫ":{"ha":989,"x_min":14,"x_max":975,"o":"m 690 0 l 639 163 l 321 163 l 271 0 l 14 0 l 356 926 l 664 926 l 975 0 l 690 0 m 382 357 l 576 357 l 478 664 l 382 357 m 281 964 l 406 1133 l 611 1133 l 736 964 l 567 964 l 508 1039 l 450 964 l 281 964 m 225 1197 q 247 1302 225 1253 q 310 1381 269 1351 q 406 1410 351 1410 q 469 1397 440 1410 q 535 1358 499 1383 q 583 1329 563 1339 q 625 1319 604 1319 q 678 1407 678 1319 l 790 1407 q 766 1294 790 1342 q 702 1221 742 1246 q 618 1196 663 1196 q 531 1211 564 1196 q 458 1254 497 1226 q 424 1278 438 1271 q 394 1286 411 1286 q 349 1259 363 1286 q 335 1197 335 1232 l 225 1197 z "},"Ȁ":{"ha":989,"x_min":14,"x_max":975,"o":"m 690 0 l 639 163 l 321 163 l 271 0 l 14 0 l 356 926 l 664 926 l 975 0 l 690 0 m 382 357 l 576 357 l 478 664 l 382 357 m 314 992 l 171 1144 l 389 1144 l 447 992 l 314 992 m 581 993 l 438 1146 l 656 1146 l 714 993 l 581 993 z "},"Ä":{"ha":989,"x_min":14,"x_max":975,"o":"m 690 0 l 639 163 l 321 163 l 271 0 l 14 0 l 356 926 l 664 926 l 975 0 l 690 0 m 382 357 l 576 357 l 478 664 l 382 357 m 246 964 l 246 1115 l 454 1115 l 454 964 l 246 964 m 522 964 l 522 1115 l 731 1115 l 731 964 l 522 964 z "},"Ȧ":{"ha":989,"x_min":14,"x_max":975,"o":"m 690 0 l 639 163 l 321 163 l 271 0 l 14 0 l 356 926 l 664 926 l 975 0 l 690 0 m 382 357 l 576 357 l 478 664 l 382 357 m 378 964 l 378 1115 l 572 1115 l 572 964 l 378 964 z "},"Ạ":{"ha":989,"x_min":14,"x_max":975,"o":"m 690 0 l 639 163 l 321 163 l 271 0 l 14 0 l 356 926 l 664 926 l 975 0 l 690 0 m 382 357 l 576 357 l 478 664 l 382 357 m 411 -221 l 411 -69 l 578 -69 l 578 -221 l 411 -221 z "},"À":{"ha":989,"x_min":14,"x_max":975,"o":"m 690 0 l 639 163 l 321 163 l 271 0 l 14 0 l 356 926 l 664 926 l 975 0 l 690 0 m 382 357 l 576 357 l 478 664 l 382 357 m 435 992 l 292 1144 l 510 1144 l 568 992 l 435 992 z "},"Ả":{"ha":989,"x_min":14,"x_max":975,"o":"m 690 0 l 639 163 l 321 163 l 271 0 l 14 0 l 356 926 l 664 926 l 975 0 l 690 0 m 382 357 l 576 357 l 478 664 l 382 357 m 414 1061 q 449 1071 435 1061 q 464 1094 464 1081 q 408 1126 464 1126 q 365 1121 389 1126 l 365 1211 q 463 1218 397 1218 q 585 1190 539 1218 q 631 1104 631 1163 q 608 1036 631 1061 q 549 1011 586 1011 l 549 979 l 414 979 l 414 1061 z "},"Ȃ":{"ha":989,"x_min":14,"x_max":975,"o":"m 690 0 l 639 163 l 321 163 l 271 0 l 14 0 l 356 926 l 664 926 l 975 0 l 690 0 m 382 357 l 576 357 l 478 664 l 382 357 m 494 1181 q 653 1127 601 1181 q 714 985 706 1074 l 579 985 q 494 1063 554 1063 q 440 1039 461 1063 q 410 985 419 1015 l 276 985 q 340 1128 292 1076 q 494 1181 389 1181 z "},"Ā":{"ha":989,"x_min":14,"x_max":975,"o":"m 690 0 l 639 163 l 321 163 l 271 0 l 14 0 l 356 926 l 664 926 l 975 0 l 690 0 m 382 357 l 576 357 l 478 664 l 382 357 m 282 986 l 282 1142 l 690 1142 l 690 986 l 282 986 z "},"Ą":{"ha":989,"x_min":14,"x_max":981,"o":"m 883 -153 q 981 -101 924 -153 l 981 -233 q 917 -260 947 -250 q 835 -269 886 -269 q 684 -235 732 -269 q 636 -129 636 -201 q 733 0 636 -57 l 690 0 l 639 163 l 321 163 l 271 0 l 14 0 l 356 926 l 664 926 l 975 0 l 972 0 q 835 -103 835 -53 q 847 -142 835 -132 q 883 -153 860 -153 m 382 357 l 576 357 l 478 664 l 382 357 z "},"Å":{"ha":989,"x_min":14,"x_max":975,"o":"m 690 0 l 639 163 l 321 163 l 271 0 l 14 0 l 356 926 l 664 926 l 975 0 l 690 0 m 382 357 l 576 357 l 478 664 l 382 357 m 492 939 q 362 974 408 939 q 315 1072 315 1008 q 363 1170 315 1135 q 492 1206 410 1206 q 622 1170 575 1206 q 668 1072 668 1135 q 622 974 668 1008 q 492 939 575 939 m 492 1029 q 540 1038 526 1029 q 554 1072 554 1047 q 540 1106 554 1096 q 492 1115 525 1115 q 444 1106 458 1115 q 429 1072 429 1096 q 443 1038 429 1047 q 492 1029 457 1029 z "},"Ǻ":{"ha":989,"x_min":14,"x_max":975,"o":"m 690 0 l 639 163 l 321 163 l 271 0 l 14 0 l 356 926 l 664 926 l 975 0 l 690 0 m 382 357 l 576 357 l 478 664 l 382 357 m 492 939 q 362 974 408 939 q 315 1072 315 1008 q 363 1170 315 1135 q 492 1206 410 1206 q 622 1170 575 1206 q 668 1072 668 1135 q 622 974 668 1008 q 492 939 575 939 m 492 1029 q 540 1038 526 1029 q 554 1072 554 1047 q 540 1106 554 1096 q 492 1115 525 1115 q 444 1106 458 1115 q 429 1072 429 1096 q 443 1038 429 1047 q 492 1029 457 1029 m 428 1253 l 467 1408 l 732 1408 l 547 1253 l 428 1253 z "},"Ã":{"ha":989,"x_min":14,"x_max":975,"o":"m 690 0 l 639 163 l 321 163 l 271 0 l 14 0 l 356 926 l 664 926 l 975 0 l 690 0 m 382 357 l 576 357 l 478 664 l 382 357 m 225 994 q 247 1099 225 1050 q 310 1178 269 1149 q 406 1207 351 1207 q 469 1194 440 1207 q 535 1156 499 1181 q 583 1126 563 1136 q 625 1117 604 1117 q 678 1204 678 1117 l 790 1204 q 766 1091 790 1139 q 702 1018 742 1043 q 618 993 663 993 q 531 1008 564 993 q 458 1051 497 1024 q 424 1076 438 1068 q 394 1083 411 1083 q 349 1056 363 1083 q 335 994 335 1029 l 225 994 z "},"Æ":{"ha":1471,"x_min":14,"x_max":1388,"o":"m 1388 718 l 1019 718 l 1019 575 l 1333 575 l 1333 365 l 1019 365 l 1019 210 l 1388 210 l 1388 0 l 742 0 l 742 167 l 429 167 l 324 0 l 14 0 l 665 926 l 1388 926 l 1388 718 m 549 356 l 742 356 l 742 660 l 549 356 z "},"Ǽ":{"ha":1471,"x_min":14,"x_max":1388,"o":"m 1388 718 l 1019 718 l 1019 575 l 1333 575 l 1333 365 l 1019 365 l 1019 210 l 1388 210 l 1388 0 l 742 0 l 742 167 l 429 167 l 324 0 l 14 0 l 665 926 l 1388 926 l 1388 718 m 549 356 l 742 356 l 742 660 l 549 356 m 965 992 l 1004 1147 l 1269 1147 l 1085 992 l 965 992 z "},"B":{"ha":957,"x_min":90,"x_max":908,"o":"m 753 496 q 868 417 828 471 q 908 288 908 363 q 860 128 908 193 q 734 31 813 63 q 561 0 656 0 l 90 0 l 90 926 l 519 926 q 864 667 864 926 q 833 567 864 610 q 753 496 803 525 m 368 578 l 528 578 q 565 597 549 578 q 581 643 581 617 q 561 699 581 681 q 514 718 542 718 l 368 718 l 368 578 m 535 208 q 596 231 571 207 q 621 297 621 254 q 596 361 621 339 q 531 383 571 383 l 369 383 l 369 208 l 535 208 z "},"C":{"ha":879,"x_min":42,"x_max":810,"o":"m 510 -21 q 160 97 279 -21 q 42 463 42 215 q 157 828 42 706 q 510 950 272 950 q 810 882 651 950 l 810 644 q 549 742 671 742 q 385 679 442 742 q 329 461 329 617 q 387 248 329 308 q 563 188 444 188 q 674 210 610 188 q 810 282 738 233 l 810 44 q 671 -3 757 15 q 510 -21 585 -21 z "},"Ć":{"ha":879,"x_min":42,"x_max":810,"o":"m 510 -21 q 160 97 279 -21 q 42 463 42 215 q 157 828 42 706 q 510 950 272 950 q 810 882 651 950 l 810 644 q 549 742 671 742 q 385 679 442 742 q 329 461 329 617 q 387 248 329 308 q 563 188 444 188 q 674 210 610 188 q 810 282 738 233 l 810 44 q 671 -3 757 15 q 510 -21 585 -21 m 426 1033 l 465 1189 l 731 1189 l 546 1033 l 426 1033 z "},"Č":{"ha":879,"x_min":42,"x_max":810,"o":"m 510 -21 q 160 97 279 -21 q 42 463 42 215 q 157 828 42 706 q 510 950 272 950 q 810 882 651 950 l 810 644 q 549 742 671 742 q 385 679 442 742 q 329 461 329 617 q 387 248 329 308 q 563 188 444 188 q 674 210 610 188 q 810 282 738 233 l 810 44 q 671 -3 757 15 q 510 -21 585 -21 m 383 1013 l 272 1182 l 428 1182 l 486 1107 l 544 1182 l 700 1182 l 603 1013 l 383 1013 z "},"Ç":{"ha":879,"x_min":42,"x_max":810,"o":"m 549 742 q 385 679 442 742 q 329 461 329 617 q 387 248 329 308 q 563 188 444 188 q 674 210 610 188 q 810 282 738 233 l 810 44 q 705 6 768 22 q 576 -17 642 -10 l 521 -176 l 300 -176 l 413 -15 q 42 463 42 32 q 157 828 42 706 q 510 950 272 950 q 810 882 651 950 l 810 644 q 549 742 671 742 z "},"Ĉ":{"ha":879,"x_min":42,"x_max":810,"o":"m 510 -21 q 160 97 279 -21 q 42 463 42 215 q 157 828 42 706 q 510 950 272 950 q 810 882 651 950 l 810 644 q 549 742 671 742 q 385 679 442 742 q 329 461 329 617 q 387 248 329 308 q 563 188 444 188 q 674 210 610 188 q 810 282 738 233 l 810 44 q 671 -3 757 15 q 510 -21 585 -21 m 265 1022 l 390 1192 l 596 1192 l 721 1022 l 551 1022 l 493 1097 l 435 1022 l 265 1022 z "},"Ċ":{"ha":879,"x_min":42,"x_max":810,"o":"m 510 -21 q 160 97 279 -21 q 42 463 42 215 q 157 828 42 706 q 510 950 272 950 q 810 882 651 950 l 810 644 q 549 742 671 742 q 385 679 442 742 q 329 461 329 617 q 387 248 329 308 q 563 188 444 188 q 674 210 610 188 q 810 282 738 233 l 810 44 q 671 -3 757 15 q 510 -21 585 -21 m 376 1006 l 376 1157 l 571 1157 l 571 1006 l 376 1006 z "},"D":{"ha":1014,"x_min":90,"x_max":965,"o":"m 90 926 l 497 926 q 852 810 739 926 q 965 463 965 694 q 851 116 965 232 q 497 0 738 0 l 90 0 l 90 926 m 463 208 q 624 271 568 208 q 681 463 681 333 q 463 718 681 718 l 368 718 l 368 208 l 463 208 z "},"Ǆ":{"ha":1908,"x_min":90,"x_max":1839,"o":"m 90 926 l 497 926 q 852 810 739 926 q 965 463 965 694 q 851 116 965 232 q 497 0 738 0 l 90 0 l 90 926 m 463 208 q 624 271 568 208 q 681 463 681 333 q 463 718 681 718 l 368 718 l 368 208 l 463 208 m 1839 926 l 1839 733 l 1433 210 l 1839 210 l 1839 0 l 1083 0 l 1083 197 l 1501 714 l 1088 714 l 1088 926 l 1839 926 m 1365 971 l 1254 1140 l 1410 1140 l 1468 1065 l 1526 1140 l 1682 1140 l 1585 971 l 1365 971 z "},"Ð":{"ha":1014,"x_min":7,"x_max":965,"o":"m 497 926 q 852 810 739 926 q 965 463 965 694 q 851 116 965 232 q 497 0 738 0 l 90 0 l 90 389 l 7 389 l 7 539 l 90 539 l 90 926 l 497 926 m 463 208 q 624 271 568 208 q 681 463 681 333 q 463 718 681 718 l 368 718 l 368 539 l 457 539 l 457 389 l 368 389 l 368 208 l 463 208 z "},"Ď":{"ha":1014,"x_min":90,"x_max":965,"o":"m 90 926 l 497 926 q 852 810 739 926 q 965 463 965 694 q 851 116 965 232 q 497 0 738 0 l 90 0 l 90 926 m 463 208 q 624 271 568 208 q 681 463 681 333 q 463 718 681 718 l 368 718 l 368 208 l 463 208 m 349 971 l 238 1140 l 393 1140 l 451 1065 l 510 1140 l 665 1140 l 568 971 l 349 971 z "},"Đ":{"ha":1014,"x_min":7,"x_max":965,"o":"m 497 926 q 852 810 739 926 q 965 463 965 694 q 851 116 965 232 q 497 0 738 0 l 90 0 l 90 389 l 7 389 l 7 539 l 90 539 l 90 926 l 497 926 m 463 208 q 624 271 568 208 q 681 463 681 333 q 463 718 681 718 l 368 718 l 368 539 l 457 539 l 457 389 l 368 389 l 368 208 l 463 208 z "},"ǲ":{"ha":1719,"x_min":90,"x_max":1657,"o":"m 90 926 l 497 926 q 852 810 739 926 q 965 463 965 694 q 851 116 965 232 q 497 0 738 0 l 90 0 l 90 926 m 463 208 q 624 271 568 208 q 681 463 681 333 q 463 718 681 718 l 368 718 l 368 208 l 463 208 m 1657 707 l 1657 514 l 1389 199 l 1657 199 l 1657 0 l 1076 0 l 1076 196 l 1392 522 l 1083 522 l 1083 707 l 1657 707 z "},"ǅ":{"ha":1719,"x_min":90,"x_max":1657,"o":"m 90 926 l 497 926 q 852 810 739 926 q 965 463 965 694 q 851 116 965 232 q 497 0 738 0 l 90 0 l 90 926 m 463 208 q 624 271 568 208 q 681 463 681 333 q 463 718 681 718 l 368 718 l 368 208 l 463 208 m 1657 707 l 1657 514 l 1389 199 l 1657 199 l 1657 0 l 1076 0 l 1076 196 l 1392 522 l 1083 522 l 1083 707 l 1657 707 m 1271 783 l 1160 953 l 1315 953 l 1374 878 l 1432 953 l 1588 953 l 1490 783 l 1271 783 z "},"E":{"ha":831,"x_min":90,"x_max":747,"o":"m 90 0 l 90 926 l 747 926 l 747 718 l 369 718 l 369 568 l 693 568 l 693 360 l 368 360 l 368 208 l 747 208 l 747 0 l 90 0 z "},"É":{"ha":831,"x_min":90,"x_max":747,"o":"m 90 0 l 90 926 l 747 926 l 747 718 l 369 718 l 369 568 l 693 568 l 693 360 l 368 360 l 368 208 l 747 208 l 747 0 l 90 0 m 353 992 l 392 1147 l 657 1147 l 472 992 l 353 992 z "},"Ĕ":{"ha":831,"x_min":90,"x_max":747,"o":"m 90 0 l 90 926 l 747 926 l 747 718 l 369 718 l 369 568 l 693 568 l 693 360 l 368 360 l 368 208 l 747 208 l 747 0 l 90 0 m 419 976 q 265 1028 314 976 q 201 1172 217 1081 l 335 1172 q 365 1118 344 1142 q 419 1094 386 1094 q 504 1172 479 1094 l 639 1172 q 578 1030 631 1083 q 419 976 526 976 z "},"Ě":{"ha":831,"x_min":90,"x_max":747,"o":"m 90 0 l 90 926 l 747 926 l 747 718 l 369 718 l 369 568 l 693 568 l 693 360 l 368 360 l 368 208 l 747 208 l 747 0 l 90 0 m 310 971 l 199 1140 l 354 1140 l 413 1065 l 471 1140 l 626 1140 l 529 971 l 310 971 z "},"Ḝ":{"ha":831,"x_min":90,"x_max":747,"o":"m 419 976 q 265 1028 314 976 q 201 1172 217 1081 l 335 1172 q 365 1118 344 1142 q 419 1094 386 1094 q 504 1172 479 1094 l 639 1172 q 578 1030 631 1083 q 419 976 526 976 m 747 718 l 369 718 l 369 568 l 693 568 l 693 360 l 368 360 l 368 208 l 747 208 l 747 0 l 494 0 l 432 -176 l 211 -176 l 333 0 l 90 0 l 90 926 l 747 926 l 747 718 z "},"Ê":{"ha":831,"x_min":90,"x_max":747,"o":"m 90 0 l 90 926 l 747 926 l 747 718 l 369 718 l 369 568 l 693 568 l 693 360 l 368 360 l 368 208 l 747 208 l 747 0 l 90 0 m 192 981 l 317 1150 l 522 1150 l 647 981 l 478 981 l 419 1056 l 361 981 l 192 981 z "},"Ế":{"ha":831,"x_min":90,"x_max":911,"o":"m 90 0 l 90 926 l 747 926 l 747 718 l 369 718 l 369 568 l 693 568 l 693 360 l 368 360 l 368 208 l 747 208 l 747 0 l 90 0 m 193 975 l 318 1144 l 524 1144 l 649 975 l 479 975 l 421 1050 l 363 975 l 193 975 m 607 1078 l 646 1233 l 911 1233 l 726 1078 l 607 1078 z "},"Ệ":{"ha":831,"x_min":90,"x_max":747,"o":"m 90 0 l 90 926 l 747 926 l 747 718 l 369 718 l 369 568 l 693 568 l 693 360 l 368 360 l 368 208 l 747 208 l 747 0 l 90 0 m 336 -221 l 336 -69 l 503 -69 l 503 -221 l 336 -221 m 192 981 l 317 1150 l 522 1150 l 647 981 l 478 981 l 419 1056 l 361 981 l 192 981 z "},"Ề":{"ha":831,"x_min":-46,"x_max":747,"o":"m 90 0 l 90 926 l 747 926 l 747 718 l 369 718 l 369 568 l 693 568 l 693 360 l 368 360 l 368 208 l 747 208 l 747 0 l 90 0 m 206 975 l 331 1144 l 536 1144 l 661 975 l 492 975 l 433 1050 l 375 975 l 206 975 m 97 1078 l -46 1231 l 172 1231 l 231 1078 l 97 1078 z "},"Ể":{"ha":831,"x_min":90,"x_max":807,"o":"m 90 0 l 90 926 l 747 926 l 747 718 l 369 718 l 369 568 l 693 568 l 693 360 l 368 360 l 368 208 l 747 208 l 747 0 l 90 0 m 178 988 l 303 1157 l 508 1157 l 633 988 l 464 988 l 406 1063 l 347 988 l 178 988 m 590 1161 q 626 1171 611 1161 q 640 1194 640 1181 q 585 1226 640 1226 q 542 1221 565 1226 l 542 1311 q 639 1318 574 1318 q 761 1290 715 1318 q 807 1204 807 1263 q 785 1136 807 1161 q 725 1111 763 1111 l 725 1079 l 590 1079 l 590 1161 z "},"Ễ":{"ha":831,"x_min":90,"x_max":747,"o":"m 90 0 l 90 926 l 747 926 l 747 718 l 369 718 l 369 568 l 693 568 l 693 360 l 368 360 l 368 208 l 747 208 l 747 0 l 90 0 m 206 964 l 331 1133 l 536 1133 l 661 964 l 492 964 l 433 1039 l 375 964 l 206 964 m 150 1197 q 172 1302 150 1253 q 235 1381 194 1351 q 331 1410 276 1410 q 394 1397 365 1410 q 460 1358 424 1383 q 508 1329 488 1339 q 550 1319 529 1319 q 603 1407 603 1319 l 715 1407 q 691 1294 715 1342 q 627 1221 667 1246 q 543 1196 588 1196 q 456 1211 489 1196 q 383 1254 422 1226 q 349 1278 363 1271 q 319 1286 336 1286 q 274 1259 288 1286 q 260 1197 260 1232 l 150 1197 z "},"Ȅ":{"ha":831,"x_min":90,"x_max":747,"o":"m 90 0 l 90 926 l 747 926 l 747 718 l 369 718 l 369 568 l 693 568 l 693 360 l 368 360 l 368 208 l 747 208 l 747 0 l 90 0 m 239 992 l 96 1144 l 314 1144 l 372 992 l 239 992 m 506 993 l 363 1146 l 581 1146 l 639 993 l 506 993 z "},"Ë":{"ha":831,"x_min":90,"x_max":747,"o":"m 90 0 l 90 926 l 747 926 l 747 718 l 369 718 l 369 568 l 693 568 l 693 360 l 368 360 l 368 208 l 747 208 l 747 0 l 90 0 m 171 964 l 171 1115 l 379 1115 l 379 964 l 171 964 m 447 964 l 447 1115 l 656 1115 l 656 964 l 447 964 z "},"Ė":{"ha":831,"x_min":90,"x_max":747,"o":"m 90 0 l 90 926 l 747 926 l 747 718 l 369 718 l 369 568 l 693 568 l 693 360 l 368 360 l 368 208 l 747 208 l 747 0 l 90 0 m 303 964 l 303 1115 l 497 1115 l 497 964 l 303 964 z "},"Ẹ":{"ha":831,"x_min":90,"x_max":747,"o":"m 90 0 l 90 926 l 747 926 l 747 718 l 369 718 l 369 568 l 693 568 l 693 360 l 368 360 l 368 208 l 747 208 l 747 0 l 90 0 m 336 -221 l 336 -69 l 503 -69 l 503 -221 l 336 -221 z "},"È":{"ha":831,"x_min":90,"x_max":747,"o":"m 90 0 l 90 926 l 747 926 l 747 718 l 369 718 l 369 568 l 693 568 l 693 360 l 368 360 l 368 208 l 747 208 l 747 0 l 90 0 m 360 992 l 217 1144 l 435 1144 l 493 992 l 360 992 z "},"Ẻ":{"ha":831,"x_min":90,"x_max":747,"o":"m 90 0 l 90 926 l 747 926 l 747 718 l 369 718 l 369 568 l 693 568 l 693 360 l 368 360 l 368 208 l 747 208 l 747 0 l 90 0 m 339 1061 q 374 1071 360 1061 q 389 1094 389 1081 q 333 1126 389 1126 q 290 1121 314 1126 l 290 1211 q 388 1218 322 1218 q 510 1190 464 1218 q 556 1104 556 1163 q 533 1036 556 1061 q 474 1011 511 1011 l 474 979 l 339 979 l 339 1061 z "},"Ȇ":{"ha":831,"x_min":90,"x_max":747,"o":"m 90 0 l 90 926 l 747 926 l 747 718 l 369 718 l 369 568 l 693 568 l 693 360 l 368 360 l 368 208 l 747 208 l 747 0 l 90 0 m 419 1181 q 578 1127 526 1181 q 639 985 631 1074 l 504 985 q 419 1063 479 1063 q 365 1039 386 1063 q 335 985 344 1015 l 201 985 q 265 1128 217 1076 q 419 1181 314 1181 z "},"Ē":{"ha":831,"x_min":90,"x_max":747,"o":"m 90 0 l 90 926 l 747 926 l 747 718 l 369 718 l 369 568 l 693 568 l 693 360 l 368 360 l 368 208 l 747 208 l 747 0 l 90 0 m 207 986 l 207 1142 l 615 1142 l 615 986 l 207 986 z "},"Ḗ":{"ha":831,"x_min":90,"x_max":747,"o":"m 90 0 l 90 926 l 747 926 l 747 718 l 369 718 l 369 568 l 693 568 l 693 360 l 368 360 l 368 208 l 747 208 l 747 0 l 90 0 m 207 986 l 207 1142 l 615 1142 l 615 986 l 207 986 m 353 1193 l 392 1349 l 657 1349 l 472 1193 l 353 1193 z "},"Ḕ":{"ha":831,"x_min":90,"x_max":747,"o":"m 90 0 l 90 926 l 747 926 l 747 718 l 369 718 l 369 568 l 693 568 l 693 360 l 368 360 l 368 208 l 747 208 l 747 0 l 90 0 m 207 986 l 207 1142 l 615 1142 l 615 986 l 207 986 m 360 1193 l 217 1346 l 435 1346 l 493 1193 l 360 1193 z "},"Ę":{"ha":831,"x_min":90,"x_max":747,"o":"m 369 718 l 369 568 l 693 568 l 693 360 l 368 360 l 368 208 l 747 208 l 747 0 l 726 0 q 589 -103 589 -53 q 601 -142 589 -132 q 638 -153 614 -153 q 735 -101 678 -153 l 735 -233 q 671 -260 701 -250 q 589 -269 640 -269 q 438 -235 486 -269 q 390 -129 390 -201 q 488 0 390 -57 l 90 0 l 90 926 l 747 926 l 747 718 l 369 718 z "},"Ẽ":{"ha":831,"x_min":90,"x_max":747,"o":"m 90 0 l 90 926 l 747 926 l 747 718 l 369 718 l 369 568 l 693 568 l 693 360 l 368 360 l 368 208 l 747 208 l 747 0 l 90 0 m 150 994 q 172 1099 150 1050 q 235 1178 194 1149 q 331 1207 276 1207 q 394 1194 365 1207 q 460 1156 424 1181 q 508 1126 488 1136 q 550 1117 529 1117 q 603 1204 603 1117 l 715 1204 q 691 1091 715 1139 q 627 1018 667 1043 q 543 993 588 993 q 456 1008 489 993 q 383 1051 422 1024 q 349 1076 363 1068 q 319 1083 336 1083 q 274 1056 288 1083 q 260 994 260 1029 l 150 994 z "},"F":{"ha":810,"x_min":90,"x_max":747,"o":"m 90 0 l 90 926 l 747 926 l 747 718 l 368 718 l 368 540 l 693 540 l 693 331 l 368 331 l 368 0 l 90 0 z "},"Ḟ":{"ha":806,"x_min":90,"x_max":747,"o":"m 90 0 l 90 926 l 747 926 l 747 718 l 368 718 l 368 540 l 693 540 l 693 331 l 368 331 l 368 0 l 90 0 m 240 957 l 240 1108 l 435 1108 l 435 957 l 240 957 z "},"G":{"ha":992,"x_min":49,"x_max":901,"o":"m 511 -21 q 172 94 294 -21 q 49 463 49 208 q 173 831 49 711 q 510 950 297 950 q 858 881 683 950 l 858 633 q 687 715 756 689 q 546 740 618 740 q 388 680 442 740 q 333 464 333 619 q 388 250 333 314 q 531 186 442 186 q 624 204 597 186 l 624 325 l 500 325 l 500 533 l 901 533 l 901 90 q 710 8 810 36 q 511 -21 611 -21 z "},"Ǵ":{"ha":992,"x_min":49,"x_max":901,"o":"m 511 -21 q 172 94 294 -21 q 49 463 49 208 q 173 831 49 711 q 510 950 297 950 q 858 881 683 950 l 858 633 q 687 715 756 689 q 546 740 618 740 q 388 680 442 740 q 333 464 333 619 q 388 250 333 314 q 531 186 442 186 q 624 204 597 186 l 624 325 l 500 325 l 500 533 l 901 533 l 901 90 q 710 8 810 36 q 511 -21 611 -21 m 453 1019 l 492 1175 l 757 1175 l 572 1019 l 453 1019 z "},"Ğ":{"ha":992,"x_min":49,"x_max":901,"o":"m 511 -21 q 172 94 294 -21 q 49 463 49 208 q 173 831 49 711 q 510 950 297 950 q 858 881 683 950 l 858 633 q 687 715 756 689 q 546 740 618 740 q 388 680 442 740 q 333 464 333 619 q 388 250 333 314 q 531 186 442 186 q 624 204 597 186 l 624 325 l 500 325 l 500 533 l 901 533 l 901 90 q 710 8 810 36 q 511 -21 611 -21 m 519 1004 q 365 1056 414 1004 q 301 1200 317 1108 l 435 1200 q 465 1146 444 1169 q 519 1122 486 1122 q 604 1200 579 1122 l 739 1200 q 678 1058 731 1111 q 519 1004 626 1004 z "},"Ǧ":{"ha":992,"x_min":49,"x_max":901,"o":"m 511 -21 q 172 94 294 -21 q 49 463 49 208 q 173 831 49 711 q 510 950 297 950 q 858 881 683 950 l 858 633 q 687 715 756 689 q 546 740 618 740 q 388 680 442 740 q 333 464 333 619 q 388 250 333 314 q 531 186 442 186 q 624 204 597 186 l 624 325 l 500 325 l 500 533 l 901 533 l 901 90 q 710 8 810 36 q 511 -21 611 -21 m 410 999 l 299 1168 l 454 1168 l 513 1093 l 571 1168 l 726 1168 l 629 999 l 410 999 z "},"Ĝ":{"ha":992,"x_min":49,"x_max":901,"o":"m 511 -21 q 172 94 294 -21 q 49 463 49 208 q 173 831 49 711 q 510 950 297 950 q 858 881 683 950 l 858 633 q 687 715 756 689 q 546 740 618 740 q 388 680 442 740 q 333 464 333 619 q 388 250 333 314 q 531 186 442 186 q 624 204 597 186 l 624 325 l 500 325 l 500 533 l 901 533 l 901 90 q 710 8 810 36 q 511 -21 611 -21 m 292 1008 l 417 1178 l 622 1178 l 747 1008 l 578 1008 l 519 1083 l 461 1008 l 292 1008 z "},"Ģ":{"ha":992,"x_min":49,"x_max":901,"o":"m 511 -21 q 172 94 294 -21 q 49 463 49 208 q 173 831 49 711 q 510 950 297 950 q 858 881 683 950 l 858 633 q 687 715 756 689 q 546 740 618 740 q 388 680 442 740 q 333 464 333 619 q 388 250 333 314 q 531 186 442 186 q 624 204 597 186 l 624 325 l 500 325 l 500 533 l 901 533 l 901 90 q 710 8 810 36 q 511 -21 611 -21 m 410 -165 q 452 -139 440 -160 q 463 -69 464 -118 l 650 -69 q 590 -213 653 -157 q 410 -269 526 -269 l 410 -165 z "},"Ġ":{"ha":992,"x_min":49,"x_max":901,"o":"m 511 -21 q 172 94 294 -21 q 49 463 49 208 q 173 831 49 711 q 510 950 297 950 q 858 881 683 950 l 858 633 q 687 715 756 689 q 546 740 618 740 q 388 680 442 740 q 333 464 333 619 q 388 250 333 314 q 531 186 442 186 q 624 204 597 186 l 624 325 l 500 325 l 500 533 l 901 533 l 901 90 q 710 8 810 36 q 511 -21 611 -21 m 403 992 l 403 1143 l 597 1143 l 597 992 l 403 992 z "},"Ḡ":{"ha":992,"x_min":49,"x_max":901,"o":"m 511 -21 q 172 94 294 -21 q 49 463 49 208 q 173 831 49 711 q 510 950 297 950 q 858 881 683 950 l 858 633 q 687 715 756 689 q 546 740 618 740 q 388 680 442 740 q 333 464 333 619 q 388 250 333 314 q 531 186 442 186 q 624 204 597 186 l 624 325 l 500 325 l 500 533 l 901 533 l 901 90 q 710 8 810 36 q 511 -21 611 -21 m 307 1014 l 307 1169 l 715 1169 l 715 1014 l 307 1014 z "},"H":{"ha":1011,"x_min":90,"x_max":921,"o":"m 90 0 l 90 926 l 368 926 l 368 569 l 643 569 l 643 926 l 921 926 l 921 0 l 643 0 l 643 347 l 368 347 l 368 0 l 90 0 z "},"Ħ":{"ha":1011,"x_min":35,"x_max":976,"o":"m 976 804 l 976 682 l 921 682 l 921 0 l 643 0 l 643 347 l 368 347 l 368 0 l 90 0 l 90 682 l 35 682 l 35 804 l 90 804 l 90 926 l 368 926 l 368 804 l 643 804 l 643 926 l 921 926 l 921 804 l 976 804 m 643 569 l 643 682 l 368 682 l 368 569 l 643 569 z "},"Ḫ":{"ha":1011,"x_min":90,"x_max":921,"o":"m 90 0 l 90 926 l 368 926 l 368 569 l 643 569 l 643 926 l 921 926 l 921 0 l 643 0 l 643 347 l 368 347 l 368 0 l 90 0 m 506 -262 q 351 -210 400 -262 q 288 -67 303 -158 l 421 -67 q 451 -121 431 -97 q 506 -144 472 -144 q 590 -67 565 -144 l 725 -67 q 665 -209 717 -156 q 506 -262 613 -262 z "},"Ĥ":{"ha":1011,"x_min":90,"x_max":921,"o":"m 90 0 l 90 926 l 368 926 l 368 569 l 643 569 l 643 926 l 921 926 l 921 0 l 643 0 l 643 347 l 368 347 l 368 0 l 90 0 m 278 981 l 403 1150 l 608 1150 l 733 981 l 564 981 l 506 1056 l 447 981 l 278 981 z "},"I":{"ha":460,"x_min":90,"x_max":369,"o":"m 90 0 l 90 926 l 369 926 l 369 0 l 90 0 z "},"Ĳ":{"ha":1139,"x_min":90,"x_max":1049,"o":"m 90 0 l 90 926 l 369 926 l 369 0 l 90 0 m 735 -21 q 501 32 625 -21 l 501 281 q 602 213 572 231 q 663 194 632 194 q 740 219 710 194 q 769 294 769 244 l 769 926 l 1049 926 l 1049 283 q 958 52 1049 125 q 735 -21 868 -21 z "},"Í":{"ha":460,"x_min":90,"x_max":478,"o":"m 90 0 l 90 926 l 369 926 l 369 0 l 90 0 m 174 992 l 213 1147 l 478 1147 l 293 992 l 174 992 z "},"Ĭ":{"ha":460,"x_min":22,"x_max":460,"o":"m 90 0 l 90 926 l 369 926 l 369 0 l 90 0 m 240 976 q 86 1028 135 976 q 22 1172 38 1081 l 156 1172 q 186 1118 165 1142 q 240 1094 207 1094 q 325 1172 300 1094 l 460 1172 q 399 1030 451 1083 q 240 976 347 976 z "},"Ǐ":{"ha":460,"x_min":19,"x_max":447,"o":"m 90 0 l 90 926 l 369 926 l 369 0 l 90 0 m 131 971 l 19 1140 l 175 1140 l 233 1065 l 292 1140 l 447 1140 l 350 971 l 131 971 z "},"Î":{"ha":460,"x_min":13,"x_max":468,"o":"m 90 0 l 90 926 l 369 926 l 369 0 l 90 0 m 13 981 l 138 1150 l 343 1150 l 468 981 l 299 981 l 240 1056 l 182 981 l 13 981 z "},"Ȉ":{"ha":460,"x_min":-83,"x_max":460,"o":"m 90 0 l 90 926 l 369 926 l 369 0 l 90 0 m 60 992 l -83 1144 l 135 1144 l 193 992 l 60 992 m 326 993 l 183 1146 l 401 1146 l 460 993 l 326 993 z "},"Ï":{"ha":460,"x_min":-8,"x_max":476,"o":"m 90 0 l 90 926 l 369 926 l 369 0 l 90 0 m -8 964 l -8 1115 l 200 1115 l 200 964 l -8 964 m 268 964 l 268 1115 l 476 1115 l 476 964 l 268 964 z "},"Ḯ":{"ha":460,"x_min":-8,"x_max":478,"o":"m 90 0 l 90 926 l 369 926 l 369 0 l 90 0 m -8 964 l -8 1115 l 200 1115 l 200 964 l -8 964 m 268 964 l 268 1115 l 476 1115 l 476 964 l 268 964 m 174 1181 l 213 1336 l 478 1336 l 293 1181 l 174 1181 z "},"İ":{"ha":460,"x_min":90,"x_max":369,"o":"m 90 0 l 90 926 l 369 926 l 369 0 l 90 0 m 124 964 l 124 1115 l 318 1115 l 318 964 l 124 964 z "},"Ị":{"ha":460,"x_min":90,"x_max":369,"o":"m 90 0 l 90 926 l 369 926 l 369 0 l 90 0 m 133 -221 l 133 -69 l 300 -69 l 300 -221 l 133 -221 z "},"Ì":{"ha":460,"x_min":38,"x_max":369,"o":"m 90 0 l 90 926 l 369 926 l 369 0 l 90 0 m 181 992 l 38 1144 l 256 1144 l 314 992 l 181 992 z "},"Ỉ":{"ha":460,"x_min":90,"x_max":376,"o":"m 90 0 l 90 926 l 369 926 l 369 0 l 90 0 m 160 1061 q 195 1071 181 1061 q 210 1094 210 1081 q 154 1126 210 1126 q 111 1121 135 1126 l 111 1211 q 208 1218 143 1218 q 331 1190 285 1218 q 376 1104 376 1163 q 354 1036 376 1061 q 294 1011 332 1011 l 294 979 l 160 979 l 160 1061 z "},"Ȋ":{"ha":460,"x_min":22,"x_max":460,"o":"m 90 0 l 90 926 l 369 926 l 369 0 l 90 0 m 240 1181 q 399 1127 347 1181 q 460 985 451 1074 l 325 985 q 240 1063 300 1063 q 186 1039 207 1063 q 156 985 165 1015 l 22 985 q 86 1128 38 1076 q 240 1181 135 1181 z "},"Ī":{"ha":460,"x_min":28,"x_max":436,"o":"m 90 0 l 90 926 l 369 926 l 369 0 l 90 0 m 28 986 l 28 1142 l 436 1142 l 436 986 l 28 986 z "},"Į":{"ha":460,"x_min":26,"x_max":371,"o":"m 274 -153 q 371 -101 314 -153 l 371 -233 q 307 -260 338 -250 q 225 -269 276 -269 q 74 -235 122 -269 q 26 -129 26 -201 q 124 0 26 -57 l 90 0 l 90 926 l 369 926 l 369 0 l 363 0 q 225 -103 225 -53 q 238 -142 225 -132 q 274 -153 250 -153 z "},"Ĩ":{"ha":460,"x_min":-29,"x_max":536,"o":"m 90 0 l 90 926 l 369 926 l 369 0 l 90 0 m -29 994 q -7 1099 -29 1050 q 56 1178 15 1149 q 151 1207 97 1207 q 215 1194 186 1207 q 281 1156 244 1181 q 329 1126 308 1136 q 371 1117 350 1117 q 424 1204 424 1117 l 536 1204 q 512 1091 536 1139 q 448 1018 488 1043 q 364 993 408 993 q 276 1008 310 993 q 204 1051 243 1024 q 170 1076 183 1068 q 140 1083 157 1083 q 94 1056 108 1083 q 81 994 81 1029 l -29 994 z "},"J":{"ha":679,"x_min":42,"x_max":589,"o":"m 275 -21 q 42 32 165 -21 l 42 281 q 142 213 113 231 q 203 194 172 194 q 280 219 250 194 q 310 294 310 244 l 310 926 l 589 926 l 589 283 q 499 52 589 125 q 275 -21 408 -21 z "},"Ĵ":{"ha":679,"x_min":42,"x_max":679,"o":"m 275 -21 q 42 32 165 -21 l 42 281 q 142 213 113 231 q 203 194 172 194 q 280 219 250 194 q 310 294 310 244 l 310 926 l 589 926 l 589 283 q 499 52 589 125 q 275 -21 408 -21 m 224 981 l 349 1150 l 554 1150 l 679 981 l 510 981 l 451 1056 l 393 981 l 224 981 z "},"K":{"ha":983,"x_min":90,"x_max":963,"o":"m 619 0 l 415 335 l 369 282 l 369 0 l 90 0 l 90 926 l 369 926 l 369 599 l 586 926 l 936 926 l 608 553 l 963 0 l 619 0 z "},"Ķ":{"ha":983,"x_min":90,"x_max":963,"o":"m 619 0 l 415 335 l 369 282 l 369 0 l 90 0 l 90 926 l 369 926 l 369 599 l 586 926 l 936 926 l 608 553 l 963 0 l 619 0 m 343 -165 q 385 -139 374 -160 q 396 -69 397 -118 l 583 -69 q 523 -213 586 -157 q 343 -269 460 -269 l 343 -165 z "},"L":{"ha":789,"x_min":90,"x_max":740,"o":"m 90 0 l 90 926 l 369 926 l 369 210 l 740 210 l 740 0 l 90 0 z "},"Ǉ":{"ha":1468,"x_min":90,"x_max":1378,"o":"m 90 0 l 90 926 l 369 926 l 369 210 l 740 210 l 740 0 l 90 0 m 1064 -21 q 831 32 954 -21 l 831 281 q 931 213 901 231 q 992 194 961 194 q 1069 219 1039 194 q 1099 294 1099 244 l 1099 926 l 1378 926 l 1378 283 q 1288 52 1378 125 q 1064 -21 1197 -21 z "},"Ĺ":{"ha":789,"x_min":90,"x_max":740,"o":"m 90 0 l 90 926 l 369 926 l 369 210 l 740 210 l 740 0 l 90 0 m 175 992 l 214 1147 l 479 1147 l 294 992 l 175 992 z "},"Ľ":{"ha":789,"x_min":90,"x_max":740,"o":"m 90 0 l 90 926 l 369 926 l 369 210 l 740 210 l 740 0 l 90 0 m 483 832 q 526 858 514 838 q 536 928 538 879 l 724 928 q 663 784 726 840 q 483 728 600 728 l 483 832 z "},"Ļ":{"ha":789,"x_min":90,"x_max":740,"o":"m 90 0 l 90 926 l 369 926 l 369 210 l 740 210 l 740 0 l 90 0 m 260 -165 q 302 -139 290 -160 q 313 -69 314 -118 l 500 -69 q 440 -213 503 -157 q 260 -269 376 -269 l 260 -165 z "},"Ŀ":{"ha":789,"x_min":90,"x_max":740,"o":"m 90 0 l 90 926 l 369 926 l 369 210 l 740 210 l 740 0 l 90 0 m 518 365 l 518 557 l 718 557 l 718 365 l 518 365 z "},"Ḷ":{"ha":789,"x_min":90,"x_max":740,"o":"m 90 0 l 90 926 l 369 926 l 369 210 l 740 210 l 740 0 l 90 0 m 311 -221 l 311 -69 l 478 -69 l 478 -221 l 311 -221 z "},"ǈ":{"ha":1232,"x_min":90,"x_max":1149,"o":"m 90 0 l 90 926 l 369 926 l 369 210 l 740 210 l 740 0 l 90 0 m 890 804 l 890 986 l 1149 986 l 1149 804 l 890 804 m 796 -68 q 822 -71 813 -71 q 874 -51 854 -71 q 893 7 893 -31 l 893 707 l 1146 707 l 1149 10 q 1053 -206 1149 -144 q 796 -268 958 -268 l 796 -68 z "},"Ḻ":{"ha":789,"x_min":90,"x_max":740,"o":"m 90 0 l 90 926 l 369 926 l 369 210 l 740 210 l 740 0 l 90 0 m 182 -215 l 182 -60 l 590 -60 l 590 -215 l 182 -215 z "},"Ł":{"ha":800,"x_min":6,"x_max":740,"o":"m 369 210 l 740 210 l 740 0 l 90 0 l 90 271 l 6 225 l 6 394 l 90 440 l 90 926 l 369 926 l 369 594 l 563 700 l 563 531 l 369 425 l 369 210 z "},"M":{"ha":1211,"x_min":90,"x_max":1121,"o":"m 849 926 l 1121 926 l 1121 0 l 843 0 l 843 569 l 599 253 l 354 571 l 354 0 l 90 0 l 90 926 l 371 926 l 607 614 l 849 926 z "},"Ṃ":{"ha":1211,"x_min":90,"x_max":1121,"o":"m 849 926 l 1121 926 l 1121 0 l 843 0 l 843 569 l 599 253 l 354 571 l 354 0 l 90 0 l 90 926 l 371 926 l 607 614 l 849 926 m 522 -221 l 522 -69 l 689 -69 l 689 -221 l 522 -221 z "},"N":{"ha":1007,"x_min":90,"x_max":917,"o":"m 664 926 l 917 926 l 917 0 l 722 0 l 343 474 l 343 0 l 90 0 l 90 926 l 315 926 l 664 471 l 664 926 z "},"Ǌ":{"ha":1686,"x_min":90,"x_max":1596,"o":"m 664 926 l 917 926 l 917 0 l 722 0 l 343 474 l 343 0 l 90 0 l 90 926 l 315 926 l 664 471 l 664 926 m 1282 -21 q 1049 32 1172 -21 l 1049 281 q 1149 213 1119 231 q 1210 194 1179 194 q 1287 219 1257 194 q 1317 294 1317 244 l 1317 926 l 1596 926 l 1596 283 q 1506 52 1596 125 q 1282 -21 1415 -21 z "},"Ń":{"ha":1007,"x_min":90,"x_max":917,"o":"m 664 926 l 917 926 l 917 0 l 722 0 l 343 474 l 343 0 l 90 0 l 90 926 l 315 926 l 664 471 l 664 926 m 438 992 l 476 1147 l 742 1147 l 557 992 l 438 992 z "},"Ň":{"ha":1007,"x_min":90,"x_max":917,"o":"m 664 926 l 917 926 l 917 0 l 722 0 l 343 474 l 343 0 l 90 0 l 90 926 l 315 926 l 664 471 l 664 926 m 394 971 l 283 1140 l 439 1140 l 497 1065 l 556 1140 l 711 1140 l 614 971 l 394 971 z "},"Ņ":{"ha":1007,"x_min":90,"x_max":917,"o":"m 664 926 l 917 926 l 917 0 l 722 0 l 343 474 l 343 0 l 90 0 l 90 926 l 315 926 l 664 471 l 664 926 m 369 -165 q 412 -139 400 -160 q 422 -69 424 -118 l 610 -69 q 549 -213 613 -157 q 369 -269 486 -269 l 369 -165 z "},"Ṇ":{"ha":1007,"x_min":90,"x_max":917,"o":"m 664 926 l 917 926 l 917 0 l 722 0 l 343 474 l 343 0 l 90 0 l 90 926 l 315 926 l 664 471 l 664 926 m 421 -221 l 421 -69 l 588 -69 l 588 -221 l 421 -221 z "},"Ŋ":{"ha":1099,"x_min":121,"x_max":975,"o":"m 975 926 l 975 0 q 876 -208 971 -149 q 622 -268 782 -268 l 622 -96 q 736 -11 736 -96 l 736 4 l 360 551 l 360 0 l 121 0 l 121 926 l 360 926 l 736 371 l 736 926 l 975 926 z "},"Ɲ":{"ha":1021,"x_min":7,"x_max":931,"o":"m 931 926 l 931 0 l 736 0 l 357 474 l 357 10 q 263 -206 357 -144 q 7 -268 169 -268 l 7 -68 q 33 -71 24 -71 q 85 -51 65 -71 q 104 7 104 -31 l 104 926 l 329 926 l 678 471 l 678 926 l 931 926 z "},"ǋ":{"ha":1450,"x_min":90,"x_max":1367,"o":"m 664 926 l 917 926 l 917 0 l 722 0 l 343 474 l 343 0 l 90 0 l 90 926 l 315 926 l 664 471 l 664 926 m 1108 804 l 1108 986 l 1367 986 l 1367 804 l 1108 804 m 1014 -68 q 1040 -71 1031 -71 q 1092 -51 1072 -71 q 1111 7 1111 -31 l 1111 707 l 1364 707 l 1367 10 q 1272 -206 1367 -144 q 1014 -268 1176 -268 l 1014 -68 z "},"Ṉ":{"ha":1007,"x_min":90,"x_max":917,"o":"m 664 926 l 917 926 l 917 0 l 722 0 l 343 474 l 343 0 l 90 0 l 90 926 l 315 926 l 664 471 l 664 926 m 292 -215 l 292 -60 l 700 -60 l 700 -215 l 292 -215 z "},"Ñ":{"ha":1007,"x_min":90,"x_max":917,"o":"m 664 926 l 917 926 l 917 0 l 722 0 l 343 474 l 343 0 l 90 0 l 90 926 l 315 926 l 664 471 l 664 926 m 235 994 q 257 1099 235 1050 q 320 1178 279 1149 q 415 1207 361 1207 q 479 1194 450 1207 q 544 1156 508 1181 q 593 1126 572 1136 q 635 1117 614 1117 q 688 1204 688 1117 l 800 1204 q 776 1091 800 1139 q 712 1018 751 1043 q 628 993 672 993 q 540 1008 574 993 q 468 1051 507 1024 q 434 1076 447 1068 q 404 1083 421 1083 q 358 1056 372 1083 q 344 994 344 1029 l 235 994 z "},"O":{"ha":1033,"x_min":49,"x_max":985,"o":"m 517 -21 q 175 100 301 -21 q 49 463 49 221 q 172 823 49 699 q 517 947 294 947 q 858 826 732 947 q 985 464 985 706 q 862 103 985 228 q 517 -21 739 -21 m 517 201 q 651 262 604 201 q 697 465 697 322 q 651 666 697 607 q 517 725 604 725 q 383 665 429 725 q 336 461 336 604 q 383 260 336 319 q 517 201 429 201 z "},"Ó":{"ha":1033,"x_min":49,"x_max":985,"o":"m 517 -21 q 175 100 301 -21 q 49 463 49 221 q 172 823 49 699 q 517 947 294 947 q 858 826 732 947 q 985 464 985 706 q 862 103 985 228 q 517 -21 739 -21 m 517 201 q 651 262 604 201 q 697 465 697 322 q 651 666 697 607 q 517 725 604 725 q 383 665 429 725 q 336 461 336 604 q 383 260 336 319 q 517 201 429 201 m 450 1033 l 489 1189 l 754 1189 l 569 1033 l 450 1033 z "},"Ŏ":{"ha":1033,"x_min":49,"x_max":985,"o":"m 517 -21 q 175 100 301 -21 q 49 463 49 221 q 172 823 49 699 q 517 947 294 947 q 858 826 732 947 q 985 464 985 706 q 862 103 985 228 q 517 -21 739 -21 m 517 201 q 651 262 604 201 q 697 465 697 322 q 651 666 697 607 q 517 725 604 725 q 383 665 429 725 q 336 461 336 604 q 383 260 336 319 q 517 201 429 201 m 517 1018 q 363 1070 411 1018 q 299 1214 314 1122 l 432 1214 q 463 1160 442 1183 q 517 1136 483 1136 q 601 1214 576 1136 l 736 1214 q 676 1072 728 1125 q 517 1018 624 1018 z "},"Ǒ":{"ha":1033,"x_min":49,"x_max":985,"o":"m 517 -21 q 175 100 301 -21 q 49 463 49 221 q 172 823 49 699 q 517 947 294 947 q 858 826 732 947 q 985 464 985 706 q 862 103 985 228 q 517 -21 739 -21 m 517 201 q 651 262 604 201 q 697 465 697 322 q 651 666 697 607 q 517 725 604 725 q 383 665 429 725 q 336 461 336 604 q 383 260 336 319 q 517 201 429 201 m 407 1013 l 296 1182 l 451 1182 l 510 1107 l 568 1182 l 724 1182 l 626 1013 l 407 1013 z "},"Ô":{"ha":1033,"x_min":49,"x_max":985,"o":"m 517 -21 q 175 100 301 -21 q 49 463 49 221 q 172 823 49 699 q 517 947 294 947 q 858 826 732 947 q 985 464 985 706 q 862 103 985 228 q 517 -21 739 -21 m 517 201 q 651 262 604 201 q 697 465 697 322 q 651 666 697 607 q 517 725 604 725 q 383 665 429 725 q 336 461 336 604 q 383 260 336 319 q 517 201 429 201 m 289 1022 l 414 1192 l 619 1192 l 744 1022 l 575 1022 l 517 1097 l 458 1022 l 289 1022 z "},"Ố":{"ha":1033,"x_min":49,"x_max":1008,"o":"m 517 -21 q 175 100 301 -21 q 49 463 49 221 q 172 823 49 699 q 517 947 294 947 q 858 826 732 947 q 985 464 985 706 q 862 103 985 228 q 517 -21 739 -21 m 517 201 q 651 262 604 201 q 697 465 697 322 q 651 666 697 607 q 517 725 604 725 q 383 665 429 725 q 336 461 336 604 q 383 260 336 319 q 517 201 429 201 m 290 1017 l 415 1186 l 621 1186 l 746 1017 l 576 1017 l 518 1092 l 460 1017 l 290 1017 m 704 1119 l 743 1275 l 1008 1275 l 824 1119 l 704 1119 z "},"Ộ":{"ha":1033,"x_min":49,"x_max":985,"o":"m 517 -21 q 175 100 301 -21 q 49 463 49 221 q 172 823 49 699 q 517 947 294 947 q 858 826 732 947 q 985 464 985 706 q 862 103 985 228 q 517 -21 739 -21 m 517 201 q 651 262 604 201 q 697 465 697 322 q 651 666 697 607 q 517 725 604 725 q 383 665 429 725 q 336 461 336 604 q 383 260 336 319 q 517 201 429 201 m 433 -221 l 433 -69 l 600 -69 l 600 -221 l 433 -221 m 289 1022 l 414 1192 l 619 1192 l 744 1022 l 575 1022 l 517 1097 l 458 1022 l 289 1022 z "},"Ồ":{"ha":1033,"x_min":49,"x_max":985,"o":"m 517 -21 q 175 100 301 -21 q 49 463 49 221 q 172 823 49 699 q 517 947 294 947 q 858 826 732 947 q 985 464 985 706 q 862 103 985 228 q 517 -21 739 -21 m 517 201 q 651 262 604 201 q 697 465 697 322 q 651 666 697 607 q 517 725 604 725 q 383 665 429 725 q 336 461 336 604 q 383 260 336 319 q 517 201 429 201 m 303 1017 l 428 1186 l 633 1186 l 758 1017 l 589 1017 l 531 1092 l 472 1017 l 303 1017 m 194 1119 l 51 1272 l 269 1272 l 328 1119 l 194 1119 z "},"Ổ":{"ha":1033,"x_min":49,"x_max":985,"o":"m 517 -21 q 175 100 301 -21 q 49 463 49 221 q 172 823 49 699 q 517 947 294 947 q 858 826 732 947 q 985 464 985 706 q 862 103 985 228 q 517 -21 739 -21 m 517 201 q 651 262 604 201 q 697 465 697 322 q 651 666 697 607 q 517 725 604 725 q 383 665 429 725 q 336 461 336 604 q 383 260 336 319 q 517 201 429 201 m 275 1029 l 400 1199 l 606 1199 l 731 1029 l 561 1029 l 503 1104 l 444 1029 l 275 1029 m 688 1203 q 723 1213 708 1203 q 738 1236 738 1222 q 682 1268 738 1268 q 639 1263 663 1268 l 639 1353 q 736 1360 671 1360 q 858 1332 813 1360 q 904 1246 904 1304 q 882 1178 904 1203 q 822 1153 860 1153 l 822 1121 l 688 1121 l 688 1203 z "},"Ỗ":{"ha":1033,"x_min":49,"x_max":985,"o":"m 517 -21 q 175 100 301 -21 q 49 463 49 221 q 172 823 49 699 q 517 947 294 947 q 858 826 732 947 q 985 464 985 706 q 862 103 985 228 q 517 -21 739 -21 m 517 201 q 651 262 604 201 q 697 465 697 322 q 651 666 697 607 q 517 725 604 725 q 383 665 429 725 q 336 461 336 604 q 383 260 336 319 q 517 201 429 201 m 303 1006 l 428 1175 l 633 1175 l 758 1006 l 589 1006 l 531 1081 l 472 1006 l 303 1006 m 247 1239 q 269 1344 247 1294 q 333 1422 292 1393 q 428 1451 374 1451 q 492 1438 463 1451 q 557 1400 521 1425 q 606 1371 585 1381 q 647 1361 626 1361 q 700 1449 700 1361 l 813 1449 q 788 1335 813 1383 q 724 1263 764 1288 q 640 1238 685 1238 q 553 1253 586 1238 q 481 1296 519 1268 q 447 1320 460 1313 q 417 1328 433 1328 q 371 1301 385 1328 q 357 1239 357 1274 l 247 1239 z "},"Ȍ":{"ha":1033,"x_min":49,"x_max":985,"o":"m 517 -21 q 175 100 301 -21 q 49 463 49 221 q 172 823 49 699 q 517 947 294 947 q 858 826 732 947 q 985 464 985 706 q 862 103 985 228 q 517 -21 739 -21 m 517 201 q 651 262 604 201 q 697 465 697 322 q 651 666 697 607 q 517 725 604 725 q 383 665 429 725 q 336 461 336 604 q 383 260 336 319 q 517 201 429 201 m 336 1033 l 193 1186 l 411 1186 l 469 1033 l 336 1033 m 603 1035 l 460 1188 l 678 1188 l 736 1035 l 603 1035 z "},"Ö":{"ha":1033,"x_min":49,"x_max":985,"o":"m 517 -21 q 175 100 301 -21 q 49 463 49 221 q 172 823 49 699 q 517 947 294 947 q 858 826 732 947 q 985 464 985 706 q 862 103 985 228 q 517 -21 739 -21 m 517 201 q 651 262 604 201 q 697 465 697 322 q 651 666 697 607 q 517 725 604 725 q 383 665 429 725 q 336 461 336 604 q 383 260 336 319 q 517 201 429 201 m 268 1006 l 268 1157 l 476 1157 l 476 1006 l 268 1006 m 544 1006 l 544 1157 l 753 1157 l 753 1006 l 544 1006 z "},"Ȫ":{"ha":1033,"x_min":49,"x_max":985,"o":"m 517 -21 q 175 100 301 -21 q 49 463 49 221 q 172 823 49 699 q 517 947 294 947 q 858 826 732 947 q 985 464 985 706 q 862 103 985 228 q 517 -21 739 -21 m 517 201 q 651 262 604 201 q 697 465 697 322 q 651 666 697 607 q 517 725 604 725 q 383 665 429 725 q 336 461 336 604 q 383 260 336 319 q 517 201 429 201 m 268 1006 l 268 1157 l 476 1157 l 476 1006 l 268 1006 m 544 1006 l 544 1157 l 753 1157 l 753 1006 l 544 1006 m 304 1217 l 304 1372 l 713 1372 l 713 1217 l 304 1217 z "},"Ȱ":{"ha":1033,"x_min":49,"x_max":985,"o":"m 517 -21 q 175 100 301 -21 q 49 463 49 221 q 172 823 49 699 q 517 947 294 947 q 858 826 732 947 q 985 464 985 706 q 862 103 985 228 q 517 -21 739 -21 m 517 201 q 651 262 604 201 q 697 465 697 322 q 651 666 697 607 q 517 725 604 725 q 383 665 429 725 q 336 461 336 604 q 383 260 336 319 q 517 201 429 201 m 400 1006 l 400 1157 l 594 1157 l 594 1006 l 400 1006 m 304 1233 l 304 1389 l 713 1389 l 713 1233 l 304 1233 z "},"Ọ":{"ha":1033,"x_min":49,"x_max":985,"o":"m 517 -21 q 175 100 301 -21 q 49 463 49 221 q 172 823 49 699 q 517 947 294 947 q 858 826 732 947 q 985 464 985 706 q 862 103 985 228 q 517 -21 739 -21 m 517 201 q 651 262 604 201 q 697 465 697 322 q 651 666 697 607 q 517 725 604 725 q 383 665 429 725 q 336 461 336 604 q 383 260 336 319 q 517 201 429 201 m 433 -221 l 433 -69 l 600 -69 l 600 -221 l 433 -221 z "},"Ò":{"ha":1033,"x_min":49,"x_max":985,"o":"m 517 -21 q 175 100 301 -21 q 49 463 49 221 q 172 823 49 699 q 517 947 294 947 q 858 826 732 947 q 985 464 985 706 q 862 103 985 228 q 517 -21 739 -21 m 517 201 q 651 262 604 201 q 697 465 697 322 q 651 666 697 607 q 517 725 604 725 q 383 665 429 725 q 336 461 336 604 q 383 260 336 319 q 517 201 429 201 m 457 1033 l 314 1186 l 532 1186 l 590 1033 l 457 1033 z "},"Ỏ":{"ha":1033,"x_min":49,"x_max":985,"o":"m 517 -21 q 175 100 301 -21 q 49 463 49 221 q 172 823 49 699 q 517 947 294 947 q 858 826 732 947 q 985 464 985 706 q 862 103 985 228 q 517 -21 739 -21 m 517 201 q 651 262 604 201 q 697 465 697 322 q 651 666 697 607 q 517 725 604 725 q 383 665 429 725 q 336 461 336 604 q 383 260 336 319 q 517 201 429 201 m 436 1103 q 472 1113 457 1103 q 486 1136 486 1122 q 431 1168 486 1168 q 388 1163 411 1168 l 388 1253 q 485 1260 419 1260 q 607 1232 561 1260 q 653 1146 653 1204 q 631 1078 653 1103 q 571 1053 608 1053 l 571 1021 l 436 1021 l 436 1103 z "},"Ơ":{"ha":1033,"x_min":49,"x_max":985,"o":"m 844 840 q 985 464 985 714 q 862 103 985 228 q 517 -21 739 -21 q 175 100 301 -21 q 49 463 49 221 q 172 823 49 699 q 517 947 294 947 q 672 929 604 947 q 750 982 750 933 l 750 1040 l 899 1040 l 899 946 q 844 840 899 878 m 517 201 q 651 262 604 201 q 697 465 697 322 q 651 666 697 607 q 517 725 604 725 q 383 665 429 725 q 336 461 336 604 q 383 260 336 319 q 517 201 429 201 z "},"Ớ":{"ha":1033,"x_min":49,"x_max":985,"o":"m 844 840 q 985 464 985 714 q 862 103 985 228 q 517 -21 739 -21 q 175 100 301 -21 q 49 463 49 221 q 172 823 49 699 q 517 947 294 947 q 672 929 604 947 q 750 982 750 933 l 750 1040 l 899 1040 l 899 946 q 844 840 899 878 m 517 201 q 651 262 604 201 q 697 465 697 322 q 651 666 697 607 q 517 725 604 725 q 383 665 429 725 q 336 461 336 604 q 383 260 336 319 q 517 201 429 201 m 450 1033 l 489 1189 l 754 1189 l 569 1033 l 450 1033 z "},"Ợ":{"ha":1033,"x_min":49,"x_max":985,"o":"m 844 840 q 985 464 985 714 q 862 103 985 228 q 517 -21 739 -21 q 175 100 301 -21 q 49 463 49 221 q 172 823 49 699 q 517 947 294 947 q 672 929 604 947 q 750 982 750 933 l 750 1040 l 899 1040 l 899 946 q 844 840 899 878 m 517 201 q 651 262 604 201 q 697 465 697 322 q 651 666 697 607 q 517 725 604 725 q 383 665 429 725 q 336 461 336 604 q 383 260 336 319 q 517 201 429 201 m 433 -221 l 433 -69 l 600 -69 l 600 -221 l 433 -221 z "},"Ờ":{"ha":1033,"x_min":49,"x_max":985,"o":"m 844 840 q 985 464 985 714 q 862 103 985 228 q 517 -21 739 -21 q 175 100 301 -21 q 49 463 49 221 q 172 823 49 699 q 517 947 294 947 q 672 929 604 947 q 750 982 750 933 l 750 1040 l 899 1040 l 899 946 q 844 840 899 878 m 517 201 q 651 262 604 201 q 697 465 697 322 q 651 666 697 607 q 517 725 604 725 q 383 665 429 725 q 336 461 336 604 q 383 260 336 319 q 517 201 429 201 m 457 1033 l 314 1186 l 532 1186 l 590 1033 l 457 1033 z "},"Ở":{"ha":1033,"x_min":49,"x_max":985,"o":"m 844 840 q 985 464 985 714 q 862 103 985 228 q 517 -21 739 -21 q 175 100 301 -21 q 49 463 49 221 q 172 823 49 699 q 517 947 294 947 q 672 929 604 947 q 750 982 750 933 l 750 1040 l 899 1040 l 899 946 q 844 840 899 878 m 517 201 q 651 262 604 201 q 697 465 697 322 q 651 666 697 607 q 517 725 604 725 q 383 665 429 725 q 336 461 336 604 q 383 260 336 319 q 517 201 429 201 m 436 1103 q 472 1113 457 1103 q 486 1136 486 1122 q 431 1168 486 1168 q 388 1163 411 1168 l 388 1253 q 485 1260 419 1260 q 607 1232 561 1260 q 653 1146 653 1204 q 631 1078 653 1103 q 571 1053 608 1053 l 571 1021 l 436 1021 l 436 1103 z "},"Ỡ":{"ha":1033,"x_min":49,"x_max":985,"o":"m 844 840 q 985 464 985 714 q 862 103 985 228 q 517 -21 739 -21 q 175 100 301 -21 q 49 463 49 221 q 172 823 49 699 q 517 947 294 947 q 672 929 604 947 q 750 982 750 933 l 750 1040 l 899 1040 l 899 946 q 844 840 899 878 m 517 201 q 651 262 604 201 q 697 465 697 322 q 651 666 697 607 q 517 725 604 725 q 383 665 429 725 q 336 461 336 604 q 383 260 336 319 q 517 201 429 201 m 247 1036 q 269 1141 247 1092 q 333 1219 292 1190 q 428 1249 374 1249 q 492 1235 463 1249 q 557 1197 521 1222 q 606 1168 585 1178 q 647 1158 626 1158 q 700 1246 700 1158 l 813 1246 q 788 1133 813 1181 q 724 1060 764 1085 q 640 1035 685 1035 q 553 1050 586 1035 q 481 1093 519 1065 q 447 1117 460 1110 q 417 1125 433 1125 q 371 1098 385 1125 q 357 1036 357 1071 l 247 1036 z "},"Ő":{"ha":1033,"x_min":49,"x_max":985,"o":"m 517 -21 q 175 100 301 -21 q 49 463 49 221 q 172 823 49 699 q 517 947 294 947 q 858 826 732 947 q 985 464 985 706 q 862 103 985 228 q 517 -21 739 -21 m 517 201 q 651 262 604 201 q 697 465 697 322 q 651 666 697 607 q 517 725 604 725 q 383 665 429 725 q 336 461 336 604 q 383 260 336 319 q 517 201 429 201 m 343 1047 l 429 1210 l 592 1210 l 463 1047 l 343 1047 m 553 1047 l 639 1210 l 801 1210 l 672 1047 l 553 1047 z "},"Ȏ":{"ha":1033,"x_min":49,"x_max":985,"o":"m 517 -21 q 175 100 301 -21 q 49 463 49 221 q 172 823 49 699 q 517 947 294 947 q 858 826 732 947 q 985 464 985 706 q 862 103 985 228 q 517 -21 739 -21 m 517 201 q 651 262 604 201 q 697 465 697 322 q 651 666 697 607 q 517 725 604 725 q 383 665 429 725 q 336 461 336 604 q 383 260 336 319 q 517 201 429 201 m 517 1222 q 676 1169 624 1222 q 736 1026 728 1115 l 601 1026 q 517 1104 576 1104 q 463 1081 483 1104 q 432 1026 442 1057 l 299 1026 q 363 1170 314 1118 q 517 1222 411 1222 z "},"Ō":{"ha":1033,"x_min":49,"x_max":985,"o":"m 517 -21 q 175 100 301 -21 q 49 463 49 221 q 172 823 49 699 q 517 947 294 947 q 858 826 732 947 q 985 464 985 706 q 862 103 985 228 q 517 -21 739 -21 m 517 201 q 651 262 604 201 q 697 465 697 322 q 651 666 697 607 q 517 725 604 725 q 383 665 429 725 q 336 461 336 604 q 383 260 336 319 q 517 201 429 201 m 304 1028 l 304 1183 l 713 1183 l 713 1028 l 304 1028 z "},"Ṓ":{"ha":1033,"x_min":49,"x_max":985,"o":"m 517 -21 q 175 100 301 -21 q 49 463 49 221 q 172 823 49 699 q 517 947 294 947 q 858 826 732 947 q 985 464 985 706 q 862 103 985 228 q 517 -21 739 -21 m 517 201 q 651 262 604 201 q 697 465 697 322 q 651 666 697 607 q 517 725 604 725 q 383 665 429 725 q 336 461 336 604 q 383 260 336 319 q 517 201 429 201 m 304 1028 l 304 1183 l 713 1183 l 713 1028 l 304 1028 m 450 1235 l 489 1390 l 754 1390 l 569 1235 l 450 1235 z "},"Ṑ":{"ha":1033,"x_min":49,"x_max":985,"o":"m 517 -21 q 175 100 301 -21 q 49 463 49 221 q 172 823 49 699 q 517 947 294 947 q 858 826 732 947 q 985 464 985 706 q 862 103 985 228 q 517 -21 739 -21 m 517 201 q 651 262 604 201 q 697 465 697 322 q 651 666 697 607 q 517 725 604 725 q 383 665 429 725 q 336 461 336 604 q 383 260 336 319 q 517 201 429 201 m 304 1028 l 304 1183 l 713 1183 l 713 1028 l 304 1028 m 457 1235 l 314 1388 l 532 1388 l 590 1235 l 457 1235 z "},"Ǫ":{"ha":1033,"x_min":49,"x_max":985,"o":"m 985 464 q 913 170 985 286 q 708 8 842 54 l 736 0 q 599 -103 599 -53 q 611 -142 599 -132 q 647 -153 624 -153 q 744 -101 688 -153 l 744 -233 q 681 -260 711 -250 q 599 -269 650 -269 q 448 -235 496 -269 q 400 -129 400 -201 q 467 -19 400 -67 q 161 115 274 -6 q 49 463 49 235 q 172 823 49 699 q 517 947 294 947 q 858 826 732 947 q 985 464 985 706 m 336 461 q 383 260 336 319 q 517 201 429 201 q 651 262 604 201 q 697 465 697 322 q 651 666 697 607 q 517 725 604 725 q 383 665 429 725 q 336 461 336 604 z "},"Ø":{"ha":1033,"x_min":14,"x_max":1014,"o":"m 892 789 q 985 464 985 668 q 862 103 985 228 q 517 -21 739 -21 q 233 53 346 -21 l 186 0 l 14 0 l 139 140 q 49 463 49 264 q 172 823 49 699 q 517 947 294 947 q 796 876 683 947 l 840 925 l 1014 925 l 892 789 m 336 461 q 343 368 336 413 l 629 689 q 517 725 589 725 q 383 665 429 725 q 336 461 336 604 m 697 465 q 690 563 697 517 l 401 240 q 517 201 442 201 q 651 262 604 201 q 697 465 697 322 z "},"Ǿ":{"ha":1033,"x_min":14,"x_max":1014,"o":"m 892 789 q 985 464 985 668 q 862 103 985 228 q 517 -21 739 -21 q 233 53 346 -21 l 186 0 l 14 0 l 139 140 q 49 463 49 264 q 172 823 49 699 q 517 947 294 947 q 796 876 683 947 l 840 925 l 1014 925 l 892 789 m 336 461 q 343 368 336 413 l 629 689 q 517 725 589 725 q 383 665 429 725 q 336 461 336 604 m 697 465 q 690 563 697 517 l 401 240 q 517 201 442 201 q 651 262 604 201 q 697 465 697 322 m 450 992 l 489 1147 l 754 1147 l 569 992 l 450 992 z "},"Õ":{"ha":1033,"x_min":49,"x_max":985,"o":"m 517 -21 q 175 100 301 -21 q 49 463 49 221 q 172 823 49 699 q 517 947 294 947 q 858 826 732 947 q 985 464 985 706 q 862 103 985 228 q 517 -21 739 -21 m 517 201 q 651 262 604 201 q 697 465 697 322 q 651 666 697 607 q 517 725 604 725 q 383 665 429 725 q 336 461 336 604 q 383 260 336 319 q 517 201 429 201 m 247 1036 q 269 1141 247 1092 q 333 1219 292 1190 q 428 1249 374 1249 q 492 1235 463 1249 q 557 1197 521 1222 q 606 1168 585 1178 q 647 1158 626 1158 q 700 1246 700 1158 l 813 1246 q 788 1133 813 1181 q 724 1060 764 1085 q 640 1035 685 1035 q 553 1050 586 1035 q 481 1093 519 1065 q 447 1117 460 1110 q 417 1125 433 1125 q 371 1098 385 1125 q 357 1036 357 1071 l 247 1036 z "},"Ṍ":{"ha":1033,"x_min":49,"x_max":985,"o":"m 517 -21 q 175 100 301 -21 q 49 463 49 221 q 172 823 49 699 q 517 947 294 947 q 858 826 732 947 q 985 464 985 706 q 862 103 985 228 q 517 -21 739 -21 m 517 201 q 651 262 604 201 q 697 465 697 322 q 651 666 697 607 q 517 725 604 725 q 383 665 429 725 q 336 461 336 604 q 383 260 336 319 q 517 201 429 201 m 247 1036 q 269 1141 247 1092 q 333 1219 292 1190 q 428 1249 374 1249 q 492 1235 463 1249 q 557 1197 521 1222 q 606 1168 585 1178 q 647 1158 626 1158 q 700 1246 700 1158 l 813 1246 q 788 1133 813 1181 q 724 1060 764 1085 q 640 1035 685 1035 q 553 1050 586 1035 q 481 1093 519 1065 q 447 1117 460 1110 q 417 1125 433 1125 q 371 1098 385 1125 q 357 1036 357 1071 l 247 1036 m 450 1324 l 489 1479 l 754 1479 l 569 1324 l 450 1324 z "},"Ṏ":{"ha":1033,"x_min":49,"x_max":985,"o":"m 517 -21 q 175 100 301 -21 q 49 463 49 221 q 172 823 49 699 q 517 947 294 947 q 858 826 732 947 q 985 464 985 706 q 862 103 985 228 q 517 -21 739 -21 m 517 201 q 651 262 604 201 q 697 465 697 322 q 651 666 697 607 q 517 725 604 725 q 383 665 429 725 q 336 461 336 604 q 383 260 336 319 q 517 201 429 201 m 247 1036 q 269 1141 247 1092 q 333 1219 292 1190 q 428 1249 374 1249 q 492 1235 463 1249 q 557 1197 521 1222 q 606 1168 585 1178 q 647 1158 626 1158 q 700 1246 700 1158 l 813 1246 q 788 1133 813 1181 q 724 1060 764 1085 q 640 1035 685 1035 q 553 1050 586 1035 q 481 1093 519 1065 q 447 1117 460 1110 q 417 1125 433 1125 q 371 1098 385 1125 q 357 1036 357 1071 l 247 1036 m 268 1296 l 268 1447 l 476 1447 l 476 1296 l 268 1296 m 544 1296 l 544 1447 l 753 1447 l 753 1296 l 544 1296 z "},"Ȭ":{"ha":1033,"x_min":49,"x_max":985,"o":"m 517 -21 q 175 100 301 -21 q 49 463 49 221 q 172 823 49 699 q 517 947 294 947 q 858 826 732 947 q 985 464 985 706 q 862 103 985 228 q 517 -21 739 -21 m 517 201 q 651 262 604 201 q 697 465 697 322 q 651 666 697 607 q 517 725 604 725 q 383 665 429 725 q 336 461 336 604 q 383 260 336 319 q 517 201 429 201 m 247 1036 q 269 1141 247 1092 q 333 1219 292 1190 q 428 1249 374 1249 q 492 1235 463 1249 q 557 1197 521 1222 q 606 1168 585 1178 q 647 1158 626 1158 q 700 1246 700 1158 l 813 1246 q 788 1133 813 1181 q 724 1060 764 1085 q 640 1035 685 1035 q 553 1050 586 1035 q 481 1093 519 1065 q 447 1117 460 1110 q 417 1125 433 1125 q 371 1098 385 1125 q 357 1036 357 1071 l 247 1036 m 304 1318 l 304 1474 l 713 1474 l 713 1318 l 304 1318 z "},"Œ":{"ha":1442,"x_min":49,"x_max":1358,"o":"m 981 718 l 981 568 l 1304 568 l 1304 360 l 979 360 l 979 208 l 1358 208 l 1358 0 l 701 0 l 701 6 q 517 -21 615 -21 q 175 100 301 -21 q 49 463 49 221 q 172 823 49 699 q 517 947 294 947 q 701 921 621 947 l 701 926 l 1358 926 l 1358 718 l 981 718 m 517 201 q 651 262 604 201 q 697 465 697 322 q 651 666 697 607 q 517 725 604 725 q 383 665 429 725 q 336 461 336 604 q 383 260 336 319 q 517 201 429 201 z "},"P":{"ha":953,"x_min":90,"x_max":904,"o":"m 368 0 l 90 0 l 90 926 l 544 926 q 810 850 715 926 q 904 618 904 774 q 808 370 904 458 q 544 282 713 282 l 368 282 l 368 0 m 510 490 q 575 518 549 490 q 601 597 601 546 q 575 688 601 657 q 510 718 549 718 l 368 718 l 368 490 l 510 490 z "},"Þ":{"ha":907,"x_min":119,"x_max":832,"o":"m 119 926 l 358 926 l 358 789 l 478 789 q 739 703 646 789 q 832 464 832 618 q 739 223 832 308 q 478 138 646 138 l 358 138 l 358 0 l 119 0 l 119 926 m 456 335 q 561 373 528 335 q 594 464 594 411 q 561 555 594 515 q 456 594 528 594 l 358 594 l 358 335 l 456 335 z "},"Q":{"ha":1033,"x_min":49,"x_max":985,"o":"m 814 42 q 889 3 846 3 q 936 8 917 3 q 983 31 956 14 l 983 -129 q 835 -156 935 -156 q 604 -31 664 -156 q 517 -35 563 -35 q 167 85 285 -35 q 49 463 49 206 q 164 837 49 713 q 517 961 279 961 q 867 841 749 961 q 985 464 985 721 q 814 42 985 158 m 517 753 q 383 688 429 753 q 336 461 336 624 q 339 374 336 426 q 417 424 371 406 q 513 443 463 443 q 692 360 628 443 q 697 465 697 400 q 651 690 697 626 q 517 753 606 753 m 372 232 q 430 165 394 185 q 517 146 465 146 q 558 150 538 146 q 513 228 540 200 q 457 256 486 256 q 372 232 410 256 z "},"R":{"ha":1032,"x_min":90,"x_max":983,"o":"m 625 0 l 465 296 l 368 296 l 368 0 l 90 0 l 90 926 l 572 926 q 837 850 742 926 q 932 622 932 774 q 885 460 932 538 q 753 351 839 382 l 983 0 l 625 0 m 538 492 q 603 519 578 492 q 629 610 629 547 q 603 690 629 663 q 538 718 576 718 l 368 718 l 368 492 l 538 492 z "},"Ŕ":{"ha":1032,"x_min":90,"x_max":983,"o":"m 625 0 l 465 296 l 368 296 l 368 0 l 90 0 l 90 926 l 572 926 q 837 850 742 926 q 932 622 932 774 q 885 460 932 538 q 753 351 839 382 l 983 0 l 625 0 m 538 492 q 603 519 578 492 q 629 610 629 547 q 603 690 629 663 q 538 718 576 718 l 368 718 l 368 492 l 538 492 m 408 992 l 447 1147 l 713 1147 l 528 992 l 408 992 z "},"Ř":{"ha":1032,"x_min":90,"x_max":983,"o":"m 625 0 l 465 296 l 368 296 l 368 0 l 90 0 l 90 926 l 572 926 q 837 850 742 926 q 932 622 932 774 q 885 460 932 538 q 753 351 839 382 l 983 0 l 625 0 m 538 492 q 603 519 578 492 q 629 610 629 547 q 603 690 629 663 q 538 718 576 718 l 368 718 l 368 492 l 538 492 m 365 971 l 254 1140 l 410 1140 l 468 1065 l 526 1140 l 682 1140 l 585 971 l 365 971 z "},"Ŗ":{"ha":1032,"x_min":90,"x_max":983,"o":"m 625 0 l 465 296 l 368 296 l 368 0 l 90 0 l 90 926 l 572 926 q 837 850 742 926 q 932 622 932 774 q 885 460 932 538 q 753 351 839 382 l 983 0 l 625 0 m 538 492 q 603 519 578 492 q 629 610 629 547 q 603 690 629 663 q 538 718 576 718 l 368 718 l 368 492 l 538 492 m 382 -165 q 424 -139 413 -160 q 435 -69 436 -118 l 622 -69 q 562 -213 625 -157 q 382 -269 499 -269 l 382 -165 z "},"Ȑ":{"ha":1032,"x_min":90,"x_max":983,"o":"m 625 0 l 465 296 l 368 296 l 368 0 l 90 0 l 90 926 l 572 926 q 837 850 742 926 q 932 622 932 774 q 885 460 932 538 q 753 351 839 382 l 983 0 l 625 0 m 538 492 q 603 519 578 492 q 629 610 629 547 q 603 690 629 663 q 538 718 576 718 l 368 718 l 368 492 l 538 492 m 294 992 l 151 1144 l 369 1144 l 428 992 l 294 992 m 561 993 l 418 1146 l 636 1146 l 694 993 l 561 993 z "},"Ȓ":{"ha":1032,"x_min":90,"x_max":983,"o":"m 625 0 l 465 296 l 368 296 l 368 0 l 90 0 l 90 926 l 572 926 q 837 850 742 926 q 932 622 932 774 q 885 460 932 538 q 753 351 839 382 l 983 0 l 625 0 m 538 492 q 603 519 578 492 q 629 610 629 547 q 603 690 629 663 q 538 718 576 718 l 368 718 l 368 492 l 538 492 m 475 1181 q 634 1127 582 1181 q 694 985 686 1074 l 560 985 q 475 1063 535 1063 q 421 1039 442 1063 q 390 985 400 1015 l 257 985 q 321 1128 272 1076 q 475 1181 369 1181 z "},"Ṟ":{"ha":1032,"x_min":90,"x_max":983,"o":"m 625 0 l 465 296 l 368 296 l 368 0 l 90 0 l 90 926 l 572 926 q 837 850 742 926 q 932 622 932 774 q 885 460 932 538 q 753 351 839 382 l 983 0 l 625 0 m 538 492 q 603 519 578 492 q 629 610 629 547 q 603 690 629 663 q 538 718 576 718 l 368 718 l 368 492 l 538 492 m 304 -215 l 304 -60 l 713 -60 l 713 -215 l 304 -215 z "},"S":{"ha":814,"x_min":49,"x_max":765,"o":"m 422 -21 q 226 -8 310 -21 q 78 36 143 4 l 78 294 q 228 215 146 242 q 378 188 310 188 q 453 203 426 188 q 479 260 479 219 q 444 306 479 289 q 328 350 410 324 q 246 375 294 358 q 102 464 156 406 q 49 631 49 522 q 92 793 49 721 q 224 908 136 865 q 438 950 311 950 q 587 936 522 950 q 715 890 651 922 l 715 626 q 584 708 663 674 q 444 743 506 743 q 365 724 396 743 q 333 665 333 706 q 367 610 333 628 q 478 569 400 592 q 506 563 485 568 q 701 467 638 525 q 765 294 765 410 q 722 130 765 201 q 601 19 679 58 q 422 -21 522 -21 z "},"Ś":{"ha":814,"x_min":49,"x_max":765,"o":"m 422 -21 q 226 -8 310 -21 q 78 36 143 4 l 78 294 q 228 215 146 242 q 378 188 310 188 q 453 203 426 188 q 479 260 479 219 q 444 306 479 289 q 328 350 410 324 q 246 375 294 358 q 102 464 156 406 q 49 631 49 522 q 92 793 49 721 q 224 908 136 865 q 438 950 311 950 q 587 936 522 950 q 715 890 651 922 l 715 626 q 584 708 663 674 q 444 743 506 743 q 365 724 396 743 q 333 665 333 706 q 367 610 333 628 q 478 569 400 592 q 506 563 485 568 q 701 467 638 525 q 765 294 765 410 q 722 130 765 201 q 601 19 679 58 q 422 -21 522 -21 m 371 1033 l 410 1189 l 675 1189 l 490 1033 l 371 1033 z "},"Ṥ":{"ha":814,"x_min":49,"x_max":765,"o":"m 422 -21 q 226 -8 310 -21 q 78 36 143 4 l 78 294 q 228 215 146 242 q 378 188 310 188 q 453 203 426 188 q 479 260 479 219 q 444 306 479 289 q 328 350 410 324 q 246 375 294 358 q 102 464 156 406 q 49 631 49 522 q 92 793 49 721 q 224 908 136 865 q 438 950 311 950 q 587 936 522 950 q 715 890 651 922 l 715 626 q 584 708 663 674 q 444 743 506 743 q 365 724 396 743 q 333 665 333 706 q 367 610 333 628 q 478 569 400 592 q 506 563 485 568 q 701 467 638 525 q 765 294 765 410 q 722 130 765 201 q 601 19 679 58 q 422 -21 522 -21 m 432 1033 l 471 1189 l 736 1189 l 551 1033 l 432 1033 m 182 1038 l 182 1189 l 376 1189 l 376 1038 l 182 1038 z "},"Š":{"ha":814,"x_min":49,"x_max":765,"o":"m 422 -21 q 226 -8 310 -21 q 78 36 143 4 l 78 294 q 228 215 146 242 q 378 188 310 188 q 453 203 426 188 q 479 260 479 219 q 444 306 479 289 q 328 350 410 324 q 246 375 294 358 q 102 464 156 406 q 49 631 49 522 q 92 793 49 721 q 224 908 136 865 q 438 950 311 950 q 587 936 522 950 q 715 890 651 922 l 715 626 q 584 708 663 674 q 444 743 506 743 q 365 724 396 743 q 333 665 333 706 q 367 610 333 628 q 478 569 400 592 q 506 563 485 568 q 701 467 638 525 q 765 294 765 410 q 722 130 765 201 q 601 19 679 58 q 422 -21 522 -21 m 328 1013 l 217 1182 l 372 1182 l 431 1107 l 489 1182 l 644 1182 l 547 1013 l 328 1013 z "},"Ṧ":{"ha":814,"x_min":49,"x_max":765,"o":"m 422 -21 q 226 -8 310 -21 q 78 36 143 4 l 78 294 q 228 215 146 242 q 378 188 310 188 q 453 203 426 188 q 479 260 479 219 q 444 306 479 289 q 328 350 410 324 q 246 375 294 358 q 102 464 156 406 q 49 631 49 522 q 92 793 49 721 q 224 908 136 865 q 438 950 311 950 q 587 936 522 950 q 715 890 651 922 l 715 626 q 584 708 663 674 q 444 743 506 743 q 365 724 396 743 q 333 665 333 706 q 367 610 333 628 q 478 569 400 592 q 506 563 485 568 q 701 467 638 525 q 765 294 765 410 q 722 130 765 201 q 601 19 679 58 q 422 -21 522 -21 m 328 1013 l 217 1182 l 372 1182 l 431 1107 l 489 1182 l 644 1182 l 547 1013 l 328 1013 m 326 1235 l 326 1386 l 521 1386 l 521 1235 l 326 1235 z "},"Ş":{"ha":814,"x_min":49,"x_max":765,"o":"m 765 294 q 723 131 765 203 q 603 20 681 60 q 428 -21 526 -19 l 374 -176 l 153 -176 l 265 -14 q 78 36 153 -1 l 78 294 q 228 215 146 242 q 378 188 310 188 q 453 203 426 188 q 479 260 479 219 q 444 306 479 289 q 328 350 410 324 q 246 375 294 358 q 102 464 156 406 q 49 631 49 522 q 92 793 49 721 q 224 908 136 865 q 438 950 311 950 q 587 936 522 950 q 715 890 651 922 l 715 626 q 584 708 663 674 q 444 743 506 743 q 365 724 396 743 q 333 665 333 706 q 367 610 333 628 q 478 569 400 592 q 506 563 485 568 q 701 467 638 525 q 765 294 765 410 z "},"Ŝ":{"ha":814,"x_min":49,"x_max":765,"o":"m 422 -21 q 226 -8 310 -21 q 78 36 143 4 l 78 294 q 228 215 146 242 q 378 188 310 188 q 453 203 426 188 q 479 260 479 219 q 444 306 479 289 q 328 350 410 324 q 246 375 294 358 q 102 464 156 406 q 49 631 49 522 q 92 793 49 721 q 224 908 136 865 q 438 950 311 950 q 587 936 522 950 q 715 890 651 922 l 715 626 q 584 708 663 674 q 444 743 506 743 q 365 724 396 743 q 333 665 333 706 q 367 610 333 628 q 478 569 400 592 q 506 563 485 568 q 701 467 638 525 q 765 294 765 410 q 722 130 765 201 q 601 19 679 58 q 422 -21 522 -21 m 210 1022 l 335 1192 l 540 1192 l 665 1022 l 496 1022 l 438 1097 l 379 1022 l 210 1022 z "},"Ș":{"ha":814,"x_min":49,"x_max":765,"o":"m 422 -21 q 226 -8 310 -21 q 78 36 143 4 l 78 294 q 228 215 146 242 q 378 188 310 188 q 453 203 426 188 q 479 260 479 219 q 444 306 479 289 q 328 350 410 324 q 246 375 294 358 q 102 464 156 406 q 49 631 49 522 q 92 793 49 721 q 224 908 136 865 q 438 950 311 950 q 587 936 522 950 q 715 890 651 922 l 715 626 q 584 708 663 674 q 444 743 506 743 q 365 724 396 743 q 333 665 333 706 q 367 610 333 628 q 478 569 400 592 q 506 563 485 568 q 701 467 638 525 q 765 294 765 410 q 722 130 765 201 q 601 19 679 58 q 422 -21 522 -21 m 226 -165 q 269 -139 257 -160 q 279 -69 281 -118 l 467 -69 q 406 -213 469 -157 q 226 -269 343 -269 l 226 -165 z "},"Ṡ":{"ha":814,"x_min":49,"x_max":765,"o":"m 422 -21 q 226 -8 310 -21 q 78 36 143 4 l 78 294 q 228 215 146 242 q 378 188 310 188 q 453 203 426 188 q 479 260 479 219 q 444 306 479 289 q 328 350 410 324 q 246 375 294 358 q 102 464 156 406 q 49 631 49 522 q 92 793 49 721 q 224 908 136 865 q 438 950 311 950 q 587 936 522 950 q 715 890 651 922 l 715 626 q 584 708 663 674 q 444 743 506 743 q 365 724 396 743 q 333 665 333 706 q 367 610 333 628 q 478 569 400 592 q 506 563 485 568 q 701 467 638 525 q 765 294 765 410 q 722 130 765 201 q 601 19 679 58 q 422 -21 522 -21 m 321 1006 l 321 1157 l 515 1157 l 515 1006 l 321 1006 z "},"Ṣ":{"ha":814,"x_min":49,"x_max":765,"o":"m 422 -21 q 226 -8 310 -21 q 78 36 143 4 l 78 294 q 228 215 146 242 q 378 188 310 188 q 453 203 426 188 q 479 260 479 219 q 444 306 479 289 q 328 350 410 324 q 246 375 294 358 q 102 464 156 406 q 49 631 49 522 q 92 793 49 721 q 224 908 136 865 q 438 950 311 950 q 587 936 522 950 q 715 890 651 922 l 715 626 q 584 708 663 674 q 444 743 506 743 q 365 724 396 743 q 333 665 333 706 q 367 610 333 628 q 478 569 400 592 q 506 563 485 568 q 701 467 638 525 q 765 294 765 410 q 722 130 765 201 q 601 19 679 58 q 422 -21 522 -21 m 278 -221 l 278 -69 l 444 -69 l 444 -221 l 278 -221 z "},"Ṩ":{"ha":814,"x_min":49,"x_max":765,"o":"m 422 -21 q 226 -8 310 -21 q 78 36 143 4 l 78 294 q 228 215 146 242 q 378 188 310 188 q 453 203 426 188 q 479 260 479 219 q 444 306 479 289 q 328 350 410 324 q 246 375 294 358 q 102 464 156 406 q 49 631 49 522 q 92 793 49 721 q 224 908 136 865 q 438 950 311 950 q 587 936 522 950 q 715 890 651 922 l 715 626 q 584 708 663 674 q 444 743 506 743 q 365 724 396 743 q 333 665 333 706 q 367 610 333 628 q 478 569 400 592 q 506 563 485 568 q 701 467 638 525 q 765 294 765 410 q 722 130 765 201 q 601 19 679 58 q 422 -21 522 -21 m 278 -221 l 278 -69 l 444 -69 l 444 -221 l 278 -221 m 321 1006 l 321 1157 l 515 1157 l 515 1006 l 321 1006 z "},"ẞ":{"ha":1015,"x_min":90,"x_max":960,"o":"m 808 554 q 921 443 882 511 q 960 268 960 375 q 914 117 960 188 q 791 6 868 47 q 626 -35 714 -35 q 526 -21 581 -35 q 439 15 472 -7 l 439 260 q 581 174 513 174 q 647 195 619 174 q 674 267 674 217 q 616 396 674 340 q 475 496 558 451 l 475 508 l 676 697 q 529 753 608 753 q 414 707 461 753 q 367 568 367 661 l 365 0 l 90 0 l 90 603 q 201 860 90 774 q 507 947 311 947 q 769 880 656 947 q 947 711 883 813 l 947 686 l 808 554 z "},"Ə":{"ha":1039,"x_min":47,"x_max":990,"o":"m 492 951 q 752 889 639 951 q 928 710 865 826 q 990 439 990 594 q 932 187 990 293 q 762 23 874 81 q 494 -35 650 -35 q 156 102 264 -35 q 49 508 47 239 l 697 508 q 612 678 679 625 q 424 731 544 731 q 263 711 347 731 q 121 668 178 692 l 121 892 q 286 937 197 922 q 492 951 375 951 m 507 165 q 628 210 571 165 q 700 346 685 254 l 319 346 q 376 204 332 243 q 507 165 419 165 z "},"T":{"ha":817,"x_min":35,"x_max":782,"o":"m 267 0 l 267 718 l 35 718 l 35 926 l 782 926 l 782 718 l 544 718 l 544 0 l 267 0 z "},"Ŧ":{"ha":817,"x_min":35,"x_max":782,"o":"m 782 718 l 544 718 l 544 539 l 633 539 l 633 389 l 544 389 l 544 0 l 267 0 l 267 389 l 183 389 l 183 539 l 267 539 l 267 718 l 35 718 l 35 926 l 782 926 l 782 718 z "},"Ť":{"ha":808,"x_min":17,"x_max":792,"o":"m 371 1006 l 204 1175 l 346 1175 l 404 1114 l 463 1175 l 604 1175 l 438 1006 l 371 1006 m 283 0 l 283 710 l 17 710 l 17 926 l 792 926 l 792 710 l 522 710 l 522 0 l 283 0 z "},"Ţ":{"ha":817,"x_min":35,"x_max":782,"o":"m 35 926 l 782 926 l 782 718 l 544 718 l 544 0 l 483 0 l 421 -176 l 200 -176 l 322 0 l 267 0 l 267 718 l 35 718 l 35 926 z "},"Ṯ":{"ha":817,"x_min":35,"x_max":782,"o":"m 267 0 l 267 718 l 35 718 l 35 926 l 782 926 l 782 718 l 544 718 l 544 0 l 267 0 m 196 -215 l 196 -60 l 604 -60 l 604 -215 l 196 -215 z "},"U":{"ha":1028,"x_min":90,"x_max":938,"o":"m 543 -35 q 200 52 310 -35 q 90 332 90 139 l 90 926 l 382 926 l 382 349 q 416 216 382 258 q 528 174 450 174 q 635 218 597 174 q 674 349 674 263 l 674 926 l 938 926 l 938 332 q 831 56 938 146 q 543 -35 724 -35 z "},"Ú":{"ha":1028,"x_min":90,"x_max":938,"o":"m 543 -35 q 200 52 310 -35 q 90 332 90 139 l 90 926 l 382 926 l 382 349 q 416 216 382 258 q 528 174 450 174 q 635 218 597 174 q 674 349 674 263 l 674 926 l 938 926 l 938 332 q 831 56 938 146 q 543 -35 724 -35 m 447 1006 l 486 1161 l 751 1161 l 567 1006 l 447 1006 z "},"Ŭ":{"ha":1028,"x_min":90,"x_max":938,"o":"m 543 -35 q 200 52 310 -35 q 90 332 90 139 l 90 926 l 382 926 l 382 349 q 416 216 382 258 q 528 174 450 174 q 635 218 597 174 q 674 349 674 263 l 674 926 l 938 926 l 938 332 q 831 56 938 146 q 543 -35 724 -35 m 514 990 q 360 1042 408 990 q 296 1186 311 1094 l 429 1186 q 460 1132 439 1156 q 514 1108 481 1108 q 599 1186 574 1108 l 733 1186 q 673 1044 725 1097 q 514 990 621 990 z "},"Ǔ":{"ha":1028,"x_min":90,"x_max":938,"o":"m 543 -35 q 200 52 310 -35 q 90 332 90 139 l 90 926 l 382 926 l 382 349 q 416 216 382 258 q 528 174 450 174 q 635 218 597 174 q 674 349 674 263 l 674 926 l 938 926 l 938 332 q 831 56 938 146 q 543 -35 724 -35 m 404 985 l 293 1154 l 449 1154 l 507 1079 l 565 1154 l 721 1154 l 624 985 l 404 985 z "},"Û":{"ha":1028,"x_min":90,"x_max":938,"o":"m 543 -35 q 200 52 310 -35 q 90 332 90 139 l 90 926 l 382 926 l 382 349 q 416 216 382 258 q 528 174 450 174 q 635 218 597 174 q 674 349 674 263 l 674 926 l 938 926 l 938 332 q 831 56 938 146 q 543 -35 724 -35 m 286 994 l 411 1164 l 617 1164 l 742 994 l 572 994 l 514 1069 l 456 994 l 286 994 z "},"Ȕ":{"ha":1028,"x_min":90,"x_max":938,"o":"m 543 -35 q 200 52 310 -35 q 90 332 90 139 l 90 926 l 382 926 l 382 349 q 416 216 382 258 q 528 174 450 174 q 635 218 597 174 q 674 349 674 263 l 674 926 l 938 926 l 938 332 q 831 56 938 146 q 543 -35 724 -35 m 333 1006 l 190 1158 l 408 1158 l 467 1006 l 333 1006 m 600 1007 l 457 1160 l 675 1160 l 733 1007 l 600 1007 z "},"Ü":{"ha":1028,"x_min":90,"x_max":938,"o":"m 543 -35 q 200 52 310 -35 q 90 332 90 139 l 90 926 l 382 926 l 382 349 q 416 216 382 258 q 528 174 450 174 q 635 218 597 174 q 674 349 674 263 l 674 926 l 938 926 l 938 332 q 831 56 938 146 q 543 -35 724 -35 m 265 978 l 265 1129 l 474 1129 l 474 978 l 265 978 m 542 978 l 542 1129 l 750 1129 l 750 978 l 542 978 z "},"Ụ":{"ha":1028,"x_min":90,"x_max":938,"o":"m 543 -35 q 200 52 310 -35 q 90 332 90 139 l 90 926 l 382 926 l 382 349 q 416 216 382 258 q 528 174 450 174 q 635 218 597 174 q 674 349 674 263 l 674 926 l 938 926 l 938 332 q 831 56 938 146 q 543 -35 724 -35 m 431 -221 l 431 -69 l 597 -69 l 597 -221 l 431 -221 z "},"Ù":{"ha":1028,"x_min":90,"x_max":938,"o":"m 543 -35 q 200 52 310 -35 q 90 332 90 139 l 90 926 l 382 926 l 382 349 q 416 216 382 258 q 528 174 450 174 q 635 218 597 174 q 674 349 674 263 l 674 926 l 938 926 l 938 332 q 831 56 938 146 q 543 -35 724 -35 m 454 1006 l 311 1158 l 529 1158 l 588 1006 l 454 1006 z "},"Ủ":{"ha":1028,"x_min":90,"x_max":938,"o":"m 543 -35 q 200 52 310 -35 q 90 332 90 139 l 90 926 l 382 926 l 382 349 q 416 216 382 258 q 528 174 450 174 q 635 218 597 174 q 674 349 674 263 l 674 926 l 938 926 l 938 332 q 831 56 938 146 q 543 -35 724 -35 m 433 1075 q 469 1085 454 1075 q 483 1108 483 1094 q 428 1140 483 1140 q 385 1135 408 1140 l 385 1225 q 482 1232 417 1232 q 604 1204 558 1232 q 650 1118 650 1176 q 628 1050 650 1075 q 568 1025 606 1025 l 568 993 l 433 993 l 433 1075 z "},"Ư":{"ha":1174,"x_min":90,"x_max":1093,"o":"m 1093 1038 l 1093 943 q 1053 849 1093 882 q 938 801 1013 815 l 938 332 q 831 56 938 146 q 543 -35 724 -35 q 200 52 310 -35 q 90 332 90 139 l 90 926 l 382 926 l 382 349 q 416 216 382 258 q 528 174 450 174 q 635 218 597 174 q 674 349 674 263 l 674 926 l 872 926 q 944 979 944 933 l 944 1038 l 1093 1038 z "},"Ứ":{"ha":1174,"x_min":90,"x_max":1093,"o":"m 1093 1038 l 1093 943 q 1053 849 1093 882 q 938 801 1013 815 l 938 332 q 831 56 938 146 q 543 -35 724 -35 q 200 52 310 -35 q 90 332 90 139 l 90 926 l 382 926 l 382 349 q 416 216 382 258 q 528 174 450 174 q 635 218 597 174 q 674 349 674 263 l 674 926 l 872 926 q 944 979 944 933 l 944 1038 l 1093 1038 m 447 1006 l 486 1161 l 751 1161 l 567 1006 l 447 1006 z "},"Ự":{"ha":1174,"x_min":90,"x_max":1093,"o":"m 1093 1038 l 1093 943 q 1053 849 1093 882 q 938 801 1013 815 l 938 332 q 831 56 938 146 q 543 -35 724 -35 q 200 52 310 -35 q 90 332 90 139 l 90 926 l 382 926 l 382 349 q 416 216 382 258 q 528 174 450 174 q 635 218 597 174 q 674 349 674 263 l 674 926 l 872 926 q 944 979 944 933 l 944 1038 l 1093 1038 m 431 -221 l 431 -69 l 597 -69 l 597 -221 l 431 -221 z "},"Ừ":{"ha":1174,"x_min":90,"x_max":1093,"o":"m 1093 1038 l 1093 943 q 1053 849 1093 882 q 938 801 1013 815 l 938 332 q 831 56 938 146 q 543 -35 724 -35 q 200 52 310 -35 q 90 332 90 139 l 90 926 l 382 926 l 382 349 q 416 216 382 258 q 528 174 450 174 q 635 218 597 174 q 674 349 674 263 l 674 926 l 872 926 q 944 979 944 933 l 944 1038 l 1093 1038 m 454 1006 l 311 1158 l 529 1158 l 588 1006 l 454 1006 z "},"Ử":{"ha":1174,"x_min":90,"x_max":1093,"o":"m 1093 1038 l 1093 943 q 1053 849 1093 882 q 938 801 1013 815 l 938 332 q 831 56 938 146 q 543 -35 724 -35 q 200 52 310 -35 q 90 332 90 139 l 90 926 l 382 926 l 382 349 q 416 216 382 258 q 528 174 450 174 q 635 218 597 174 q 674 349 674 263 l 674 926 l 872 926 q 944 979 944 933 l 944 1038 l 1093 1038 m 433 1075 q 469 1085 454 1075 q 483 1108 483 1094 q 428 1140 483 1140 q 385 1135 408 1140 l 385 1225 q 482 1232 417 1232 q 604 1204 558 1232 q 650 1118 650 1176 q 628 1050 650 1075 q 568 1025 606 1025 l 568 993 l 433 993 l 433 1075 z "},"Ữ":{"ha":1174,"x_min":90,"x_max":1093,"o":"m 1093 1038 l 1093 943 q 1053 849 1093 882 q 938 801 1013 815 l 938 332 q 831 56 938 146 q 543 -35 724 -35 q 200 52 310 -35 q 90 332 90 139 l 90 926 l 382 926 l 382 349 q 416 216 382 258 q 528 174 450 174 q 635 218 597 174 q 674 349 674 263 l 674 926 l 872 926 q 944 979 944 933 l 944 1038 l 1093 1038 m 244 1008 q 267 1113 244 1064 q 330 1192 289 1163 q 425 1221 371 1221 q 489 1208 460 1221 q 554 1169 518 1194 q 603 1140 582 1150 q 644 1131 624 1131 q 697 1218 697 1131 l 810 1218 q 785 1105 810 1153 q 722 1032 761 1057 q 638 1007 682 1007 q 550 1022 583 1007 q 478 1065 517 1038 q 444 1090 457 1082 q 414 1097 431 1097 q 368 1070 382 1097 q 354 1008 354 1043 l 244 1008 z "},"Ű":{"ha":1028,"x_min":90,"x_max":938,"o":"m 543 -35 q 200 52 310 -35 q 90 332 90 139 l 90 926 l 382 926 l 382 349 q 416 216 382 258 q 528 174 450 174 q 635 218 597 174 q 674 349 674 263 l 674 926 l 938 926 l 938 332 q 831 56 938 146 q 543 -35 724 -35 m 340 1019 l 426 1182 l 589 1182 l 460 1019 l 340 1019 m 550 1019 l 636 1182 l 799 1182 l 669 1019 l 550 1019 z "},"Ȗ":{"ha":1028,"x_min":90,"x_max":938,"o":"m 543 -35 q 200 52 310 -35 q 90 332 90 139 l 90 926 l 382 926 l 382 349 q 416 216 382 258 q 528 174 450 174 q 635 218 597 174 q 674 349 674 263 l 674 926 l 938 926 l 938 332 q 831 56 938 146 q 543 -35 724 -35 m 514 1194 q 673 1141 621 1194 q 733 999 725 1088 l 599 999 q 514 1076 574 1076 q 460 1053 481 1076 q 429 999 439 1029 l 296 999 q 360 1142 311 1090 q 514 1194 408 1194 z "},"Ū":{"ha":1028,"x_min":90,"x_max":938,"o":"m 543 -35 q 200 52 310 -35 q 90 332 90 139 l 90 926 l 382 926 l 382 349 q 416 216 382 258 q 528 174 450 174 q 635 218 597 174 q 674 349 674 263 l 674 926 l 938 926 l 938 332 q 831 56 938 146 q 543 -35 724 -35 m 301 1000 l 301 1156 l 710 1156 l 710 1000 l 301 1000 z "},"Ṻ":{"ha":1028,"x_min":90,"x_max":938,"o":"m 543 -35 q 200 52 310 -35 q 90 332 90 139 l 90 926 l 382 926 l 382 349 q 416 216 382 258 q 528 174 450 174 q 635 218 597 174 q 674 349 674 263 l 674 926 l 938 926 l 938 332 q 831 56 938 146 q 543 -35 724 -35 m 301 1000 l 301 1156 l 710 1156 l 710 1000 l 301 1000 m 265 1179 l 265 1331 l 474 1331 l 474 1179 l 265 1179 m 542 1179 l 542 1331 l 750 1331 l 750 1179 l 542 1179 z "},"Ų":{"ha":1028,"x_min":90,"x_max":938,"o":"m 938 926 l 938 332 q 886 122 938 204 q 740 0 835 39 l 742 0 q 604 -103 604 -53 q 617 -142 604 -132 q 653 -153 629 -153 q 750 -101 693 -153 l 750 -233 q 686 -260 717 -250 q 604 -269 656 -269 q 453 -235 501 -269 q 406 -129 406 -201 q 457 -32 406 -75 q 180 70 269 -17 q 90 332 90 157 l 90 926 l 382 926 l 382 349 q 416 216 382 258 q 528 174 450 174 q 635 218 597 174 q 674 349 674 263 l 674 926 l 938 926 z "},"Ů":{"ha":1028,"x_min":90,"x_max":938,"o":"m 543 -35 q 200 52 310 -35 q 90 332 90 139 l 90 926 l 382 926 l 382 349 q 416 216 382 258 q 528 174 450 174 q 635 218 597 174 q 674 349 674 263 l 674 926 l 938 926 l 938 332 q 831 56 938 146 q 543 -35 724 -35 m 511 953 q 381 988 428 953 q 335 1086 335 1022 q 382 1184 335 1149 q 511 1219 429 1219 q 641 1184 594 1219 q 688 1086 688 1149 q 641 988 688 1022 q 511 953 594 953 m 511 1043 q 560 1052 546 1043 q 574 1086 574 1061 q 559 1119 574 1110 q 511 1129 544 1129 q 463 1119 478 1129 q 449 1086 449 1110 q 463 1052 449 1061 q 511 1043 476 1043 z "},"Ũ":{"ha":1028,"x_min":90,"x_max":938,"o":"m 543 -35 q 200 52 310 -35 q 90 332 90 139 l 90 926 l 382 926 l 382 349 q 416 216 382 258 q 528 174 450 174 q 635 218 597 174 q 674 349 674 263 l 674 926 l 938 926 l 938 332 q 831 56 938 146 q 543 -35 724 -35 m 244 1008 q 267 1113 244 1064 q 330 1192 289 1163 q 425 1221 371 1221 q 489 1208 460 1221 q 554 1169 518 1194 q 603 1140 582 1150 q 644 1131 624 1131 q 697 1218 697 1131 l 810 1218 q 785 1105 810 1153 q 722 1032 761 1057 q 638 1007 682 1007 q 550 1022 583 1007 q 478 1065 517 1038 q 444 1090 457 1082 q 414 1097 431 1097 q 368 1070 382 1097 q 354 1008 354 1043 l 244 1008 z "},"Ṹ":{"ha":1028,"x_min":90,"x_max":938,"o":"m 543 -35 q 200 52 310 -35 q 90 332 90 139 l 90 926 l 382 926 l 382 349 q 416 216 382 258 q 528 174 450 174 q 635 218 597 174 q 674 349 674 263 l 674 926 l 938 926 l 938 332 q 831 56 938 146 q 543 -35 724 -35 m 244 1008 q 267 1113 244 1064 q 330 1192 289 1163 q 425 1221 371 1221 q 489 1208 460 1221 q 554 1169 518 1194 q 603 1140 582 1150 q 644 1131 624 1131 q 697 1218 697 1131 l 810 1218 q 785 1105 810 1153 q 722 1032 761 1057 q 638 1007 682 1007 q 550 1022 583 1007 q 478 1065 517 1038 q 444 1090 457 1082 q 414 1097 431 1097 q 368 1070 382 1097 q 354 1008 354 1043 l 244 1008 m 447 1296 l 486 1451 l 751 1451 l 567 1296 l 447 1296 z "},"V":{"ha":1036,"x_min":14,"x_max":1022,"o":"m 725 926 l 1022 926 l 656 0 l 356 0 l 14 926 l 339 926 l 532 304 l 725 926 z "},"W":{"ha":1422,"x_min":35,"x_max":1388,"o":"m 1082 926 l 1388 926 l 1144 0 l 871 0 l 713 528 l 551 0 l 278 0 l 35 926 l 340 926 l 443 343 l 608 926 l 814 926 l 979 342 l 1082 926 z "},"Ẃ":{"ha":1422,"x_min":35,"x_max":1388,"o":"m 1082 926 l 1388 926 l 1144 0 l 871 0 l 713 528 l 551 0 l 278 0 l 35 926 l 340 926 l 443 343 l 608 926 l 814 926 l 979 342 l 1082 926 m 644 992 l 683 1147 l 949 1147 l 764 992 l 644 992 z "},"Ŵ":{"ha":1422,"x_min":35,"x_max":1388,"o":"m 1082 926 l 1388 926 l 1144 0 l 871 0 l 713 528 l 551 0 l 278 0 l 35 926 l 340 926 l 443 343 l 608 926 l 814 926 l 979 342 l 1082 926 m 483 981 l 608 1150 l 814 1150 l 939 981 l 769 981 l 711 1056 l 653 981 l 483 981 z "},"Ẅ":{"ha":1422,"x_min":35,"x_max":1388,"o":"m 1082 926 l 1388 926 l 1144 0 l 871 0 l 713 528 l 551 0 l 278 0 l 35 926 l 340 926 l 443 343 l 608 926 l 814 926 l 979 342 l 1082 926 m 463 964 l 463 1115 l 671 1115 l 671 964 l 463 964 m 739 964 l 739 1115 l 947 1115 l 947 964 l 739 964 z "},"Ẁ":{"ha":1422,"x_min":35,"x_max":1388,"o":"m 1082 926 l 1388 926 l 1144 0 l 871 0 l 713 528 l 551 0 l 278 0 l 35 926 l 340 926 l 443 343 l 608 926 l 814 926 l 979 342 l 1082 926 m 651 992 l 508 1144 l 726 1144 l 785 992 l 651 992 z "},"X":{"ha":997,"x_min":14,"x_max":983,"o":"m 983 0 l 636 0 l 468 251 l 328 0 l 32 0 l 329 457 l 14 926 l 361 926 l 533 669 l 671 926 l 972 926 l 675 458 l 983 0 z "},"Y":{"ha":1017,"x_min":35,"x_max":982,"o":"m 982 926 l 667 388 l 667 0 l 389 0 l 389 390 l 35 926 l 378 926 l 558 606 l 714 926 l 982 926 z "},"Ý":{"ha":1017,"x_min":35,"x_max":982,"o":"m 982 926 l 667 388 l 667 0 l 389 0 l 389 390 l 35 926 l 378 926 l 558 606 l 714 926 l 982 926 m 488 992 l 526 1147 l 792 1147 l 607 992 l 488 992 z "},"Ŷ":{"ha":1017,"x_min":35,"x_max":982,"o":"m 982 926 l 667 388 l 667 0 l 389 0 l 389 390 l 35 926 l 378 926 l 558 606 l 714 926 l 982 926 m 326 981 l 451 1150 l 657 1150 l 782 981 l 613 981 l 554 1056 l 496 981 l 326 981 z "},"Ÿ":{"ha":1017,"x_min":35,"x_max":982,"o":"m 982 926 l 667 388 l 667 0 l 389 0 l 389 390 l 35 926 l 378 926 l 558 606 l 714 926 l 982 926 m 306 964 l 306 1115 l 514 1115 l 514 964 l 306 964 m 582 964 l 582 1115 l 790 1115 l 790 964 l 582 964 z "},"Ẏ":{"ha":1017,"x_min":35,"x_max":982,"o":"m 982 926 l 667 388 l 667 0 l 389 0 l 389 390 l 35 926 l 378 926 l 558 606 l 714 926 l 982 926 m 438 964 l 438 1115 l 632 1115 l 632 964 l 438 964 z "},"Ỵ":{"ha":1017,"x_min":35,"x_max":982,"o":"m 982 926 l 667 388 l 667 0 l 389 0 l 389 390 l 35 926 l 378 926 l 558 606 l 714 926 l 982 926 m 425 -221 l 425 -69 l 592 -69 l 592 -221 l 425 -221 z "},"Ỳ":{"ha":1017,"x_min":35,"x_max":982,"o":"m 982 926 l 667 388 l 667 0 l 389 0 l 389 390 l 35 926 l 378 926 l 558 606 l 714 926 l 982 926 m 494 992 l 351 1144 l 569 1144 l 628 992 l 494 992 z "},"Ỷ":{"ha":1017,"x_min":35,"x_max":982,"o":"m 982 926 l 667 388 l 667 0 l 389 0 l 389 390 l 35 926 l 378 926 l 558 606 l 714 926 l 982 926 m 474 1061 q 509 1071 494 1061 q 524 1094 524 1081 q 468 1126 524 1126 q 425 1121 449 1126 l 425 1211 q 522 1218 457 1218 q 644 1190 599 1218 q 690 1104 690 1163 q 668 1036 690 1061 q 608 1011 646 1011 l 608 979 l 474 979 l 474 1061 z "},"Ȳ":{"ha":1017,"x_min":35,"x_max":982,"o":"m 982 926 l 667 388 l 667 0 l 389 0 l 389 390 l 35 926 l 378 926 l 558 606 l 714 926 l 982 926 m 342 986 l 342 1142 l 750 1142 l 750 986 l 342 986 z "},"Ỹ":{"ha":1017,"x_min":35,"x_max":982,"o":"m 982 926 l 667 388 l 667 0 l 389 0 l 389 390 l 35 926 l 378 926 l 558 606 l 714 926 l 982 926 m 285 994 q 307 1099 285 1050 q 370 1178 329 1149 q 465 1207 411 1207 q 529 1194 500 1207 q 594 1156 558 1181 q 643 1126 622 1136 q 685 1117 664 1117 q 738 1204 738 1117 l 850 1204 q 826 1091 850 1139 q 762 1018 801 1043 q 678 993 722 993 q 590 1008 624 993 q 518 1051 557 1024 q 484 1076 497 1068 q 454 1083 471 1083 q 408 1056 422 1083 q 394 994 394 1029 l 285 994 z "},"Z":{"ha":894,"x_min":69,"x_max":825,"o":"m 825 926 l 825 733 l 419 210 l 825 210 l 825 0 l 69 0 l 69 197 l 488 714 l 74 714 l 74 926 l 825 926 z "},"Ź":{"ha":894,"x_min":69,"x_max":825,"o":"m 825 926 l 825 733 l 419 210 l 825 210 l 825 0 l 69 0 l 69 197 l 488 714 l 74 714 l 74 926 l 825 926 m 394 992 l 433 1147 l 699 1147 l 514 992 l 394 992 z "},"Ž":{"ha":894,"x_min":69,"x_max":825,"o":"m 825 926 l 825 733 l 419 210 l 825 210 l 825 0 l 69 0 l 69 197 l 488 714 l 74 714 l 74 926 l 825 926 m 351 971 l 240 1140 l 396 1140 l 454 1065 l 513 1140 l 668 1140 l 571 971 l 351 971 z "},"Ż":{"ha":894,"x_min":69,"x_max":825,"o":"m 825 926 l 825 733 l 419 210 l 825 210 l 825 0 l 69 0 l 69 197 l 488 714 l 74 714 l 74 926 l 825 926 m 344 964 l 344 1115 l 539 1115 l 539 964 l 344 964 z "},"a":{"ha":804,"x_min":42,"x_max":722,"o":"m 396 731 q 618 680 514 731 q 721 475 722 629 l 719 146 q 368 -21 717 -21 q 126 37 211 -21 q 42 232 42 94 q 103 381 42 324 q 290 439 164 439 q 385 426 336 439 q 472 392 435 413 l 472 419 q 326 526 472 526 q 202 503 265 526 q 103 449 139 479 l 103 668 q 219 711 139 692 q 396 731 299 731 m 368 150 q 451 158 431 150 q 472 188 472 165 l 472 274 q 401 283 442 283 q 317 269 342 283 q 292 219 292 254 q 315 172 292 193 q 368 150 338 150 z "},"á":{"ha":804,"x_min":42,"x_max":721,"o":"m 396 731 q 618 680 514 731 q 721 475 722 629 l 719 146 q 368 -21 717 -21 q 126 37 211 -21 q 42 232 42 94 q 103 381 42 324 q 290 439 164 439 q 385 426 336 439 q 472 392 435 413 l 472 419 q 326 526 472 526 q 202 503 265 526 q 103 449 139 479 l 103 668 q 219 711 139 692 q 396 731 299 731 m 368 150 q 451 158 431 150 q 472 188 472 165 l 472 274 q 401 283 442 283 q 317 269 342 283 q 292 219 292 254 q 315 172 292 193 q 368 150 338 150 m 313 800 l 371 976 l 617 976 l 446 800 l 313 800 z "},"ă":{"ha":804,"x_min":42,"x_max":721,"o":"m 396 731 q 618 680 514 731 q 721 475 722 629 l 719 146 q 368 -21 717 -21 q 126 37 211 -21 q 42 232 42 94 q 103 381 42 324 q 290 439 164 439 q 385 426 336 439 q 472 392 435 413 l 472 419 q 326 526 472 526 q 202 503 265 526 q 103 449 139 479 l 103 668 q 219 711 139 692 q 396 731 299 731 m 368 150 q 451 158 431 150 q 472 188 472 165 l 472 274 q 401 283 442 283 q 317 269 342 283 q 292 219 292 254 q 315 172 292 193 q 368 150 338 150 m 390 785 q 236 837 285 785 q 172 981 188 889 l 306 981 q 336 926 315 950 q 390 903 357 903 q 475 981 450 903 l 610 981 q 549 838 601 892 q 390 785 497 785 z "},"ắ":{"ha":804,"x_min":42,"x_max":721,"o":"m 396 731 q 618 680 514 731 q 721 475 722 629 l 719 146 q 368 -21 717 -21 q 126 37 211 -21 q 42 232 42 94 q 103 381 42 324 q 290 439 164 439 q 385 426 336 439 q 472 392 435 413 l 472 419 q 326 526 472 526 q 202 503 265 526 q 103 449 139 479 l 103 668 q 219 711 139 692 q 396 731 299 731 m 368 150 q 451 158 431 150 q 472 188 472 165 l 472 274 q 401 283 442 283 q 317 269 342 283 q 292 219 292 254 q 315 172 292 193 q 368 150 338 150 m 390 785 q 236 837 285 785 q 172 981 188 889 l 306 981 q 336 926 315 950 q 390 903 357 903 q 475 981 450 903 l 610 981 q 549 838 601 892 q 390 785 497 785 m 324 1028 l 363 1183 l 628 1183 l 443 1028 l 324 1028 z "},"ặ":{"ha":765,"x_min":42,"x_max":722,"o":"m 390 747 q 254 786 300 747 q 208 896 208 825 l 333 896 q 349 858 336 871 q 390 846 363 846 q 432 858 419 846 q 447 896 444 871 l 572 896 q 526 786 572 825 q 390 747 481 747 m 396 731 q 618 680 514 731 q 721 475 722 629 l 719 146 q 368 -21 717 -21 q 126 37 211 -21 q 42 232 42 94 q 103 381 42 324 q 290 439 164 439 q 385 426 336 439 q 472 392 435 413 l 472 419 q 326 526 472 526 q 202 503 265 526 q 103 449 139 479 l 103 668 q 219 711 139 692 q 396 731 299 731 m 368 150 q 451 158 431 150 q 472 188 472 165 l 472 274 q 401 283 442 283 q 317 269 342 283 q 292 219 292 254 q 315 172 292 193 q 368 150 338 150 m 307 -221 l 307 -69 l 474 -69 l 474 -221 l 307 -221 z "},"ằ":{"ha":804,"x_min":42,"x_max":721,"o":"m 396 731 q 618 680 514 731 q 721 475 722 629 l 719 146 q 368 -21 717 -21 q 126 37 211 -21 q 42 232 42 94 q 103 381 42 324 q 290 439 164 439 q 385 426 336 439 q 472 392 435 413 l 472 419 q 326 526 472 526 q 202 503 265 526 q 103 449 139 479 l 103 668 q 219 711 139 692 q 396 731 299 731 m 368 150 q 451 158 431 150 q 472 188 472 165 l 472 274 q 401 283 442 283 q 317 269 342 283 q 292 219 292 254 q 315 172 292 193 q 368 150 338 150 m 390 785 q 236 837 285 785 q 172 981 188 889 l 306 981 q 336 926 315 950 q 390 903 357 903 q 475 981 450 903 l 610 981 q 549 838 601 892 q 390 785 497 785 m 328 1010 l 157 1186 l 403 1186 l 461 1010 l 328 1010 z "},"ẳ":{"ha":804,"x_min":42,"x_max":721,"o":"m 396 731 q 618 680 514 731 q 721 475 722 629 l 719 146 q 368 -21 717 -21 q 126 37 211 -21 q 42 232 42 94 q 103 381 42 324 q 290 439 164 439 q 385 426 336 439 q 472 392 435 413 l 472 419 q 326 526 472 526 q 202 503 265 526 q 103 449 139 479 l 103 668 q 219 711 139 692 q 396 731 299 731 m 368 150 q 451 158 431 150 q 472 188 472 165 l 472 274 q 401 283 442 283 q 317 269 342 283 q 292 219 292 254 q 315 172 292 193 q 368 150 338 150 m 388 785 q 233 837 282 785 q 169 981 185 889 l 303 981 q 333 926 313 950 q 388 903 354 903 q 472 981 447 903 l 607 981 q 547 838 599 892 q 388 785 494 785 m 338 1093 q 373 1103 358 1093 q 388 1126 388 1113 q 332 1158 388 1158 q 289 1153 313 1158 l 289 1243 q 386 1250 321 1250 q 508 1222 463 1250 q 554 1136 554 1194 q 532 1068 554 1093 q 472 1043 510 1043 l 472 1011 l 338 1011 l 338 1093 z "},"ẵ":{"ha":804,"x_min":42,"x_max":721,"o":"m 396 731 q 618 680 514 731 q 721 475 722 629 l 719 146 q 368 -21 717 -21 q 126 37 211 -21 q 42 232 42 94 q 103 381 42 324 q 290 439 164 439 q 385 426 336 439 q 472 392 435 413 l 472 419 q 326 526 472 526 q 202 503 265 526 q 103 449 139 479 l 103 668 q 219 711 139 692 q 396 731 299 731 m 368 150 q 451 158 431 150 q 472 188 472 165 l 472 274 q 401 283 442 283 q 317 269 342 283 q 292 219 292 254 q 315 172 292 193 q 368 150 338 150 m 390 785 q 236 837 285 785 q 172 981 188 889 l 306 981 q 336 926 315 950 q 390 903 357 903 q 475 981 450 903 l 610 981 q 549 838 601 892 q 390 785 497 785 m 142 1061 q 164 1166 142 1117 q 227 1244 186 1215 q 322 1274 268 1274 q 386 1260 357 1274 q 451 1222 415 1247 q 500 1193 479 1203 q 542 1183 521 1183 q 594 1271 594 1183 l 707 1271 q 683 1158 707 1206 q 619 1085 658 1110 q 535 1060 579 1060 q 447 1075 481 1060 q 375 1118 414 1090 q 341 1142 354 1135 q 311 1150 328 1150 q 265 1123 279 1150 q 251 1061 251 1096 l 142 1061 z "},"ǎ":{"ha":804,"x_min":42,"x_max":721,"o":"m 396 731 q 618 680 514 731 q 721 475 722 629 l 719 146 q 368 -21 717 -21 q 126 37 211 -21 q 42 232 42 94 q 103 381 42 324 q 290 439 164 439 q 385 426 336 439 q 472 392 435 413 l 472 419 q 326 526 472 526 q 202 503 265 526 q 103 449 139 479 l 103 668 q 219 711 139 692 q 396 731 299 731 m 368 150 q 451 158 431 150 q 472 188 472 165 l 472 274 q 401 283 442 283 q 317 269 342 283 q 292 219 292 254 q 315 172 292 193 q 368 150 338 150 m 281 825 l 169 994 l 325 994 l 383 919 l 442 994 l 597 994 l 500 825 l 281 825 z "},"â":{"ha":804,"x_min":42,"x_max":721,"o":"m 396 731 q 618 680 514 731 q 721 475 722 629 l 719 146 q 368 -21 717 -21 q 126 37 211 -21 q 42 232 42 94 q 103 381 42 324 q 290 439 164 439 q 385 426 336 439 q 472 392 435 413 l 472 419 q 326 526 472 526 q 202 503 265 526 q 103 449 139 479 l 103 668 q 219 711 139 692 q 396 731 299 731 m 368 150 q 451 158 431 150 q 472 188 472 165 l 472 274 q 401 283 442 283 q 317 269 342 283 q 292 219 292 254 q 315 172 292 193 q 368 150 338 150 m 176 811 l 301 981 l 507 981 l 632 811 l 463 811 l 404 886 l 346 811 l 176 811 z "},"ấ":{"ha":804,"x_min":42,"x_max":882,"o":"m 396 731 q 618 680 514 731 q 721 475 722 629 l 719 146 q 368 -21 717 -21 q 126 37 211 -21 q 42 232 42 94 q 103 381 42 324 q 290 439 164 439 q 385 426 336 439 q 472 392 435 413 l 472 419 q 326 526 472 526 q 202 503 265 526 q 103 449 139 479 l 103 668 q 219 711 139 692 q 396 731 299 731 m 368 150 q 451 158 431 150 q 472 188 472 165 l 472 274 q 401 283 442 283 q 317 269 342 283 q 292 219 292 254 q 315 172 292 193 q 368 150 338 150 m 164 783 l 289 953 l 494 953 l 619 783 l 450 783 l 392 858 l 333 783 l 164 783 m 578 886 l 617 1042 l 882 1042 l 697 886 l 578 886 z "},"ậ":{"ha":765,"x_min":42,"x_max":721,"o":"m 396 731 q 618 680 514 731 q 721 475 722 629 l 719 146 q 368 -21 717 -21 q 126 37 211 -21 q 42 232 42 94 q 103 381 42 324 q 290 439 164 439 q 385 426 336 439 q 472 392 435 413 l 472 419 q 326 526 472 526 q 202 503 265 526 q 103 449 139 479 l 103 668 q 219 711 139 692 q 396 731 299 731 m 368 150 q 451 158 431 150 q 472 188 472 165 l 472 274 q 401 283 442 283 q 317 269 342 283 q 292 219 292 254 q 315 172 292 193 q 368 150 338 150 m 310 -221 l 310 -69 l 476 -69 l 476 -221 l 310 -221 m 176 811 l 301 981 l 507 981 l 632 811 l 463 811 l 404 886 l 346 811 l 176 811 z "},"ầ":{"ha":804,"x_min":-75,"x_max":721,"o":"m 396 731 q 618 680 514 731 q 721 475 722 629 l 719 146 q 368 -21 717 -21 q 126 37 211 -21 q 42 232 42 94 q 103 381 42 324 q 290 439 164 439 q 385 426 336 439 q 472 392 435 413 l 472 419 q 326 526 472 526 q 202 503 265 526 q 103 449 139 479 l 103 668 q 219 711 139 692 q 396 731 299 731 m 368 150 q 451 158 431 150 q 472 188 472 165 l 472 274 q 401 283 442 283 q 317 269 342 283 q 292 219 292 254 q 315 172 292 193 q 368 150 338 150 m 176 783 l 301 953 l 507 953 l 632 783 l 463 783 l 404 858 l 346 783 l 176 783 m 68 886 l -75 1039 l 143 1039 l 201 886 l 68 886 z "},"ẩ":{"ha":804,"x_min":42,"x_max":778,"o":"m 396 731 q 618 680 514 731 q 721 475 722 629 l 719 146 q 368 -21 717 -21 q 126 37 211 -21 q 42 232 42 94 q 103 381 42 324 q 290 439 164 439 q 385 426 336 439 q 472 392 435 413 l 472 419 q 326 526 472 526 q 202 503 265 526 q 103 449 139 479 l 103 668 q 219 711 139 692 q 396 731 299 731 m 368 150 q 451 158 431 150 q 472 188 472 165 l 472 274 q 401 283 442 283 q 317 269 342 283 q 292 219 292 254 q 315 172 292 193 q 368 150 338 150 m 149 796 l 274 965 l 479 965 l 604 796 l 435 796 l 376 871 l 318 796 l 149 796 m 561 969 q 597 979 582 969 q 611 1003 611 989 q 556 1035 611 1035 q 513 1029 536 1035 l 513 1119 q 610 1126 544 1126 q 732 1099 686 1126 q 778 1013 778 1071 q 756 944 778 969 q 696 919 733 919 l 696 888 l 561 888 l 561 969 z "},"ẫ":{"ha":804,"x_min":42,"x_max":721,"o":"m 396 731 q 618 680 514 731 q 721 475 722 629 l 719 146 q 368 -21 717 -21 q 126 37 211 -21 q 42 232 42 94 q 103 381 42 324 q 290 439 164 439 q 385 426 336 439 q 472 392 435 413 l 472 419 q 326 526 472 526 q 202 503 265 526 q 103 449 139 479 l 103 668 q 219 711 139 692 q 396 731 299 731 m 368 150 q 451 158 431 150 q 472 188 472 165 l 472 274 q 401 283 442 283 q 317 269 342 283 q 292 219 292 254 q 315 172 292 193 q 368 150 338 150 m 176 772 l 301 942 l 507 942 l 632 772 l 463 772 l 404 847 l 346 772 l 176 772 m 121 1006 q 143 1110 121 1061 q 206 1189 165 1160 q 301 1218 247 1218 q 365 1205 336 1218 q 431 1167 394 1192 q 479 1138 458 1147 q 521 1128 500 1128 q 574 1215 574 1128 l 686 1215 q 662 1102 686 1150 q 598 1029 638 1054 q 514 1004 558 1004 q 426 1019 460 1004 q 354 1063 393 1035 q 320 1087 333 1079 q 290 1094 307 1094 q 244 1067 258 1094 q 231 1006 231 1040 l 121 1006 z "},"ȁ":{"ha":804,"x_min":38,"x_max":721,"o":"m 396 731 q 618 680 514 731 q 721 475 722 629 l 719 146 q 368 -21 717 -21 q 126 37 211 -21 q 42 232 42 94 q 103 381 42 324 q 290 439 164 439 q 385 426 336 439 q 472 392 435 413 l 472 419 q 326 526 472 526 q 202 503 265 526 q 103 449 139 479 l 103 668 q 219 711 139 692 q 396 731 299 731 m 368 150 q 451 158 431 150 q 472 188 472 165 l 472 274 q 401 283 442 283 q 317 269 342 283 q 292 219 292 254 q 315 172 292 193 q 368 150 338 150 m 208 800 l 38 976 l 283 976 l 342 800 l 208 800 m 493 800 l 322 976 l 568 976 l 626 800 l 493 800 z "},"ä":{"ha":804,"x_min":42,"x_max":721,"o":"m 396 731 q 618 680 514 731 q 721 475 722 629 l 719 146 q 368 -21 717 -21 q 126 37 211 -21 q 42 232 42 94 q 103 381 42 324 q 290 439 164 439 q 385 426 336 439 q 472 392 435 413 l 472 419 q 326 526 472 526 q 202 503 265 526 q 103 449 139 479 l 103 668 q 219 711 139 692 q 396 731 299 731 m 368 150 q 451 158 431 150 q 472 188 472 165 l 472 274 q 401 283 442 283 q 317 269 342 283 q 292 219 292 254 q 315 172 292 193 q 368 150 338 150 m 163 814 l 163 965 l 371 965 l 371 814 l 163 814 m 439 814 l 439 965 l 647 965 l 647 814 l 439 814 z "},"ạ":{"ha":765,"x_min":42,"x_max":722,"o":"m 396 731 q 618 680 514 731 q 721 475 722 629 l 719 146 q 368 -21 717 -21 q 126 37 211 -21 q 42 232 42 94 q 103 381 42 324 q 290 439 164 439 q 385 426 336 439 q 472 392 435 413 l 472 419 q 326 526 472 526 q 202 503 265 526 q 103 449 139 479 l 103 668 q 219 711 139 692 q 396 731 299 731 m 368 150 q 451 158 431 150 q 472 188 472 165 l 472 274 q 401 283 442 283 q 317 269 342 283 q 292 219 292 254 q 315 172 292 193 q 368 150 338 150 m 310 -221 l 310 -69 l 476 -69 l 476 -221 l 310 -221 z "},"à":{"ha":804,"x_min":42,"x_max":721,"o":"m 396 731 q 618 680 514 731 q 721 475 722 629 l 719 146 q 368 -21 717 -21 q 126 37 211 -21 q 42 232 42 94 q 103 381 42 324 q 290 439 164 439 q 385 426 336 439 q 472 392 435 413 l 472 419 q 326 526 472 526 q 202 503 265 526 q 103 449 139 479 l 103 668 q 219 711 139 692 q 396 731 299 731 m 368 150 q 451 158 431 150 q 472 188 472 165 l 472 274 q 401 283 442 283 q 317 269 342 283 q 292 219 292 254 q 315 172 292 193 q 368 150 338 150 m 328 800 l 157 976 l 403 976 l 461 800 l 328 800 z "},"ả":{"ha":804,"x_min":42,"x_max":721,"o":"m 396 731 q 618 680 514 731 q 721 475 722 629 l 719 146 q 368 -21 717 -21 q 126 37 211 -21 q 42 232 42 94 q 103 381 42 324 q 290 439 164 439 q 385 426 336 439 q 472 392 435 413 l 472 419 q 326 526 472 526 q 202 503 265 526 q 103 449 139 479 l 103 668 q 219 711 139 692 q 396 731 299 731 m 368 150 q 451 158 431 150 q 472 188 472 165 l 472 274 q 401 283 442 283 q 317 269 342 283 q 292 219 292 254 q 315 172 292 193 q 368 150 338 150 m 340 865 q 376 875 361 865 q 390 899 390 885 q 335 931 390 931 q 292 925 315 931 l 292 1015 q 389 1022 324 1022 q 511 994 465 1022 q 557 908 557 967 q 535 840 557 865 q 475 815 513 815 l 475 783 l 340 783 l 340 865 z "},"ȃ":{"ha":804,"x_min":42,"x_max":721,"o":"m 396 731 q 618 680 514 731 q 721 475 722 629 l 719 146 q 368 -21 717 -21 q 126 37 211 -21 q 42 232 42 94 q 103 381 42 324 q 290 439 164 439 q 385 426 336 439 q 472 392 435 413 l 472 419 q 326 526 472 526 q 202 503 265 526 q 103 449 139 479 l 103 668 q 219 711 139 692 q 396 731 299 731 m 368 150 q 451 158 431 150 q 472 188 472 165 l 472 274 q 401 283 442 283 q 317 269 342 283 q 292 219 292 254 q 315 172 292 193 q 368 150 338 150 m 390 961 q 549 908 497 961 q 610 765 601 854 l 475 765 q 390 843 450 843 q 336 819 357 843 q 306 765 315 796 l 172 765 q 236 909 188 857 q 390 961 285 961 z "},"ā":{"ha":804,"x_min":42,"x_max":721,"o":"m 396 731 q 618 680 514 731 q 721 475 722 629 l 719 146 q 368 -21 717 -21 q 126 37 211 -21 q 42 232 42 94 q 103 381 42 324 q 290 439 164 439 q 385 426 336 439 q 472 392 435 413 l 472 419 q 326 526 472 526 q 202 503 265 526 q 103 449 139 479 l 103 668 q 219 711 139 692 q 396 731 299 731 m 368 150 q 451 158 431 150 q 472 188 472 165 l 472 274 q 401 283 442 283 q 317 269 342 283 q 292 219 292 254 q 315 172 292 193 q 368 150 338 150 m 178 794 l 178 950 l 586 950 l 586 794 l 178 794 z "},"ą":{"ha":804,"x_min":42,"x_max":722,"o":"m 396 731 q 618 680 514 731 q 721 475 722 629 l 719 146 q 635 22 719 67 l 636 22 q 499 -81 499 -31 q 511 -120 499 -110 q 547 -131 524 -131 q 644 -79 588 -131 l 644 -211 q 581 -237 611 -228 q 499 -247 550 -247 q 348 -213 396 -247 q 300 -107 300 -179 q 339 -21 300 -57 q 119 42 196 -15 q 42 232 42 100 q 103 381 42 324 q 290 439 164 439 q 385 426 336 439 q 472 392 435 413 l 472 419 q 326 526 472 526 q 202 503 265 526 q 103 449 139 479 l 103 668 q 219 711 139 692 q 396 731 299 731 m 292 219 q 315 172 292 193 q 368 150 338 150 q 451 158 431 150 q 472 188 472 165 l 472 274 q 401 283 442 283 q 317 269 342 283 q 292 219 292 254 z "},"å":{"ha":804,"x_min":42,"x_max":721,"o":"m 396 731 q 618 680 514 731 q 721 475 722 629 l 719 146 q 368 -21 717 -21 q 126 37 211 -21 q 42 232 42 94 q 103 381 42 324 q 290 439 164 439 q 385 426 336 439 q 472 392 435 413 l 472 419 q 326 526 472 526 q 202 503 265 526 q 103 449 139 479 l 103 668 q 219 711 139 692 q 396 731 299 731 m 368 150 q 451 158 431 150 q 472 188 472 165 l 472 274 q 401 283 442 283 q 317 269 342 283 q 292 219 292 254 q 315 172 292 193 q 368 150 338 150 m 390 785 q 260 819 307 785 q 214 918 214 854 q 261 1016 214 981 q 390 1051 308 1051 q 520 1016 474 1051 q 567 918 567 981 q 520 819 567 854 q 390 785 474 785 m 390 875 q 439 884 425 875 q 453 918 453 893 q 438 951 453 942 q 390 961 424 961 q 342 951 357 961 q 328 918 328 942 q 342 884 328 893 q 390 875 356 875 z "},"ǻ":{"ha":804,"x_min":42,"x_max":721,"o":"m 396 731 q 618 680 514 731 q 721 475 722 629 l 719 146 q 368 -21 717 -21 q 126 37 211 -21 q 42 232 42 94 q 103 381 42 324 q 290 439 164 439 q 385 426 336 439 q 472 392 435 413 l 472 419 q 326 526 472 526 q 202 503 265 526 q 103 449 139 479 l 103 668 q 219 711 139 692 q 396 731 299 731 m 368 150 q 451 158 431 150 q 472 188 472 165 l 472 274 q 401 283 442 283 q 317 269 342 283 q 292 219 292 254 q 315 172 292 193 q 368 150 338 150 m 390 785 q 260 819 307 785 q 214 918 214 854 q 261 1016 214 981 q 390 1051 308 1051 q 520 1016 474 1051 q 567 918 567 981 q 520 819 567 854 q 390 785 474 785 m 390 875 q 439 884 425 875 q 453 918 453 893 q 438 951 453 942 q 390 961 424 961 q 342 951 357 961 q 328 918 328 942 q 342 884 328 893 q 390 875 356 875 m 313 1089 l 371 1265 l 617 1265 l 446 1089 l 313 1089 z "},"ã":{"ha":804,"x_min":42,"x_max":721,"o":"m 396 731 q 618 680 514 731 q 721 475 722 629 l 719 146 q 368 -21 717 -21 q 126 37 211 -21 q 42 232 42 94 q 103 381 42 324 q 290 439 164 439 q 385 426 336 439 q 472 392 435 413 l 472 419 q 326 526 472 526 q 202 503 265 526 q 103 449 139 479 l 103 668 q 219 711 139 692 q 396 731 299 731 m 368 150 q 451 158 431 150 q 472 188 472 165 l 472 274 q 401 283 442 283 q 317 269 342 283 q 292 219 292 254 q 315 172 292 193 q 368 150 338 150 m 121 799 q 143 903 121 854 q 206 982 165 953 q 301 1011 247 1011 q 365 998 336 1011 q 431 960 394 985 q 479 931 458 940 q 521 921 500 921 q 574 1008 574 921 l 686 1008 q 662 895 686 943 q 598 822 638 847 q 514 797 558 797 q 426 813 460 797 q 354 856 393 828 q 320 880 333 872 q 290 888 307 888 q 244 860 258 888 q 231 799 231 833 l 121 799 z "},"æ":{"ha":1219,"x_min":42,"x_max":1179,"o":"m 843 729 q 1098 618 1017 729 q 1178 283 1179 507 l 719 283 q 765 199 721 225 q 910 172 808 172 q 1010 192 956 172 q 1101 235 1064 211 l 1101 25 q 989 -20 1051 -6 q 842 -35 926 -35 q 700 -13 765 -35 q 585 46 635 8 q 326 -33 457 -33 q 120 25 199 -33 q 42 219 42 83 q 103 376 42 313 q 290 439 165 439 q 385 426 336 439 q 472 392 435 413 l 472 415 q 326 522 472 522 q 202 499 265 522 q 103 444 139 475 l 103 668 q 219 711 139 692 q 396 731 299 731 q 626 674 542 731 q 843 729 714 729 m 831 543 q 765 515 794 543 q 726 432 736 488 l 929 432 q 898 518 921 493 q 831 543 875 543 m 292 207 q 315 158 292 179 q 379 138 339 138 q 496 153 453 138 q 472 253 472 203 l 472 274 q 401 283 442 283 q 292 207 292 283 z "},"ǽ":{"ha":1219,"x_min":42,"x_max":1178,"o":"m 843 729 q 1098 618 1017 729 q 1178 283 1179 507 l 719 283 q 765 199 721 225 q 910 172 808 172 q 1010 192 956 172 q 1101 235 1064 211 l 1101 25 q 989 -20 1051 -6 q 842 -35 926 -35 q 700 -13 765 -35 q 585 46 635 8 q 326 -33 457 -33 q 120 25 199 -33 q 42 219 42 83 q 103 376 42 313 q 290 439 165 439 q 385 426 336 439 q 472 392 435 413 l 472 415 q 326 522 472 522 q 202 499 265 522 q 103 444 139 475 l 103 668 q 219 711 139 692 q 396 731 299 731 q 626 674 542 731 q 843 729 714 729 m 831 543 q 765 515 794 543 q 726 432 736 488 l 929 432 q 898 518 921 493 q 831 543 875 543 m 292 207 q 315 158 292 179 q 379 138 339 138 q 496 153 453 138 q 472 253 472 203 l 472 274 q 401 283 442 283 q 292 207 292 283 m 532 786 l 590 963 l 836 963 l 665 786 l 532 786 z "},"b":{"ha":854,"x_min":83,"x_max":813,"o":"m 494 731 q 731 635 649 731 q 813 354 813 540 q 714 69 813 160 q 426 -21 615 -21 q 83 182 83 -21 l 83 953 l 331 953 l 331 685 q 412 720 367 710 q 494 731 457 731 m 426 186 q 528 224 493 186 q 563 336 563 263 q 524 490 563 447 q 422 533 485 533 q 374 528 400 533 q 331 513 349 522 l 331 249 q 354 201 331 215 q 426 186 378 186 z "},"c":{"ha":703,"x_min":42,"x_max":661,"o":"m 429 -21 q 231 24 319 -21 q 92 150 143 68 q 42 339 42 232 q 144 625 42 521 q 426 729 247 729 q 550 717 486 729 q 658 682 614 704 l 658 469 q 553 513 593 499 q 469 526 513 526 q 342 488 392 526 q 293 374 293 450 q 338 233 293 279 q 483 186 382 186 q 661 249 563 186 l 661 39 q 556 -6 610 8 q 429 -21 503 -21 z "},"ć":{"ha":703,"x_min":42,"x_max":661,"o":"m 429 -21 q 231 24 319 -21 q 92 150 143 68 q 42 339 42 232 q 144 625 42 521 q 426 729 247 729 q 550 717 486 729 q 658 682 614 704 l 658 469 q 553 513 593 499 q 469 526 513 526 q 342 488 392 526 q 293 374 293 450 q 338 233 293 279 q 483 186 382 186 q 661 249 563 186 l 661 39 q 556 -6 610 8 q 429 -21 503 -21 m 336 786 l 394 963 l 640 963 l 469 786 l 336 786 z "},"č":{"ha":703,"x_min":42,"x_max":661,"o":"m 429 -21 q 231 24 319 -21 q 92 150 143 68 q 42 339 42 232 q 144 625 42 521 q 426 729 247 729 q 550 717 486 729 q 658 682 614 704 l 658 469 q 553 513 593 499 q 469 526 513 526 q 342 488 392 526 q 293 374 293 450 q 338 233 293 279 q 483 186 382 186 q 661 249 563 186 l 661 39 q 556 -6 610 8 q 429 -21 503 -21 m 304 811 l 193 981 l 349 981 l 407 906 l 465 981 l 621 981 l 524 811 l 304 811 z "},"ç":{"ha":703,"x_min":42,"x_max":661,"o":"m 661 39 q 503 -17 588 -6 l 440 -193 l 219 -193 l 344 -14 q 125 106 208 11 q 42 339 42 200 q 144 625 42 521 q 426 729 247 729 q 550 717 486 729 q 658 682 614 704 l 658 469 q 553 513 593 499 q 469 526 513 526 q 342 488 392 526 q 293 374 293 450 q 338 233 293 279 q 483 186 382 186 q 661 249 563 186 l 661 39 z "},"ḉ":{"ha":703,"x_min":42,"x_max":661,"o":"m 640 963 l 469 786 l 336 786 l 394 963 l 640 963 m 661 39 q 503 -17 588 -6 l 440 -193 l 219 -193 l 344 -14 q 125 106 208 11 q 42 339 42 200 q 144 625 42 521 q 426 729 247 729 q 550 717 486 729 q 658 682 614 704 l 658 469 q 553 513 593 499 q 469 526 513 526 q 342 488 392 526 q 293 374 293 450 q 338 233 293 279 q 483 186 382 186 q 661 249 563 186 l 661 39 z "},"ĉ":{"ha":703,"x_min":42,"x_max":661,"o":"m 429 -21 q 231 24 319 -21 q 92 150 143 68 q 42 339 42 232 q 144 625 42 521 q 426 729 247 729 q 550 717 486 729 q 658 682 614 704 l 658 469 q 553 513 593 499 q 469 526 513 526 q 342 488 392 526 q 293 374 293 450 q 338 233 293 279 q 483 186 382 186 q 661 249 563 186 l 661 39 q 556 -6 610 8 q 429 -21 503 -21 m 200 797 l 325 967 l 531 967 l 656 797 l 486 797 l 428 872 l 369 797 l 200 797 z "},"ċ":{"ha":703,"x_min":42,"x_max":661,"o":"m 429 -21 q 231 24 319 -21 q 92 150 143 68 q 42 339 42 232 q 144 625 42 521 q 426 729 247 729 q 550 717 486 729 q 658 682 614 704 l 658 469 q 553 513 593 499 q 469 526 513 526 q 342 488 392 526 q 293 374 293 450 q 338 233 293 279 q 483 186 382 186 q 661 249 563 186 l 661 39 q 556 -6 610 8 q 429 -21 503 -21 m 297 786 l 297 938 l 492 938 l 492 786 l 297 786 z "},"d":{"ha":869,"x_min":42,"x_max":786,"o":"m 786 994 l 786 210 q 740 85 786 138 q 614 6 693 33 q 440 -21 535 -21 q 140 66 239 -21 q 42 358 42 153 q 129 635 42 536 q 386 735 217 735 q 464 730 428 735 q 536 701 500 725 l 536 994 l 786 994 m 536 514 q 460 535 494 535 q 367 520 403 535 q 313 465 332 506 q 294 349 294 424 q 332 226 294 265 q 451 188 369 188 q 536 238 536 188 l 536 514 z "},"ð":{"ha":818,"x_min":42,"x_max":776,"o":"m 665 828 q 764 429 764 672 q 678 77 764 189 q 414 -35 593 -35 q 134 58 226 -35 q 42 350 42 151 q 115 630 42 531 q 315 729 188 729 q 501 658 439 729 q 443 783 479 729 l 282 751 l 247 885 l 331 900 q 233 963 306 919 l 233 972 l 521 972 q 565 940 543 958 l 735 971 l 776 850 l 665 828 m 414 163 q 483 192 458 163 q 517 285 507 221 q 526 460 526 349 q 525 510 526 494 q 414 571 475 571 q 323 515 354 571 q 292 350 292 458 q 322 203 292 244 q 414 163 351 163 z "},"ď":{"ha":1114,"x_min":42,"x_max":1097,"o":"m 786 994 l 786 210 q 740 85 786 138 q 614 6 693 33 q 440 -21 535 -21 q 140 66 239 -21 q 42 358 42 153 q 129 635 42 536 q 386 735 217 735 q 464 730 428 735 q 536 701 500 725 l 536 994 l 786 994 m 536 514 q 460 535 494 535 q 367 520 403 535 q 313 465 332 506 q 294 349 294 424 q 332 226 294 265 q 451 188 369 188 q 536 238 536 188 l 536 514 m 801 708 l 904 981 l 1097 981 l 964 708 l 801 708 z "},"đ":{"ha":869,"x_min":42,"x_max":864,"o":"m 864 757 l 786 757 l 786 210 q 740 85 786 138 q 614 6 693 33 q 440 -21 535 -21 q 140 66 239 -21 q 42 358 42 153 q 129 635 42 536 q 386 735 217 735 q 464 730 428 735 q 536 701 500 725 l 536 757 l 414 757 l 414 907 l 536 907 l 536 994 l 786 994 l 786 907 l 864 907 l 864 757 m 536 514 q 460 535 494 535 q 367 520 403 535 q 313 465 332 506 q 294 349 294 424 q 332 226 294 265 q 451 188 369 188 q 536 238 536 188 l 536 514 z "},"ḏ":{"ha":869,"x_min":42,"x_max":786,"o":"m 786 994 l 786 210 q 740 85 786 138 q 614 6 693 33 q 440 -21 535 -21 q 140 66 239 -21 q 42 358 42 153 q 129 635 42 536 q 386 735 217 735 q 464 730 428 735 q 536 701 500 725 l 536 994 l 786 994 m 536 514 q 460 535 494 535 q 367 520 403 535 q 313 465 332 506 q 294 349 294 424 q 332 226 294 265 q 451 188 369 188 q 536 238 536 188 l 536 514 m 244 -215 l 244 -60 l 653 -60 l 653 -215 l 244 -215 z "},"ǆ":{"ha":1575,"x_min":42,"x_max":1513,"o":"m 786 994 l 786 210 q 740 85 786 138 q 614 6 693 33 q 440 -21 535 -21 q 140 66 239 -21 q 42 358 42 153 q 129 635 42 536 q 386 735 217 735 q 464 730 428 735 q 536 701 500 725 l 536 994 l 786 994 m 536 514 q 460 535 494 535 q 367 520 403 535 q 313 465 332 506 q 294 349 294 424 q 332 226 294 265 q 451 188 369 188 q 536 238 536 188 l 536 514 m 1513 707 l 1513 514 l 1244 199 l 1513 199 l 1513 0 l 932 0 l 932 196 l 1247 522 l 939 522 l 939 707 l 1513 707 m 1126 783 l 1015 953 l 1171 953 l 1229 878 l 1288 953 l 1443 953 l 1346 783 l 1126 783 z "},"e":{"ha":789,"x_min":42,"x_max":749,"o":"m 413 735 q 667 623 586 735 q 747 283 749 511 l 307 283 q 483 186 340 186 q 640 224 540 186 l 675 235 l 675 25 q 415 -21 556 -21 q 221 24 306 -21 q 89 150 136 68 q 42 339 42 232 q 138 631 42 526 q 413 735 233 735 m 400 549 q 335 520 364 549 q 297 432 307 492 l 499 432 q 467 522 490 496 q 400 549 444 549 z "},"é":{"ha":789,"x_min":42,"x_max":747,"o":"m 413 735 q 667 623 586 735 q 747 283 749 511 l 307 283 q 483 186 340 186 q 640 224 540 186 l 675 235 l 675 25 q 415 -21 556 -21 q 221 24 306 -21 q 89 150 136 68 q 42 339 42 232 q 138 631 42 526 q 413 735 233 735 m 400 549 q 335 520 364 549 q 297 432 307 492 l 499 432 q 467 522 490 496 q 400 549 444 549 m 326 786 l 385 963 l 631 963 l 460 786 l 326 786 z "},"ĕ":{"ha":789,"x_min":42,"x_max":747,"o":"m 413 735 q 667 623 586 735 q 747 283 749 511 l 307 283 q 483 186 340 186 q 640 224 540 186 l 675 235 l 675 25 q 415 -21 556 -21 q 221 24 306 -21 q 89 150 136 68 q 42 339 42 232 q 138 631 42 526 q 413 735 233 735 m 400 549 q 335 520 364 549 q 297 432 307 492 l 499 432 q 467 522 490 496 q 400 549 444 549 m 404 771 q 250 823 299 771 q 186 967 201 875 l 319 967 q 350 913 329 936 q 404 889 371 889 q 489 967 464 889 l 624 967 q 563 824 615 878 q 404 771 511 771 z "},"ě":{"ha":789,"x_min":42,"x_max":747,"o":"m 413 735 q 667 623 586 735 q 747 283 749 511 l 307 283 q 483 186 340 186 q 640 224 540 186 l 675 235 l 675 25 q 415 -21 556 -21 q 221 24 306 -21 q 89 150 136 68 q 42 339 42 232 q 138 631 42 526 q 413 735 233 735 m 400 549 q 335 520 364 549 q 297 432 307 492 l 499 432 q 467 522 490 496 q 400 549 444 549 m 294 811 l 183 981 l 339 981 l 397 906 l 456 981 l 611 981 l 514 811 l 294 811 z "},"ḝ":{"ha":789,"x_min":42,"x_max":749,"o":"m 404 771 q 250 823 299 771 q 186 967 201 875 l 319 967 q 350 913 329 936 q 404 889 371 889 q 489 967 464 889 l 624 967 q 563 824 615 878 q 404 771 511 771 m 413 735 q 667 623 586 735 q 747 283 749 511 l 307 283 q 483 186 340 186 q 640 224 540 186 l 675 235 l 675 25 q 565 -7 622 4 l 500 -193 l 279 -193 l 399 -21 q 213 28 293 -18 q 87 154 132 74 q 42 339 42 235 q 138 631 42 526 q 413 735 233 735 m 400 549 q 335 520 364 549 q 297 432 307 492 l 499 432 q 467 522 490 496 q 400 549 444 549 z "},"ê":{"ha":789,"x_min":42,"x_max":747,"o":"m 413 735 q 667 623 586 735 q 747 283 749 511 l 307 283 q 483 186 340 186 q 640 224 540 186 l 675 235 l 675 25 q 415 -21 556 -21 q 221 24 306 -21 q 89 150 136 68 q 42 339 42 232 q 138 631 42 526 q 413 735 233 735 m 400 549 q 335 520 364 549 q 297 432 307 492 l 499 432 q 467 522 490 496 q 400 549 444 549 m 190 797 l 315 967 l 521 967 l 646 797 l 476 797 l 418 872 l 360 797 l 190 797 z "},"ế":{"ha":789,"x_min":42,"x_max":896,"o":"m 413 735 q 667 623 586 735 q 747 283 749 511 l 307 283 q 483 186 340 186 q 640 224 540 186 l 675 235 l 675 25 q 415 -21 556 -21 q 221 24 306 -21 q 89 150 136 68 q 42 339 42 232 q 138 631 42 526 q 413 735 233 735 m 400 549 q 335 520 364 549 q 297 432 307 492 l 499 432 q 467 522 490 496 q 400 549 444 549 m 178 769 l 303 939 l 508 939 l 633 769 l 464 769 l 406 844 l 347 769 l 178 769 m 592 872 l 631 1028 l 896 1028 l 711 872 l 592 872 z "},"ệ":{"ha":789,"x_min":42,"x_max":747,"o":"m 413 735 q 667 623 586 735 q 747 283 749 511 l 307 283 q 483 186 340 186 q 640 224 540 186 l 675 235 l 675 25 q 415 -21 556 -21 q 221 24 306 -21 q 89 150 136 68 q 42 339 42 232 q 138 631 42 526 q 413 735 233 735 m 400 549 q 335 520 364 549 q 297 432 307 492 l 499 432 q 467 522 490 496 q 400 549 444 549 m 190 797 l 315 967 l 521 967 l 646 797 l 476 797 l 418 872 l 360 797 l 190 797 m 335 -221 l 335 -69 l 501 -69 l 501 -221 l 335 -221 z "},"ề":{"ha":789,"x_min":-61,"x_max":747,"o":"m 413 735 q 667 623 586 735 q 747 283 749 511 l 307 283 q 483 186 340 186 q 640 224 540 186 l 675 235 l 675 25 q 415 -21 556 -21 q 221 24 306 -21 q 89 150 136 68 q 42 339 42 232 q 138 631 42 526 q 413 735 233 735 m 400 549 q 335 520 364 549 q 297 432 307 492 l 499 432 q 467 522 490 496 q 400 549 444 549 m 190 769 l 315 939 l 521 939 l 646 769 l 476 769 l 418 844 l 360 769 l 190 769 m 82 872 l -61 1025 l 157 1025 l 215 872 l 82 872 z "},"ể":{"ha":789,"x_min":42,"x_max":792,"o":"m 413 735 q 667 623 586 735 q 747 283 749 511 l 307 283 q 483 186 340 186 q 640 224 540 186 l 675 235 l 675 25 q 415 -21 556 -21 q 221 24 306 -21 q 89 150 136 68 q 42 339 42 232 q 138 631 42 526 q 413 735 233 735 m 400 549 q 335 520 364 549 q 297 432 307 492 l 499 432 q 467 522 490 496 q 400 549 444 549 m 163 782 l 288 951 l 493 951 l 618 782 l 449 782 l 390 857 l 332 782 l 163 782 m 575 956 q 610 965 596 956 q 625 989 625 975 q 569 1021 625 1021 q 526 1015 550 1021 l 526 1106 q 624 1113 558 1113 q 746 1085 700 1113 q 792 999 792 1057 q 769 931 792 956 q 710 906 747 906 l 710 874 l 575 874 l 575 956 z "},"ễ":{"ha":789,"x_min":42,"x_max":747,"o":"m 413 735 q 667 623 586 735 q 747 283 749 511 l 307 283 q 483 186 340 186 q 640 224 540 186 l 675 235 l 675 25 q 415 -21 556 -21 q 221 24 306 -21 q 89 150 136 68 q 42 339 42 232 q 138 631 42 526 q 413 735 233 735 m 400 549 q 335 520 364 549 q 297 432 307 492 l 499 432 q 467 522 490 496 q 400 549 444 549 m 190 758 l 315 928 l 521 928 l 646 758 l 476 758 l 418 833 l 360 758 l 190 758 m 135 992 q 157 1097 135 1047 q 220 1175 179 1146 q 315 1204 261 1204 q 379 1191 350 1204 q 444 1153 408 1178 q 493 1124 472 1133 q 535 1114 514 1114 q 588 1201 588 1114 l 700 1201 q 676 1088 700 1136 q 612 1015 651 1040 q 528 990 572 990 q 440 1006 474 990 q 368 1049 407 1021 q 334 1073 347 1065 q 304 1081 321 1081 q 258 1053 272 1081 q 244 992 244 1026 l 135 992 z "},"ȅ":{"ha":789,"x_min":42,"x_max":747,"o":"m 413 735 q 667 623 586 735 q 747 283 749 511 l 307 283 q 483 186 340 186 q 640 224 540 186 l 675 235 l 675 25 q 415 -21 556 -21 q 221 24 306 -21 q 89 150 136 68 q 42 339 42 232 q 138 631 42 526 q 413 735 233 735 m 400 549 q 335 520 364 549 q 297 432 307 492 l 499 432 q 467 522 490 496 q 400 549 444 549 m 222 786 l 51 963 l 297 963 l 356 786 l 222 786 m 507 786 l 336 963 l 582 963 l 640 786 l 507 786 z "},"ë":{"ha":789,"x_min":42,"x_max":747,"o":"m 413 735 q 667 623 586 735 q 747 283 749 511 l 307 283 q 483 186 340 186 q 640 224 540 186 l 675 235 l 675 25 q 415 -21 556 -21 q 221 24 306 -21 q 89 150 136 68 q 42 339 42 232 q 138 631 42 526 q 413 735 233 735 m 400 549 q 335 520 364 549 q 297 432 307 492 l 499 432 q 467 522 490 496 q 400 549 444 549 m 176 800 l 176 951 l 385 951 l 385 800 l 176 800 m 453 800 l 453 951 l 661 951 l 661 800 l 453 800 z "},"ė":{"ha":789,"x_min":42,"x_max":747,"o":"m 413 735 q 667 623 586 735 q 747 283 749 511 l 307 283 q 483 186 340 186 q 640 224 540 186 l 675 235 l 675 25 q 415 -21 556 -21 q 221 24 306 -21 q 89 150 136 68 q 42 339 42 232 q 138 631 42 526 q 413 735 233 735 m 400 549 q 335 520 364 549 q 297 432 307 492 l 499 432 q 467 522 490 496 q 400 549 444 549 m 288 786 l 288 938 l 482 938 l 482 786 l 288 786 z "},"ẹ":{"ha":789,"x_min":42,"x_max":747,"o":"m 413 735 q 667 623 586 735 q 747 283 749 511 l 307 283 q 483 186 340 186 q 640 224 540 186 l 675 235 l 675 25 q 415 -21 556 -21 q 221 24 306 -21 q 89 150 136 68 q 42 339 42 232 q 138 631 42 526 q 413 735 233 735 m 400 549 q 335 520 364 549 q 297 432 307 492 l 499 432 q 467 522 490 496 q 400 549 444 549 m 335 -221 l 335 -69 l 501 -69 l 501 -221 l 335 -221 z "},"è":{"ha":789,"x_min":42,"x_max":747,"o":"m 413 735 q 667 623 586 735 q 747 283 749 511 l 307 283 q 483 186 340 186 q 640 224 540 186 l 675 235 l 675 25 q 415 -21 556 -21 q 221 24 306 -21 q 89 150 136 68 q 42 339 42 232 q 138 631 42 526 q 413 735 233 735 m 400 549 q 335 520 364 549 q 297 432 307 492 l 499 432 q 467 522 490 496 q 400 549 444 549 m 342 786 l 171 963 l 417 963 l 475 786 l 342 786 z "},"ẻ":{"ha":789,"x_min":42,"x_max":747,"o":"m 413 735 q 667 623 586 735 q 747 283 749 511 l 307 283 q 483 186 340 186 q 640 224 540 186 l 675 235 l 675 25 q 415 -21 556 -21 q 221 24 306 -21 q 89 150 136 68 q 42 339 42 232 q 138 631 42 526 q 413 735 233 735 m 400 549 q 335 520 364 549 q 297 432 307 492 l 499 432 q 467 522 490 496 q 400 549 444 549 m 354 851 q 390 861 375 851 q 404 885 404 871 q 349 917 404 917 q 306 911 329 917 l 306 1001 q 403 1008 338 1008 q 525 981 479 1008 q 571 894 571 953 q 549 826 571 851 q 489 801 526 801 l 489 769 l 354 769 l 354 851 z "},"ȇ":{"ha":789,"x_min":42,"x_max":747,"o":"m 413 735 q 667 623 586 735 q 747 283 749 511 l 307 283 q 483 186 340 186 q 640 224 540 186 l 675 235 l 675 25 q 415 -21 556 -21 q 221 24 306 -21 q 89 150 136 68 q 42 339 42 232 q 138 631 42 526 q 413 735 233 735 m 400 549 q 335 520 364 549 q 297 432 307 492 l 499 432 q 467 522 490 496 q 400 549 444 549 m 404 947 q 563 894 511 947 q 624 751 615 840 l 489 751 q 404 829 464 829 q 350 806 371 829 q 319 751 329 782 l 186 751 q 250 895 201 843 q 404 947 299 947 z "},"ē":{"ha":789,"x_min":42,"x_max":747,"o":"m 413 735 q 667 623 586 735 q 747 283 749 511 l 307 283 q 483 186 340 186 q 640 224 540 186 l 675 235 l 675 25 q 415 -21 556 -21 q 221 24 306 -21 q 89 150 136 68 q 42 339 42 232 q 138 631 42 526 q 413 735 233 735 m 400 549 q 335 520 364 549 q 297 432 307 492 l 499 432 q 467 522 490 496 q 400 549 444 549 m 192 781 l 192 936 l 600 936 l 600 781 l 192 781 z "},"ḗ":{"ha":789,"x_min":42,"x_max":747,"o":"m 413 735 q 667 623 586 735 q 747 283 749 511 l 307 283 q 483 186 340 186 q 640 224 540 186 l 675 235 l 675 25 q 415 -21 556 -21 q 221 24 306 -21 q 89 150 136 68 q 42 339 42 232 q 138 631 42 526 q 413 735 233 735 m 400 549 q 335 520 364 549 q 297 432 307 492 l 499 432 q 467 522 490 496 q 400 549 444 549 m 192 781 l 192 936 l 600 936 l 600 781 l 192 781 m 326 988 l 385 1164 l 631 1164 l 460 988 l 326 988 z "},"ḕ":{"ha":789,"x_min":42,"x_max":747,"o":"m 413 735 q 667 623 586 735 q 747 283 749 511 l 307 283 q 483 186 340 186 q 640 224 540 186 l 675 235 l 675 25 q 415 -21 556 -21 q 221 24 306 -21 q 89 150 136 68 q 42 339 42 232 q 138 631 42 526 q 413 735 233 735 m 400 549 q 335 520 364 549 q 297 432 307 492 l 499 432 q 467 522 490 496 q 400 549 444 549 m 192 781 l 192 936 l 600 936 l 600 781 l 192 781 m 342 988 l 171 1164 l 417 1164 l 475 988 l 342 988 z "},"ę":{"ha":789,"x_min":42,"x_max":749,"o":"m 413 735 q 667 623 586 735 q 747 283 749 511 l 307 283 q 483 186 340 186 q 640 224 540 186 l 675 235 l 675 25 l 640 13 l 646 11 q 508 -92 508 -42 q 521 -131 508 -121 q 557 -142 533 -142 q 654 -90 597 -142 l 654 -222 q 590 -249 621 -239 q 508 -258 560 -258 q 358 -224 406 -258 q 310 -118 310 -190 q 364 -18 310 -61 q 130 94 218 -3 q 42 339 42 190 q 138 631 42 526 q 413 735 233 735 m 400 549 q 335 520 364 549 q 297 432 307 492 l 499 432 q 467 522 490 496 q 400 549 444 549 z "},"ẽ":{"ha":789,"x_min":42,"x_max":747,"o":"m 413 735 q 667 623 586 735 q 747 283 749 511 l 307 283 q 483 186 340 186 q 640 224 540 186 l 675 235 l 675 25 q 415 -21 556 -21 q 221 24 306 -21 q 89 150 136 68 q 42 339 42 232 q 138 631 42 526 q 413 735 233 735 m 400 549 q 335 520 364 549 q 297 432 307 492 l 499 432 q 467 522 490 496 q 400 549 444 549 m 135 785 q 157 890 135 840 q 220 968 179 939 q 315 997 261 997 q 379 984 350 997 q 444 946 408 971 q 493 917 472 926 q 535 907 514 907 q 588 994 588 907 l 700 994 q 676 881 700 929 q 612 808 651 833 q 528 783 572 783 q 440 799 474 783 q 368 842 407 814 q 334 866 347 858 q 304 874 321 874 q 258 847 272 874 q 244 785 244 819 l 135 785 z "},"ə":{"ha":789,"x_min":40,"x_max":747,"o":"m 374 714 q 568 669 483 714 q 700 543 653 625 q 747 354 747 461 q 651 63 747 167 q 376 -42 556 -42 q 122 70 203 -42 q 42 410 40 182 l 482 410 q 306 507 449 507 q 149 469 249 507 l 114 458 l 114 668 q 374 714 233 714 m 389 144 q 453 173 425 144 q 492 261 482 201 l 290 261 q 322 171 299 197 q 389 144 344 144 z "},"f":{"ha":558,"x_min":35,"x_max":524,"o":"m 131 519 l 35 519 l 35 707 l 133 707 l 133 714 q 206 941 135 874 q 421 1008 276 1008 q 475 1003 444 1008 q 524 993 506 999 l 524 769 q 488 802 504 792 q 444 813 472 813 q 401 795 415 813 q 386 750 386 778 l 386 707 l 524 707 l 524 519 l 383 519 l 383 0 l 131 0 l 131 519 z "},"g":{"ha":838,"x_min":42,"x_max":768,"o":"m 465 731 q 689 678 610 731 q 768 533 768 625 l 768 0 q 665 -244 768 -165 q 385 -324 561 -324 q 207 -310 281 -324 q 99 -274 133 -297 l 99 -53 q 219 -96 136 -74 q 378 -118 303 -118 q 487 -85 453 -118 q 521 14 521 -51 l 521 42 q 450 -5 492 11 q 347 -21 408 -21 q 42 331 42 3 q 89 569 42 482 q 228 694 136 657 q 465 731 321 731 m 424 161 q 521 185 481 161 l 521 474 q 429 535 521 535 q 326 486 360 535 q 292 347 292 438 q 331 212 292 263 q 424 161 369 161 z "},"ğ":{"ha":838,"x_min":42,"x_max":768,"o":"m 465 731 q 689 678 610 731 q 768 533 768 625 l 768 0 q 665 -244 768 -165 q 385 -324 561 -324 q 207 -310 281 -324 q 99 -274 133 -297 l 99 -53 q 219 -96 136 -74 q 378 -118 303 -118 q 487 -85 453 -118 q 521 14 521 -51 l 521 42 q 450 -5 492 11 q 347 -21 408 -21 q 42 331 42 3 q 89 569 42 482 q 228 694 136 657 q 465 731 321 731 m 424 161 q 521 185 481 161 l 521 474 q 429 535 521 535 q 326 486 360 535 q 292 347 292 438 q 331 212 292 263 q 424 161 369 161 m 463 785 q 308 837 357 785 q 244 981 260 889 l 378 981 q 408 926 388 950 q 463 903 429 903 q 547 981 522 903 l 682 981 q 622 838 674 892 q 463 785 569 785 z "},"ǧ":{"ha":838,"x_min":42,"x_max":768,"o":"m 465 731 q 689 678 610 731 q 768 533 768 625 l 768 0 q 665 -244 768 -165 q 385 -324 561 -324 q 207 -310 281 -324 q 99 -274 133 -297 l 99 -53 q 219 -96 136 -74 q 378 -118 303 -118 q 487 -85 453 -118 q 521 14 521 -51 l 521 42 q 450 -5 492 11 q 347 -21 408 -21 q 42 331 42 3 q 89 569 42 482 q 228 694 136 657 q 465 731 321 731 m 424 161 q 521 185 481 161 l 521 474 q 429 535 521 535 q 326 486 360 535 q 292 347 292 438 q 331 212 292 263 q 424 161 369 161 m 353 825 l 242 994 l 397 994 l 456 919 l 514 994 l 669 994 l 572 825 l 353 825 z "},"ĝ":{"ha":838,"x_min":42,"x_max":768,"o":"m 465 731 q 689 678 610 731 q 768 533 768 625 l 768 0 q 665 -244 768 -165 q 385 -324 561 -324 q 207 -310 281 -324 q 99 -274 133 -297 l 99 -53 q 219 -96 136 -74 q 378 -118 303 -118 q 487 -85 453 -118 q 521 14 521 -51 l 521 42 q 450 -5 492 11 q 347 -21 408 -21 q 42 331 42 3 q 89 569 42 482 q 228 694 136 657 q 465 731 321 731 m 424 161 q 521 185 481 161 l 521 474 q 429 535 521 535 q 326 486 360 535 q 292 347 292 438 q 331 212 292 263 q 424 161 369 161 m 249 811 l 374 981 l 579 981 l 704 811 l 535 811 l 476 886 l 418 811 l 249 811 z "},"ģ":{"ha":838,"x_min":42,"x_max":768,"o":"m 357 804 q 417 948 354 892 q 597 1004 481 1004 l 597 900 q 555 874 567 894 q 544 804 543 853 l 357 804 m 465 731 q 689 678 610 731 q 768 533 768 625 l 768 0 q 665 -244 768 -165 q 385 -324 561 -324 q 207 -310 281 -324 q 99 -274 133 -297 l 99 -53 q 219 -96 136 -74 q 378 -118 303 -118 q 487 -85 453 -118 q 521 14 521 -51 l 521 42 q 450 -5 492 11 q 347 -21 408 -21 q 42 331 42 3 q 89 569 42 482 q 228 694 136 657 q 465 731 321 731 m 424 161 q 521 185 481 161 l 521 474 q 429 535 521 535 q 326 486 360 535 q 292 347 292 438 q 331 212 292 263 q 424 161 369 161 z "},"ġ":{"ha":838,"x_min":42,"x_max":768,"o":"m 465 731 q 689 678 610 731 q 768 533 768 625 l 768 0 q 665 -244 768 -165 q 385 -324 561 -324 q 207 -310 281 -324 q 99 -274 133 -297 l 99 -53 q 219 -96 136 -74 q 378 -118 303 -118 q 487 -85 453 -118 q 521 14 521 -51 l 521 42 q 450 -5 492 11 q 347 -21 408 -21 q 42 331 42 3 q 89 569 42 482 q 228 694 136 657 q 465 731 321 731 m 424 161 q 521 185 481 161 l 521 474 q 429 535 521 535 q 326 486 360 535 q 292 347 292 438 q 331 212 292 263 q 424 161 369 161 m 346 800 l 346 951 l 540 951 l 540 800 l 346 800 z "},"ḡ":{"ha":838,"x_min":42,"x_max":768,"o":"m 465 731 q 689 678 610 731 q 768 533 768 625 l 768 0 q 665 -244 768 -165 q 385 -324 561 -324 q 207 -310 281 -324 q 99 -274 133 -297 l 99 -53 q 219 -96 136 -74 q 378 -118 303 -118 q 487 -85 453 -118 q 521 14 521 -51 l 521 42 q 450 -5 492 11 q 347 -21 408 -21 q 42 331 42 3 q 89 569 42 482 q 228 694 136 657 q 465 731 321 731 m 424 161 q 521 185 481 161 l 521 474 q 429 535 521 535 q 326 486 360 535 q 292 347 292 438 q 331 212 292 263 q 424 161 369 161 m 250 794 l 250 950 l 658 950 l 658 794 l 250 794 z "},"h":{"ha":871,"x_min":83,"x_max":788,"o":"m 532 729 q 719 674 651 729 q 788 482 788 618 l 788 0 l 535 0 l 535 421 q 506 499 535 475 q 419 524 476 524 q 367 516 393 524 q 338 501 342 508 l 333 0 l 83 0 l 83 972 l 338 972 l 338 683 q 532 729 432 729 z "},"ħ":{"ha":871,"x_min":0,"x_max":788,"o":"m 532 729 q 719 674 651 729 q 788 482 788 618 l 788 0 l 535 0 l 535 421 q 506 499 535 475 q 419 524 476 524 q 367 516 393 524 q 338 501 342 508 l 333 0 l 83 0 l 83 746 l 0 746 l 0 896 l 83 896 l 83 972 l 338 972 l 338 896 l 450 896 l 450 746 l 338 746 l 338 683 q 532 729 432 729 z "},"ḫ":{"ha":871,"x_min":83,"x_max":788,"o":"m 532 729 q 719 674 651 729 q 788 482 788 618 l 788 0 l 535 0 l 535 421 q 506 499 535 475 q 419 524 476 524 q 367 516 393 524 q 338 501 342 508 l 333 0 l 83 0 l 83 972 l 338 972 l 338 683 q 532 729 432 729 m 426 -250 q 272 -198 321 -250 q 208 -54 224 -146 l 342 -54 q 372 -108 351 -85 q 426 -132 393 -132 q 511 -54 486 -132 l 646 -54 q 585 -197 638 -143 q 426 -250 533 -250 z "},"ĥ":{"ha":871,"x_min":-24,"x_max":788,"o":"m 532 729 q 719 674 651 729 q 788 482 788 618 l 788 0 l 535 0 l 535 421 q 506 499 535 475 q 419 524 476 524 q 367 516 393 524 q 338 501 342 508 l 333 0 l 83 0 l 83 972 l 338 972 l 338 683 q 532 729 432 729 m -24 1021 l 101 1190 l 307 1190 l 432 1021 l 263 1021 l 204 1096 l 146 1021 l -24 1021 z "},"i":{"ha":425,"x_min":83,"x_max":342,"o":"m 83 790 l 83 972 l 342 972 l 342 790 l 83 790 m 86 0 l 86 693 l 339 693 l 342 0 l 86 0 z "},"ı":{"ha":422,"x_min":83,"x_max":339,"o":"m 83 0 l 83 693 l 336 693 l 339 0 l 83 0 z "},"í":{"ha":499,"x_min":133,"x_max":443,"o":"m 194 772 l 281 935 l 443 935 l 314 772 l 194 772 m 133 0 l 133 693 l 372 693 l 372 0 l 133 0 z "},"ĭ":{"ha":422,"x_min":-7,"x_max":431,"o":"m 83 0 l 83 693 l 336 693 l 339 0 l 83 0 m 211 743 q 57 795 106 743 q -7 939 8 847 l 126 939 q 157 885 136 908 q 211 861 178 861 q 296 939 271 861 l 431 939 q 370 797 422 850 q 211 743 318 743 z "},"ǐ":{"ha":422,"x_min":-10,"x_max":418,"o":"m 83 0 l 83 693 l 336 693 l 339 0 l 83 0 m 101 783 l -10 953 l 146 953 l 204 878 l 263 953 l 418 953 l 321 783 l 101 783 z "},"î":{"ha":499,"x_min":53,"x_max":453,"o":"m 53 772 l 219 942 l 286 942 l 453 772 l 311 772 l 253 833 l 194 772 l 53 772 m 133 0 l 133 693 l 372 693 l 372 0 l 133 0 z "},"ȉ":{"ha":422,"x_min":-142,"x_max":447,"o":"m 83 0 l 83 693 l 336 693 l 339 0 l 83 0 m 29 758 l -142 935 l 104 935 l 163 758 l 29 758 m 314 758 l 143 935 l 389 935 l 447 758 l 314 758 z "},"ï":{"ha":499,"x_min":51,"x_max":454,"o":"m 51 772 l 51 924 l 218 924 l 218 772 l 51 772 m 288 772 l 288 924 l 454 924 l 454 772 l 288 772 m 133 0 l 133 693 l 372 693 l 372 0 l 133 0 z "},"ḯ":{"ha":422,"x_min":-17,"x_max":468,"o":"m 83 0 l 83 693 l 336 693 l 339 0 l 83 0 m -17 772 l -17 924 l 192 924 l 192 772 l -17 772 m 260 772 l 260 924 l 468 924 l 468 772 l 260 772 m 133 989 l 192 1165 l 438 1165 l 267 989 l 133 989 z "},"ị":{"ha":499,"x_min":131,"x_max":375,"o":"m 131 772 l 131 954 l 375 954 l 375 772 l 131 772 m 133 0 l 133 693 l 372 693 l 372 0 l 133 0 m 169 -221 l 169 -69 l 336 -69 l 336 -221 l 169 -221 z "},"ì":{"ha":499,"x_min":63,"x_max":372,"o":"m 192 782 l 63 944 l 225 944 l 311 782 l 192 782 m 133 0 l 133 693 l 372 693 l 372 0 l 133 0 z "},"ỉ":{"ha":499,"x_min":133,"x_max":372,"o":"m 213 854 q 249 876 249 854 q 207 906 249 906 q 164 900 188 906 l 164 974 q 196 978 176 976 q 233 981 215 981 q 325 954 289 981 q 361 881 361 928 q 346 834 361 851 q 312 810 331 817 q 293 804 293 803 l 293 772 l 213 772 l 213 854 m 133 0 l 133 693 l 372 693 l 372 0 l 133 0 z "},"ȋ":{"ha":422,"x_min":-7,"x_max":431,"o":"m 83 0 l 83 693 l 336 693 l 339 0 l 83 0 m 211 919 q 370 866 318 919 q 431 724 422 813 l 296 724 q 211 801 271 801 q 157 778 178 801 q 126 724 136 754 l -7 724 q 57 867 8 815 q 211 919 106 919 z "},"ĳ":{"ha":868,"x_min":83,"x_max":785,"o":"m 83 790 l 83 972 l 342 972 l 342 790 l 83 790 m 86 0 l 86 693 l 339 693 l 342 0 l 86 0 m 526 804 l 526 986 l 785 986 l 785 804 l 526 804 m 432 -68 q 458 -71 449 -71 q 510 -51 490 -71 q 529 7 529 -31 l 529 707 l 782 707 l 785 10 q 690 -206 785 -144 q 432 -268 594 -268 l 432 -68 z "},"ī":{"ha":499,"x_min":90,"x_max":415,"o":"m 90 772 l 90 894 l 415 894 l 415 772 l 90 772 m 133 0 l 133 693 l 372 693 l 372 0 l 133 0 z "},"į":{"ha":425,"x_min":7,"x_max":351,"o":"m 342 972 l 342 790 l 83 790 l 83 972 l 342 972 m 254 -151 q 351 -100 294 -151 l 351 -232 q 288 -258 318 -249 q 206 -268 257 -268 q 55 -234 103 -268 q 7 -128 7 -200 q 101 0 7 -54 l 86 0 l 86 693 l 339 693 l 342 1 l 343 1 l 342 1 l 342 0 l 339 0 q 206 -101 206 -53 q 218 -141 206 -131 q 254 -151 231 -151 z "},"ĩ":{"ha":422,"x_min":-58,"x_max":507,"o":"m 83 0 l 83 693 l 336 693 l 339 0 l 83 0 m -58 757 q -36 862 -58 813 q 27 940 -14 911 q 122 969 68 969 q 186 956 157 969 q 251 918 215 943 q 300 889 279 899 q 342 879 321 879 q 394 967 394 879 l 507 967 q 483 853 507 901 q 419 781 458 806 q 335 756 379 756 q 247 771 281 756 q 175 814 214 786 q 141 838 154 831 q 111 846 128 846 q 65 819 79 846 q 51 757 51 792 l -58 757 z "},"j":{"ha":443,"x_min":7,"x_max":360,"o":"m 101 804 l 101 986 l 360 986 l 360 804 l 101 804 m 7 -68 q 33 -71 24 -71 q 85 -51 65 -71 q 104 7 104 -31 l 104 707 l 357 707 l 360 10 q 265 -206 360 -144 q 7 -268 169 -268 l 7 -68 z "},"ȷ":{"ha":458,"x_min":4,"x_max":357,"o":"m 4 -96 q 118 -11 118 -96 l 118 693 l 357 693 l 357 10 q 262 -206 357 -144 q 4 -268 167 -268 l 4 -96 z "},"ĵ":{"ha":450,"x_min":4,"x_max":438,"o":"m 38 772 l 204 942 l 271 942 l 438 772 l 296 772 l 238 833 l 179 772 l 38 772 m 4 -96 q 118 -11 118 -96 l 118 693 l 357 693 l 357 10 q 262 -206 357 -144 q 4 -268 167 -268 l 4 -96 z "},"k":{"ha":863,"x_min":83,"x_max":828,"o":"m 828 0 l 511 0 l 335 272 l 333 0 l 83 0 l 83 972 l 338 972 l 335 453 l 519 707 l 825 707 l 551 399 l 828 0 z "},"ķ":{"ha":894,"x_min":121,"x_max":842,"o":"m 121 0 l 121 953 l 360 953 l 360 525 l 506 693 l 811 693 l 529 388 l 842 0 l 553 0 l 383 224 l 360 199 l 360 0 l 121 0 m 342 -179 q 384 -147 372 -174 q 394 -69 396 -121 l 526 -69 q 503 -170 528 -124 q 437 -243 479 -217 q 342 -269 394 -269 l 342 -179 z "},"ĸ":{"ha":894,"x_min":121,"x_max":842,"o":"m 121 0 l 121 693 l 360 693 l 360 525 l 506 693 l 811 693 l 529 388 l 842 0 l 553 0 l 383 224 l 360 199 l 360 0 l 121 0 z "},"l":{"ha":417,"x_min":83,"x_max":333,"o":"m 333 0 l 83 0 l 83 972 l 333 972 l 333 0 z "},"ĺ":{"ha":417,"x_min":83,"x_max":446,"o":"m 333 0 l 83 0 l 83 972 l 333 972 l 333 0 m 142 992 l 181 1147 l 446 1147 l 261 992 l 142 992 z "},"ľ":{"ha":579,"x_min":140,"x_max":639,"o":"m 140 0 l 140 957 l 379 957 l 379 0 l 140 0 m 453 847 q 495 879 483 853 q 506 957 507 906 l 638 957 q 615 856 639 903 q 548 783 590 810 q 453 757 506 757 l 453 847 z "},"ļ":{"ha":417,"x_min":74,"x_max":333,"o":"m 333 0 l 83 0 l 83 972 l 333 972 l 333 0 m 74 -165 q 116 -139 104 -160 q 126 -69 128 -118 l 314 -69 q 253 -213 317 -157 q 74 -269 190 -269 l 74 -165 z "},"ŀ":{"ha":581,"x_min":83,"x_max":333,"o":"m 333 0 l 83 0 l 83 972 l 333 972 l 333 0 m 110 275 l 110 467 l 310 467 l 310 275 l 110 275 z "},"ḷ":{"ha":417,"x_min":83,"x_max":333,"o":"m 333 0 l 83 0 l 83 972 l 333 972 l 333 0 m 125 -221 l 125 -69 l 292 -69 l 292 -221 l 125 -221 z "},"ǉ":{"ha":860,"x_min":83,"x_max":776,"o":"m 333 0 l 83 0 l 83 972 l 333 972 l 333 0 m 518 804 l 518 986 l 776 986 l 776 804 l 518 804 m 424 -68 q 450 -71 440 -71 q 501 -51 482 -71 q 521 7 521 -31 l 521 707 l 774 707 l 776 10 q 681 -206 776 -144 q 424 -268 586 -268 l 424 -68 z "},"ḻ":{"ha":417,"x_min":3,"x_max":411,"o":"m 333 0 l 83 0 l 83 972 l 333 972 l 333 0 m 3 -215 l 3 -60 l 411 -60 l 411 -215 l 3 -215 z "},"ł":{"ha":599,"x_min":25,"x_max":581,"o":"m 161 0 l 161 300 l 25 225 l 25 394 l 161 469 l 161 957 l 400 957 l 400 600 l 581 700 l 581 531 l 400 431 l 400 0 l 161 0 z "},"m":{"ha":1292,"x_min":83,"x_max":1208,"o":"m 914 729 q 1135 675 1061 729 q 1208 482 1208 621 l 1208 0 l 956 0 l 956 421 q 926 499 956 475 q 840 524 897 524 q 796 517 815 524 q 772 501 776 510 l 772 482 l 772 0 l 519 0 l 519 421 q 490 499 519 475 q 404 524 461 524 q 360 517 379 524 q 336 501 340 510 l 336 0 l 83 0 l 83 646 q 260 701 132 672 q 478 729 388 729 q 688 683 619 729 q 914 729 811 729 z "},"ṃ":{"ha":1292,"x_min":83,"x_max":1208,"o":"m 914 729 q 1135 675 1061 729 q 1208 482 1208 621 l 1208 0 l 956 0 l 956 421 q 926 499 956 475 q 840 524 897 524 q 796 517 815 524 q 772 501 776 510 l 772 482 l 772 0 l 519 0 l 519 421 q 490 499 519 475 q 404 524 461 524 q 360 517 379 524 q 336 501 340 510 l 336 0 l 83 0 l 83 646 q 260 701 132 672 q 478 729 388 729 q 688 683 619 729 q 914 729 811 729 m 563 -221 l 563 -69 l 729 -69 l 729 -221 l 563 -221 z "},"n":{"ha":869,"x_min":83,"x_max":786,"o":"m 83 646 q 260 701 132 672 q 478 729 388 729 q 707 674 628 729 q 786 482 786 619 l 786 0 l 533 0 l 533 421 q 504 499 533 475 q 418 524 475 524 q 366 516 392 524 q 336 501 340 508 l 336 0 l 83 0 l 83 646 z "},"ń":{"ha":869,"x_min":83,"x_max":786,"o":"m 83 646 q 260 701 132 672 q 478 729 388 729 q 707 674 628 729 q 786 482 786 619 l 786 0 l 533 0 l 533 421 q 504 499 533 475 q 418 524 475 524 q 366 516 392 524 q 336 501 340 508 l 336 0 l 83 0 l 83 646 m 354 786 l 413 963 l 658 963 l 488 786 l 354 786 z "},"ŉ":{"ha":899,"x_min":49,"x_max":778,"o":"m 49 813 q 91 844 79 818 q 101 922 103 871 l 233 922 q 210 822 235 868 q 144 749 186 775 q 49 722 101 722 l 49 813 m 114 619 q 252 674 164 644 q 458 703 340 703 q 692 624 606 703 q 778 408 778 546 l 778 0 l 539 0 l 539 446 q 517 501 539 479 q 422 522 494 522 q 353 514 385 522 l 353 0 l 114 0 l 114 619 z "},"ň":{"ha":869,"x_min":83,"x_max":786,"o":"m 83 646 q 260 701 132 672 q 478 729 388 729 q 707 674 628 729 q 786 482 786 619 l 786 0 l 533 0 l 533 421 q 504 499 533 475 q 418 524 475 524 q 366 516 392 524 q 336 501 340 508 l 336 0 l 83 0 l 83 646 m 322 811 l 211 981 l 367 981 l 425 906 l 483 981 l 639 981 l 542 811 l 322 811 z "},"ņ":{"ha":869,"x_min":83,"x_max":786,"o":"m 83 646 q 260 701 132 672 q 478 729 388 729 q 707 674 628 729 q 786 482 786 619 l 786 0 l 533 0 l 533 421 q 504 499 533 475 q 418 524 475 524 q 366 516 392 524 q 336 501 340 508 l 336 0 l 83 0 l 83 646 m 297 -165 q 340 -139 328 -160 q 350 -69 351 -118 l 538 -69 q 477 -213 540 -157 q 297 -269 414 -269 l 297 -165 z "},"ṅ":{"ha":869,"x_min":83,"x_max":786,"o":"m 83 646 q 260 701 132 672 q 478 729 388 729 q 707 674 628 729 q 786 482 786 619 l 786 0 l 533 0 l 533 421 q 504 499 533 475 q 418 524 475 524 q 366 516 392 524 q 336 501 340 508 l 336 0 l 83 0 l 83 646 m 315 786 l 315 938 l 510 938 l 510 786 l 315 786 z "},"ṇ":{"ha":869,"x_min":83,"x_max":786,"o":"m 83 646 q 260 701 132 672 q 478 729 388 729 q 707 674 628 729 q 786 482 786 619 l 786 0 l 533 0 l 533 421 q 504 499 533 475 q 418 524 475 524 q 366 516 392 524 q 336 501 340 508 l 336 0 l 83 0 l 83 646 m 349 -221 l 349 -69 l 515 -69 l 515 -221 l 349 -221 z "},"ŋ":{"ha":888,"x_min":78,"x_max":747,"o":"m 78 572 q 231 660 132 618 q 417 703 329 703 q 658 647 569 703 q 747 460 747 592 l 747 0 q 650 -210 747 -153 q 386 -268 553 -268 l 386 -82 q 500 3 500 -82 l 500 374 q 476 461 500 432 q 397 490 451 490 q 351 479 374 490 q 325 460 329 468 l 325 0 l 78 0 l 78 572 z "},"ɲ":{"ha":869,"x_min":-14,"x_max":786,"o":"m 83 646 q 260 701 132 672 q 478 729 388 729 q 707 674 628 729 q 786 482 786 619 l 786 0 l 533 0 l 533 421 q 504 499 533 475 q 418 524 475 524 q 366 516 392 524 q 336 501 340 508 l 336 10 q 242 -206 336 -144 q -14 -268 149 -268 l -14 -68 q 13 -71 3 -71 q 64 -51 44 -71 q 83 7 83 -31 l 83 646 z "},"ǌ":{"ha":1313,"x_min":83,"x_max":1229,"o":"m 83 646 q 260 701 132 672 q 478 729 388 729 q 707 674 628 729 q 786 482 786 619 l 786 0 l 533 0 l 533 421 q 504 499 533 475 q 418 524 475 524 q 366 516 392 524 q 336 501 340 508 l 336 0 l 83 0 l 83 646 m 971 804 l 971 986 l 1229 986 l 1229 804 l 971 804 m 876 -68 q 903 -71 893 -71 q 954 -51 935 -71 q 974 7 974 -31 l 974 707 l 1226 707 l 1229 10 q 1134 -206 1229 -144 q 876 -268 1039 -268 l 876 -68 z "},"ṉ":{"ha":869,"x_min":83,"x_max":786,"o":"m 83 646 q 260 701 132 672 q 478 729 388 729 q 707 674 628 729 q 786 482 786 619 l 786 0 l 533 0 l 533 421 q 504 499 533 475 q 418 524 475 524 q 366 516 392 524 q 336 501 340 508 l 336 0 l 83 0 l 83 646 m 226 -215 l 226 -60 l 635 -60 l 635 -215 l 226 -215 z "},"ñ":{"ha":869,"x_min":83,"x_max":786,"o":"m 83 646 q 260 701 132 672 q 478 729 388 729 q 707 674 628 729 q 786 482 786 619 l 786 0 l 533 0 l 533 421 q 504 499 533 475 q 418 524 475 524 q 366 516 392 524 q 336 501 340 508 l 336 0 l 83 0 l 83 646 m 163 785 q 185 890 163 840 q 248 968 207 939 q 343 997 289 997 q 407 984 378 997 q 472 946 436 971 q 521 917 500 926 q 563 907 542 907 q 615 994 615 907 l 728 994 q 703 881 728 929 q 640 808 679 833 q 556 783 600 783 q 468 799 501 783 q 396 842 435 814 q 362 866 375 858 q 332 874 349 874 q 286 847 300 874 q 272 785 272 819 l 163 785 z "},"o":{"ha":832,"x_min":42,"x_max":790,"o":"m 414 -21 q 42 358 42 -21 q 133 647 42 560 q 414 735 225 735 q 696 647 601 735 q 790 358 790 558 q 694 74 790 169 q 414 -21 597 -21 m 414 176 q 506 221 472 176 q 540 358 540 265 q 508 502 540 464 q 414 540 476 540 q 345 526 371 540 q 306 472 319 511 q 292 358 292 432 q 322 219 292 263 q 414 176 353 176 z "},"ó":{"ha":832,"x_min":42,"x_max":790,"o":"m 414 -21 q 42 358 42 -21 q 133 647 42 560 q 414 735 225 735 q 696 647 601 735 q 790 358 790 558 q 694 74 790 169 q 414 -21 597 -21 m 414 176 q 506 221 472 176 q 540 358 540 265 q 508 502 540 464 q 414 540 476 540 q 345 526 371 540 q 306 472 319 511 q 292 358 292 432 q 322 219 292 263 q 414 176 353 176 m 339 800 l 397 976 l 643 976 l 472 800 l 339 800 z "},"ŏ":{"ha":832,"x_min":42,"x_max":790,"o":"m 414 -21 q 42 358 42 -21 q 133 647 42 560 q 414 735 225 735 q 696 647 601 735 q 790 358 790 558 q 694 74 790 169 q 414 -21 597 -21 m 414 176 q 506 221 472 176 q 540 358 540 265 q 508 502 540 464 q 414 540 476 540 q 345 526 371 540 q 306 472 319 511 q 292 358 292 432 q 322 219 292 263 q 414 176 353 176 m 417 785 q 263 837 311 785 q 199 981 214 889 l 332 981 q 363 926 342 950 q 417 903 383 903 q 501 981 476 903 l 636 981 q 576 838 628 892 q 417 785 524 785 z "},"ǒ":{"ha":832,"x_min":42,"x_max":790,"o":"m 414 -21 q 42 358 42 -21 q 133 647 42 560 q 414 735 225 735 q 696 647 601 735 q 790 358 790 558 q 694 74 790 169 q 414 -21 597 -21 m 414 176 q 506 221 472 176 q 540 358 540 265 q 508 502 540 464 q 414 540 476 540 q 345 526 371 540 q 306 472 319 511 q 292 358 292 432 q 322 219 292 263 q 414 176 353 176 m 307 825 l 196 994 l 351 994 l 410 919 l 468 994 l 624 994 l 526 825 l 307 825 z "},"ô":{"ha":832,"x_min":42,"x_max":790,"o":"m 414 -21 q 42 358 42 -21 q 133 647 42 560 q 414 735 225 735 q 696 647 601 735 q 790 358 790 558 q 694 74 790 169 q 414 -21 597 -21 m 414 176 q 506 221 472 176 q 540 358 540 265 q 508 502 540 464 q 414 540 476 540 q 345 526 371 540 q 306 472 319 511 q 292 358 292 432 q 322 219 292 263 q 414 176 353 176 m 203 811 l 328 981 l 533 981 l 658 811 l 489 811 l 431 886 l 372 811 l 203 811 z "},"ố":{"ha":832,"x_min":42,"x_max":908,"o":"m 414 -21 q 42 358 42 -21 q 133 647 42 560 q 414 735 225 735 q 696 647 601 735 q 790 358 790 558 q 694 74 790 169 q 414 -21 597 -21 m 414 176 q 506 221 472 176 q 540 358 540 265 q 508 502 540 464 q 414 540 476 540 q 345 526 371 540 q 306 472 319 511 q 292 358 292 432 q 322 219 292 263 q 414 176 353 176 m 190 783 l 315 953 l 521 953 l 646 783 l 476 783 l 418 858 l 360 783 l 190 783 m 604 886 l 643 1042 l 908 1042 l 724 886 l 604 886 z "},"ộ":{"ha":832,"x_min":42,"x_max":790,"o":"m 414 -21 q 42 358 42 -21 q 133 647 42 560 q 414 735 225 735 q 696 647 601 735 q 790 358 790 558 q 694 74 790 169 q 414 -21 597 -21 m 414 176 q 506 221 472 176 q 540 358 540 265 q 508 502 540 464 q 414 540 476 540 q 345 526 371 540 q 306 472 319 511 q 292 358 292 432 q 322 219 292 263 q 414 176 353 176 m 203 811 l 328 981 l 533 981 l 658 811 l 489 811 l 431 886 l 372 811 l 203 811 m 333 -221 l 333 -69 l 500 -69 l 500 -221 l 333 -221 z "},"ồ":{"ha":832,"x_min":-49,"x_max":790,"o":"m 414 -21 q 42 358 42 -21 q 133 647 42 560 q 414 735 225 735 q 696 647 601 735 q 790 358 790 558 q 694 74 790 169 q 414 -21 597 -21 m 414 176 q 506 221 472 176 q 540 358 540 265 q 508 502 540 464 q 414 540 476 540 q 345 526 371 540 q 306 472 319 511 q 292 358 292 432 q 322 219 292 263 q 414 176 353 176 m 203 783 l 328 953 l 533 953 l 658 783 l 489 783 l 431 858 l 372 783 l 203 783 m 94 886 l -49 1039 l 169 1039 l 228 886 l 94 886 z "},"ổ":{"ha":832,"x_min":42,"x_max":804,"o":"m 414 -21 q 42 358 42 -21 q 133 647 42 560 q 414 735 225 735 q 696 647 601 735 q 790 358 790 558 q 694 74 790 169 q 414 -21 597 -21 m 414 176 q 506 221 472 176 q 540 358 540 265 q 508 502 540 464 q 414 540 476 540 q 345 526 371 540 q 306 472 319 511 q 292 358 292 432 q 322 219 292 263 q 414 176 353 176 m 175 796 l 300 965 l 506 965 l 631 796 l 461 796 l 403 871 l 344 796 l 175 796 m 588 969 q 623 979 608 969 q 638 1003 638 989 q 582 1035 638 1035 q 539 1029 563 1035 l 539 1119 q 636 1126 571 1126 q 758 1099 713 1126 q 804 1013 804 1071 q 782 944 804 969 q 722 919 760 919 l 722 888 l 588 888 l 588 969 z "},"ỗ":{"ha":832,"x_min":42,"x_max":790,"o":"m 414 -21 q 42 358 42 -21 q 133 647 42 560 q 414 735 225 735 q 696 647 601 735 q 790 358 790 558 q 694 74 790 169 q 414 -21 597 -21 m 414 176 q 506 221 472 176 q 540 358 540 265 q 508 502 540 464 q 414 540 476 540 q 345 526 371 540 q 306 472 319 511 q 292 358 292 432 q 322 219 292 263 q 414 176 353 176 m 203 772 l 328 942 l 533 942 l 658 772 l 489 772 l 431 847 l 372 772 l 203 772 m 147 1006 q 169 1110 147 1061 q 233 1189 192 1160 q 328 1218 274 1218 q 392 1205 363 1218 q 457 1167 421 1192 q 506 1138 485 1147 q 547 1128 526 1128 q 600 1215 600 1128 l 713 1215 q 688 1102 713 1150 q 624 1029 664 1054 q 540 1004 585 1004 q 453 1019 486 1004 q 381 1063 419 1035 q 347 1087 360 1079 q 317 1094 333 1094 q 271 1067 285 1094 q 257 1006 257 1040 l 147 1006 z "},"ȍ":{"ha":832,"x_min":42,"x_max":790,"o":"m 414 -21 q 42 358 42 -21 q 133 647 42 560 q 414 735 225 735 q 696 647 601 735 q 790 358 790 558 q 694 74 790 169 q 414 -21 597 -21 m 414 176 q 506 221 472 176 q 540 358 540 265 q 508 502 540 464 q 414 540 476 540 q 345 526 371 540 q 306 472 319 511 q 292 358 292 432 q 322 219 292 263 q 414 176 353 176 m 235 800 l 64 976 l 310 976 l 368 800 l 235 800 m 519 800 l 349 976 l 594 976 l 653 800 l 519 800 z "},"ö":{"ha":832,"x_min":42,"x_max":790,"o":"m 414 -21 q 42 358 42 -21 q 133 647 42 560 q 414 735 225 735 q 696 647 601 735 q 790 358 790 558 q 694 74 790 169 q 414 -21 597 -21 m 414 176 q 506 221 472 176 q 540 358 540 265 q 508 502 540 464 q 414 540 476 540 q 345 526 371 540 q 306 472 319 511 q 292 358 292 432 q 322 219 292 263 q 414 176 353 176 m 189 814 l 189 965 l 397 965 l 397 814 l 189 814 m 465 814 l 465 965 l 674 965 l 674 814 l 465 814 z "},"ȫ":{"ha":832,"x_min":42,"x_max":790,"o":"m 414 -21 q 42 358 42 -21 q 133 647 42 560 q 414 735 225 735 q 696 647 601 735 q 790 358 790 558 q 694 74 790 169 q 414 -21 597 -21 m 414 176 q 506 221 472 176 q 540 358 540 265 q 508 502 540 464 q 414 540 476 540 q 345 526 371 540 q 306 472 319 511 q 292 358 292 432 q 322 219 292 263 q 414 176 353 176 m 189 814 l 189 965 l 397 965 l 397 814 l 189 814 m 465 814 l 465 965 l 674 965 l 674 814 l 465 814 m 204 1025 l 204 1181 l 613 1181 l 613 1025 l 204 1025 z "},"ȱ":{"ha":832,"x_min":42,"x_max":790,"o":"m 414 -21 q 42 358 42 -21 q 133 647 42 560 q 414 735 225 735 q 696 647 601 735 q 790 358 790 558 q 694 74 790 169 q 414 -21 597 -21 m 414 176 q 506 221 472 176 q 540 358 540 265 q 508 502 540 464 q 414 540 476 540 q 345 526 371 540 q 306 472 319 511 q 292 358 292 432 q 322 219 292 263 q 414 176 353 176 m 300 800 l 300 951 l 494 951 l 494 800 l 300 800 m 204 1025 l 204 1181 l 613 1181 l 613 1025 l 204 1025 z "},"ọ":{"ha":832,"x_min":42,"x_max":790,"o":"m 414 -21 q 42 358 42 -21 q 133 647 42 560 q 414 735 225 735 q 696 647 601 735 q 790 358 790 558 q 694 74 790 169 q 414 -21 597 -21 m 414 176 q 506 221 472 176 q 540 358 540 265 q 508 502 540 464 q 414 540 476 540 q 345 526 371 540 q 306 472 319 511 q 292 358 292 432 q 322 219 292 263 q 414 176 353 176 m 333 -221 l 333 -69 l 500 -69 l 500 -221 l 333 -221 z "},"ò":{"ha":832,"x_min":42,"x_max":790,"o":"m 414 -21 q 42 358 42 -21 q 133 647 42 560 q 414 735 225 735 q 696 647 601 735 q 790 358 790 558 q 694 74 790 169 q 414 -21 597 -21 m 414 176 q 506 221 472 176 q 540 358 540 265 q 508 502 540 464 q 414 540 476 540 q 345 526 371 540 q 306 472 319 511 q 292 358 292 432 q 322 219 292 263 q 414 176 353 176 m 354 800 l 183 976 l 429 976 l 488 800 l 354 800 z "},"ỏ":{"ha":832,"x_min":42,"x_max":790,"o":"m 414 -21 q 42 358 42 -21 q 133 647 42 560 q 414 735 225 735 q 696 647 601 735 q 790 358 790 558 q 694 74 790 169 q 414 -21 597 -21 m 414 176 q 506 221 472 176 q 540 358 540 265 q 508 502 540 464 q 414 540 476 540 q 345 526 371 540 q 306 472 319 511 q 292 358 292 432 q 322 219 292 263 q 414 176 353 176 m 367 865 q 402 875 388 865 q 417 899 417 885 q 361 931 417 931 q 318 925 342 931 l 318 1015 q 415 1022 350 1022 q 538 994 492 1022 q 583 908 583 967 q 561 840 583 865 q 501 815 539 815 l 501 783 l 367 783 l 367 865 z "},"ơ":{"ha":832,"x_min":42,"x_max":833,"o":"m 833 817 l 833 722 q 736 596 833 631 q 790 358 790 508 q 694 74 790 169 q 414 -21 597 -21 q 42 358 42 -21 q 133 647 42 560 q 414 735 225 735 q 603 704 525 735 q 685 758 685 711 l 685 817 l 833 817 m 414 176 q 506 221 472 176 q 540 358 540 265 q 508 502 540 464 q 414 540 476 540 q 345 526 371 540 q 306 472 319 511 q 292 358 292 432 q 322 219 292 263 q 414 176 353 176 z "},"ớ":{"ha":832,"x_min":42,"x_max":833,"o":"m 833 817 l 833 722 q 736 596 833 631 q 790 358 790 508 q 694 74 790 169 q 414 -21 597 -21 q 42 358 42 -21 q 133 647 42 560 q 414 735 225 735 q 603 704 525 735 q 685 758 685 711 l 685 817 l 833 817 m 414 176 q 506 221 472 176 q 540 358 540 265 q 508 502 540 464 q 414 540 476 540 q 345 526 371 540 q 306 472 319 511 q 292 358 292 432 q 322 219 292 263 q 414 176 353 176 m 339 800 l 397 976 l 643 976 l 472 800 l 339 800 z "},"ợ":{"ha":832,"x_min":42,"x_max":833,"o":"m 833 817 l 833 722 q 736 596 833 631 q 790 358 790 508 q 694 74 790 169 q 414 -21 597 -21 q 42 358 42 -21 q 133 647 42 560 q 414 735 225 735 q 603 704 525 735 q 685 758 685 711 l 685 817 l 833 817 m 414 176 q 506 221 472 176 q 540 358 540 265 q 508 502 540 464 q 414 540 476 540 q 345 526 371 540 q 306 472 319 511 q 292 358 292 432 q 322 219 292 263 q 414 176 353 176 m 333 -221 l 333 -69 l 500 -69 l 500 -221 l 333 -221 z "},"ờ":{"ha":832,"x_min":42,"x_max":833,"o":"m 833 817 l 833 722 q 736 596 833 631 q 790 358 790 508 q 694 74 790 169 q 414 -21 597 -21 q 42 358 42 -21 q 133 647 42 560 q 414 735 225 735 q 603 704 525 735 q 685 758 685 711 l 685 817 l 833 817 m 414 176 q 506 221 472 176 q 540 358 540 265 q 508 502 540 464 q 414 540 476 540 q 345 526 371 540 q 306 472 319 511 q 292 358 292 432 q 322 219 292 263 q 414 176 353 176 m 354 800 l 183 976 l 429 976 l 488 800 l 354 800 z "},"ở":{"ha":832,"x_min":42,"x_max":833,"o":"m 833 817 l 833 722 q 736 596 833 631 q 790 358 790 508 q 694 74 790 169 q 414 -21 597 -21 q 42 358 42 -21 q 133 647 42 560 q 414 735 225 735 q 603 704 525 735 q 685 758 685 711 l 685 817 l 833 817 m 414 176 q 506 221 472 176 q 540 358 540 265 q 508 502 540 464 q 414 540 476 540 q 345 526 371 540 q 306 472 319 511 q 292 358 292 432 q 322 219 292 263 q 414 176 353 176 m 367 865 q 402 875 388 865 q 417 899 417 885 q 361 931 417 931 q 318 925 342 931 l 318 1015 q 415 1022 350 1022 q 538 994 492 1022 q 583 908 583 967 q 561 840 583 865 q 501 815 539 815 l 501 783 l 367 783 l 367 865 z "},"ỡ":{"ha":832,"x_min":42,"x_max":833,"o":"m 833 817 l 833 722 q 736 596 833 631 q 790 358 790 508 q 694 74 790 169 q 414 -21 597 -21 q 42 358 42 -21 q 133 647 42 560 q 414 735 225 735 q 603 704 525 735 q 685 758 685 711 l 685 817 l 833 817 m 414 176 q 506 221 472 176 q 540 358 540 265 q 508 502 540 464 q 414 540 476 540 q 345 526 371 540 q 306 472 319 511 q 292 358 292 432 q 322 219 292 263 q 414 176 353 176 m 147 799 q 169 903 147 854 q 233 982 192 953 q 328 1011 274 1011 q 392 998 363 1011 q 457 960 421 985 q 506 931 485 940 q 547 921 526 921 q 600 1008 600 921 l 713 1008 q 688 895 713 943 q 624 822 664 847 q 540 797 585 797 q 453 813 486 797 q 381 856 419 828 q 347 880 360 872 q 317 888 333 888 q 271 860 285 888 q 257 799 257 833 l 147 799 z "},"ő":{"ha":832,"x_min":42,"x_max":790,"o":"m 414 -21 q 42 358 42 -21 q 133 647 42 560 q 414 735 225 735 q 696 647 601 735 q 790 358 790 558 q 694 74 790 169 q 414 -21 597 -21 m 414 176 q 506 221 472 176 q 540 358 540 265 q 508 502 540 464 q 414 540 476 540 q 345 526 371 540 q 306 472 319 511 q 292 358 292 432 q 322 219 292 263 q 414 176 353 176 m 243 814 l 329 976 l 492 976 l 363 814 l 243 814 m 453 814 l 539 976 l 701 976 l 572 814 l 453 814 z "},"ȏ":{"ha":832,"x_min":42,"x_max":790,"o":"m 414 -21 q 42 358 42 -21 q 133 647 42 560 q 414 735 225 735 q 696 647 601 735 q 790 358 790 558 q 694 74 790 169 q 414 -21 597 -21 m 414 176 q 506 221 472 176 q 540 358 540 265 q 508 502 540 464 q 414 540 476 540 q 345 526 371 540 q 306 472 319 511 q 292 358 292 432 q 322 219 292 263 q 414 176 353 176 m 417 961 q 576 908 524 961 q 636 765 628 854 l 501 765 q 417 843 476 843 q 363 819 383 843 q 332 765 342 796 l 199 765 q 263 909 214 857 q 417 961 311 961 z "},"ō":{"ha":832,"x_min":42,"x_max":790,"o":"m 414 -21 q 42 358 42 -21 q 133 647 42 560 q 414 735 225 735 q 696 647 601 735 q 790 358 790 558 q 694 74 790 169 q 414 -21 597 -21 m 414 176 q 506 221 472 176 q 540 358 540 265 q 508 502 540 464 q 414 540 476 540 q 345 526 371 540 q 306 472 319 511 q 292 358 292 432 q 322 219 292 263 q 414 176 353 176 m 204 794 l 204 950 l 613 950 l 613 794 l 204 794 z "},"ṓ":{"ha":832,"x_min":42,"x_max":790,"o":"m 414 -21 q 42 358 42 -21 q 133 647 42 560 q 414 735 225 735 q 696 647 601 735 q 790 358 790 558 q 694 74 790 169 q 414 -21 597 -21 m 414 176 q 506 221 472 176 q 540 358 540 265 q 508 502 540 464 q 414 540 476 540 q 345 526 371 540 q 306 472 319 511 q 292 358 292 432 q 322 219 292 263 q 414 176 353 176 m 204 794 l 204 950 l 613 950 l 613 794 l 204 794 m 339 1001 l 397 1178 l 643 1178 l 472 1001 l 339 1001 z "},"ṑ":{"ha":832,"x_min":42,"x_max":790,"o":"m 414 -21 q 42 358 42 -21 q 133 647 42 560 q 414 735 225 735 q 696 647 601 735 q 790 358 790 558 q 694 74 790 169 q 414 -21 597 -21 m 414 176 q 506 221 472 176 q 540 358 540 265 q 508 502 540 464 q 414 540 476 540 q 345 526 371 540 q 306 472 319 511 q 292 358 292 432 q 322 219 292 263 q 414 176 353 176 m 204 794 l 204 950 l 613 950 l 613 794 l 204 794 m 354 1001 l 183 1178 l 429 1178 l 488 1001 l 354 1001 z "},"ǫ":{"ha":832,"x_min":42,"x_max":790,"o":"m 790 358 q 738 131 790 219 q 582 6 685 43 l 599 0 q 461 -103 461 -53 q 474 -142 461 -132 q 510 -153 486 -153 q 607 -101 550 -153 l 607 -233 q 543 -260 574 -250 q 461 -269 513 -269 q 310 -235 358 -269 q 263 -129 263 -201 q 335 -15 263 -65 q 42 358 42 22 q 133 647 42 560 q 414 735 225 735 q 696 647 601 735 q 790 358 790 558 m 292 358 q 322 219 292 263 q 414 176 353 176 q 506 221 472 176 q 540 358 540 265 q 508 502 540 464 q 414 540 476 540 q 345 526 371 540 q 306 472 319 511 q 292 358 292 432 z "},"ø":{"ha":851,"x_min":15,"x_max":833,"o":"m 742 586 q 790 358 790 500 q 694 74 790 169 q 414 -21 597 -21 q 243 6 314 -21 l 238 0 l 15 0 l 107 107 q 42 358 42 200 q 133 647 42 560 q 414 735 225 735 q 629 693 547 735 l 833 693 l 742 586 m 292 358 q 293 324 292 335 l 471 531 q 414 540 447 540 q 345 526 371 540 q 306 472 319 511 q 292 358 292 432 m 414 176 q 505 219 471 176 q 540 353 539 263 l 390 178 q 414 176 399 176 z "},"ǿ":{"ha":851,"x_min":15,"x_max":833,"o":"m 742 586 q 790 358 790 500 q 694 74 790 169 q 414 -21 597 -21 q 243 6 314 -21 l 238 0 l 15 0 l 107 107 q 42 358 42 200 q 133 647 42 560 q 414 735 225 735 q 629 693 547 735 l 833 693 l 742 586 m 292 358 q 293 324 292 335 l 471 531 q 414 540 447 540 q 345 526 371 540 q 306 472 319 511 q 292 358 292 432 m 414 176 q 505 219 471 176 q 540 353 539 263 l 390 178 q 414 176 399 176 m 349 758 l 407 935 l 653 935 l 482 758 l 349 758 z "},"õ":{"ha":832,"x_min":42,"x_max":790,"o":"m 414 -21 q 42 358 42 -21 q 133 647 42 560 q 414 735 225 735 q 696 647 601 735 q 790 358 790 558 q 694 74 790 169 q 414 -21 597 -21 m 414 176 q 506 221 472 176 q 540 358 540 265 q 508 502 540 464 q 414 540 476 540 q 345 526 371 540 q 306 472 319 511 q 292 358 292 432 q 322 219 292 263 q 414 176 353 176 m 147 799 q 169 903 147 854 q 233 982 192 953 q 328 1011 274 1011 q 392 998 363 1011 q 457 960 421 985 q 506 931 485 940 q 547 921 526 921 q 600 1008 600 921 l 713 1008 q 688 895 713 943 q 624 822 664 847 q 540 797 585 797 q 453 813 486 797 q 381 856 419 828 q 347 880 360 872 q 317 888 333 888 q 271 860 285 888 q 257 799 257 833 l 147 799 z "},"ṍ":{"ha":832,"x_min":42,"x_max":790,"o":"m 414 -21 q 42 358 42 -21 q 133 647 42 560 q 414 735 225 735 q 696 647 601 735 q 790 358 790 558 q 694 74 790 169 q 414 -21 597 -21 m 414 176 q 506 221 472 176 q 540 358 540 265 q 508 502 540 464 q 414 540 476 540 q 345 526 371 540 q 306 472 319 511 q 292 358 292 432 q 322 219 292 263 q 414 176 353 176 m 147 799 q 169 903 147 854 q 233 982 192 953 q 328 1011 274 1011 q 392 998 363 1011 q 457 960 421 985 q 506 931 485 940 q 547 921 526 921 q 600 1008 600 921 l 713 1008 q 688 895 713 943 q 624 822 664 847 q 540 797 585 797 q 453 813 486 797 q 381 856 419 828 q 347 880 360 872 q 317 888 333 888 q 271 860 285 888 q 257 799 257 833 l 147 799 m 339 1086 l 397 1263 l 643 1263 l 472 1086 l 339 1086 z "},"ṏ":{"ha":832,"x_min":42,"x_max":790,"o":"m 414 -21 q 42 358 42 -21 q 133 647 42 560 q 414 735 225 735 q 696 647 601 735 q 790 358 790 558 q 694 74 790 169 q 414 -21 597 -21 m 414 176 q 506 221 472 176 q 540 358 540 265 q 508 502 540 464 q 414 540 476 540 q 345 526 371 540 q 306 472 319 511 q 292 358 292 432 q 322 219 292 263 q 414 176 353 176 m 147 799 q 169 903 147 854 q 233 982 192 953 q 328 1011 274 1011 q 392 998 363 1011 q 457 960 421 985 q 506 931 485 940 q 547 921 526 921 q 600 1008 600 921 l 713 1008 q 688 895 713 943 q 624 822 664 847 q 540 797 585 797 q 453 813 486 797 q 381 856 419 828 q 347 880 360 872 q 317 888 333 888 q 271 860 285 888 q 257 799 257 833 l 147 799 m 189 1100 l 189 1251 l 397 1251 l 397 1100 l 189 1100 m 465 1100 l 465 1251 l 674 1251 l 674 1100 l 465 1100 z "},"ȭ":{"ha":832,"x_min":42,"x_max":790,"o":"m 414 -21 q 42 358 42 -21 q 133 647 42 560 q 414 735 225 735 q 696 647 601 735 q 790 358 790 558 q 694 74 790 169 q 414 -21 597 -21 m 414 176 q 506 221 472 176 q 540 358 540 265 q 508 502 540 464 q 414 540 476 540 q 345 526 371 540 q 306 472 319 511 q 292 358 292 432 q 322 219 292 263 q 414 176 353 176 m 147 799 q 169 903 147 854 q 233 982 192 953 q 328 1011 274 1011 q 392 998 363 1011 q 457 960 421 985 q 506 931 485 940 q 547 921 526 921 q 600 1008 600 921 l 713 1008 q 688 895 713 943 q 624 822 664 847 q 540 797 585 797 q 453 813 486 797 q 381 856 419 828 q 347 880 360 872 q 317 888 333 888 q 271 860 285 888 q 257 799 257 833 l 147 799 m 204 1081 l 204 1236 l 613 1236 l 613 1081 l 204 1081 z "},"œ":{"ha":1290,"x_min":42,"x_max":1250,"o":"m 914 735 q 1169 623 1088 735 q 1249 283 1250 511 l 808 283 q 985 186 842 186 q 1142 224 1042 186 l 1176 235 l 1176 25 q 917 -21 1057 -21 q 672 56 772 -21 q 414 -21 579 -21 q 42 358 42 -21 q 133 647 42 560 q 414 735 225 735 q 676 664 586 735 q 914 735 768 735 m 901 549 q 837 520 865 549 q 799 432 808 492 l 1000 432 q 969 522 992 496 q 901 549 946 549 m 414 176 q 506 221 472 176 q 540 358 540 265 q 508 502 540 464 q 414 540 476 540 q 345 526 371 540 q 306 472 319 511 q 292 358 292 432 q 322 219 292 263 q 414 176 353 176 z "},"p":{"ha":853,"x_min":83,"x_max":811,"o":"m 440 735 q 717 647 622 735 q 811 351 811 560 q 774 158 811 242 q 669 26 738 74 q 508 -21 600 -21 q 415 -16 458 -21 q 331 15 372 -11 l 331 -229 l 83 -229 l 83 549 q 181 686 83 638 q 440 735 279 735 m 421 176 q 499 192 469 176 q 545 247 529 207 q 561 361 561 288 q 531 488 561 449 q 429 526 500 526 q 351 516 371 526 q 331 486 331 506 l 331 197 q 374 182 349 188 q 421 176 400 176 z "},"þ":{"ha":842,"x_min":83,"x_max":800,"o":"m 443 701 q 708 614 615 701 q 800 324 800 526 q 763 140 800 221 q 658 12 726 58 q 497 -35 589 -35 q 411 -30 450 -35 q 333 0 372 -25 l 333 -247 l 83 -247 l 83 972 l 333 972 l 333 693 q 443 701 394 701 m 424 163 q 518 199 486 163 q 550 333 550 236 q 522 455 550 417 q 432 493 493 493 q 383 488 411 493 q 333 474 356 483 l 333 183 q 377 168 351 174 q 424 163 403 163 z "},"q":{"ha":854,"x_min":42,"x_max":771,"o":"m 428 729 q 771 519 771 729 l 771 -257 l 524 -257 l 524 22 q 444 -15 485 -8 q 360 -21 404 -21 q 124 72 207 -21 q 42 342 42 165 q 140 637 42 544 q 428 729 238 729 m 292 360 q 432 176 292 176 q 480 182 454 176 q 524 197 506 188 l 524 463 q 498 507 524 492 q 428 522 472 522 q 292 360 292 522 z "},"r":{"ha":625,"x_min":83,"x_max":604,"o":"m 83 625 q 157 671 106 646 q 273 713 208 696 q 394 731 338 731 q 604 686 550 731 l 604 507 q 512 521 576 515 q 393 526 447 526 q 336 524 349 526 l 336 0 l 83 0 l 83 625 z "},"ŕ":{"ha":625,"x_min":83,"x_max":604,"o":"m 83 625 q 157 671 106 646 q 273 713 208 696 q 394 731 338 731 q 604 686 550 731 l 604 507 q 512 521 576 515 q 393 526 447 526 q 336 524 349 526 l 336 0 l 83 0 l 83 625 m 211 786 l 269 963 l 515 963 l 344 786 l 211 786 z "},"ř":{"ha":625,"x_min":68,"x_max":604,"o":"m 83 625 q 157 671 106 646 q 273 713 208 696 q 394 731 338 731 q 604 686 550 731 l 604 507 q 512 521 576 515 q 393 526 447 526 q 336 524 349 526 l 336 0 l 83 0 l 83 625 m 179 811 l 68 981 l 224 981 l 282 906 l 340 981 l 496 981 l 399 811 l 179 811 z "},"ŗ":{"ha":625,"x_min":57,"x_max":604,"o":"m 83 625 q 157 671 106 646 q 273 713 208 696 q 394 731 338 731 q 604 686 550 731 l 604 507 q 512 521 576 515 q 393 526 447 526 q 336 524 349 526 l 336 0 l 83 0 l 83 625 m 57 -165 q 99 -139 88 -160 q 110 -69 111 -118 l 297 -69 q 237 -213 300 -157 q 57 -269 174 -269 l 57 -165 z "},"ȑ":{"ha":625,"x_min":-64,"x_max":604,"o":"m 83 625 q 157 671 106 646 q 273 713 208 696 q 394 731 338 731 q 604 686 550 731 l 604 507 q 512 521 576 515 q 393 526 447 526 q 336 524 349 526 l 336 0 l 83 0 l 83 625 m 107 786 l -64 963 l 182 963 l 240 786 l 107 786 m 392 786 l 221 963 l 467 963 l 525 786 l 392 786 z "},"ȓ":{"ha":625,"x_min":71,"x_max":604,"o":"m 83 625 q 157 671 106 646 q 273 713 208 696 q 394 731 338 731 q 604 686 550 731 l 604 507 q 512 521 576 515 q 393 526 447 526 q 336 524 349 526 l 336 0 l 83 0 l 83 625 m 289 947 q 448 894 396 947 q 508 751 500 840 l 374 751 q 289 829 349 829 q 235 806 256 829 q 204 751 214 782 l 71 751 q 135 895 86 843 q 289 947 183 947 z "},"ṟ":{"ha":625,"x_min":-14,"x_max":604,"o":"m 83 625 q 157 671 106 646 q 273 713 208 696 q 394 731 338 731 q 604 686 550 731 l 604 507 q 512 521 576 515 q 393 526 447 526 q 336 524 349 526 l 336 0 l 83 0 l 83 625 m -14 -215 l -14 -60 l 394 -60 l 394 -215 l -14 -215 z "},"s":{"ha":685,"x_min":63,"x_max":636,"o":"m 297 -21 q 183 -8 232 -21 q 69 28 135 4 l 69 242 q 176 181 110 208 q 313 153 243 153 q 362 163 350 153 q 374 190 374 172 q 335 227 374 213 q 228 253 296 242 q 110 318 158 264 q 63 469 63 372 q 109 617 63 560 q 226 699 156 675 q 368 722 296 724 q 513 703 460 718 q 610 658 567 688 l 611 471 q 562 499 601 476 q 483 533 522 521 q 407 546 444 546 q 343 533 360 546 q 326 499 326 521 q 349 459 326 471 q 422 433 371 447 q 531 401 490 418 q 604 340 572 385 q 636 214 636 296 q 540 34 632 89 q 297 -21 447 -21 z "},"ś":{"ha":685,"x_min":63,"x_max":636,"o":"m 297 -21 q 183 -8 232 -21 q 69 28 135 4 l 69 242 q 176 181 110 208 q 313 153 243 153 q 362 163 350 153 q 374 190 374 172 q 335 227 374 213 q 228 253 296 242 q 110 318 158 264 q 63 469 63 372 q 109 617 63 560 q 226 699 156 675 q 368 722 296 724 q 513 703 460 718 q 610 658 567 688 l 611 471 q 562 499 601 476 q 483 533 522 521 q 407 546 444 546 q 343 533 360 546 q 326 499 326 521 q 349 459 326 471 q 422 433 371 447 q 531 401 490 418 q 604 340 572 385 q 636 214 636 296 q 540 34 632 89 q 297 -21 447 -21 m 258 786 l 317 963 l 563 963 l 392 786 l 258 786 z "},"ṥ":{"ha":685,"x_min":63,"x_max":636,"o":"m 297 -21 q 183 -8 232 -21 q 69 28 135 4 l 69 242 q 176 181 110 208 q 313 153 243 153 q 362 163 350 153 q 374 190 374 172 q 335 227 374 213 q 228 253 296 242 q 110 318 158 264 q 63 469 63 372 q 109 617 63 560 q 226 699 156 675 q 368 722 296 724 q 513 703 460 718 q 610 658 567 688 l 611 471 q 562 499 601 476 q 483 533 522 521 q 407 546 444 546 q 343 533 360 546 q 326 499 326 521 q 349 459 326 471 q 422 433 371 447 q 531 401 490 418 q 604 340 572 385 q 636 214 636 296 q 540 34 632 89 q 297 -21 447 -21 m 258 786 l 317 963 l 563 963 l 392 786 l 258 786 m 261 1028 l 261 1179 l 456 1179 l 456 1028 l 261 1028 z "},"š":{"ha":685,"x_min":63,"x_max":636,"o":"m 297 -21 q 183 -8 232 -21 q 69 28 135 4 l 69 242 q 176 181 110 208 q 313 153 243 153 q 362 163 350 153 q 374 190 374 172 q 335 227 374 213 q 228 253 296 242 q 110 318 158 264 q 63 469 63 372 q 109 617 63 560 q 226 699 156 675 q 368 722 296 724 q 513 703 460 718 q 610 658 567 688 l 611 471 q 562 499 601 476 q 483 533 522 521 q 407 546 444 546 q 343 533 360 546 q 326 499 326 521 q 349 459 326 471 q 422 433 371 447 q 531 401 490 418 q 604 340 572 385 q 636 214 636 296 q 540 34 632 89 q 297 -21 447 -21 m 226 811 l 115 981 l 271 981 l 329 906 l 388 981 l 543 981 l 446 811 l 226 811 z "},"ṧ":{"ha":685,"x_min":63,"x_max":636,"o":"m 297 -21 q 183 -8 232 -21 q 69 28 135 4 l 69 242 q 176 181 110 208 q 313 153 243 153 q 362 163 350 153 q 374 190 374 172 q 335 227 374 213 q 228 253 296 242 q 110 318 158 264 q 63 469 63 372 q 109 617 63 560 q 226 699 156 675 q 368 722 296 724 q 513 703 460 718 q 610 658 567 688 l 611 471 q 562 499 601 476 q 483 533 522 521 q 407 546 444 546 q 343 533 360 546 q 326 499 326 521 q 349 459 326 471 q 422 433 371 447 q 531 401 490 418 q 604 340 572 385 q 636 214 636 296 q 540 34 632 89 q 297 -21 447 -21 m 226 811 l 115 981 l 271 981 l 329 906 l 388 981 l 543 981 l 446 811 l 226 811 m 219 1035 l 219 1186 l 414 1186 l 414 1035 l 219 1035 z "},"ş":{"ha":685,"x_min":63,"x_max":636,"o":"m 636 214 q 436 -7 631 38 l 468 -7 l 403 -193 l 182 -193 l 301 -21 l 297 -21 q 183 -8 232 -21 q 69 28 135 4 l 69 242 q 176 181 110 208 q 313 153 243 153 q 362 163 350 153 q 374 190 374 172 q 335 227 374 213 q 228 253 296 242 q 110 318 158 264 q 63 469 63 372 q 109 617 63 560 q 226 699 156 675 q 368 722 296 724 q 513 703 460 718 q 610 658 567 688 l 611 471 q 562 499 601 476 q 483 533 522 521 q 407 546 444 546 q 343 533 360 546 q 326 499 326 521 q 349 459 326 471 q 422 433 371 447 q 531 401 490 418 q 604 340 572 385 q 636 214 636 296 z "},"ŝ":{"ha":685,"x_min":63,"x_max":636,"o":"m 297 -21 q 183 -8 232 -21 q 69 28 135 4 l 69 242 q 176 181 110 208 q 313 153 243 153 q 362 163 350 153 q 374 190 374 172 q 335 227 374 213 q 228 253 296 242 q 110 318 158 264 q 63 469 63 372 q 109 617 63 560 q 226 699 156 675 q 368 722 296 724 q 513 703 460 718 q 610 658 567 688 l 611 471 q 562 499 601 476 q 483 533 522 521 q 407 546 444 546 q 343 533 360 546 q 326 499 326 521 q 349 459 326 471 q 422 433 371 447 q 531 401 490 418 q 604 340 572 385 q 636 214 636 296 q 540 34 632 89 q 297 -21 447 -21 m 122 797 l 247 967 l 453 967 l 578 797 l 408 797 l 350 872 l 292 797 l 122 797 z "},"ș":{"ha":685,"x_min":63,"x_max":636,"o":"m 297 -21 q 183 -8 232 -21 q 69 28 135 4 l 69 242 q 176 181 110 208 q 313 153 243 153 q 362 163 350 153 q 374 190 374 172 q 335 227 374 213 q 228 253 296 242 q 110 318 158 264 q 63 469 63 372 q 109 617 63 560 q 226 699 156 675 q 368 722 296 724 q 513 703 460 718 q 610 658 567 688 l 611 471 q 562 499 601 476 q 483 533 522 521 q 407 546 444 546 q 343 533 360 546 q 326 499 326 521 q 349 459 326 471 q 422 433 371 447 q 531 401 490 418 q 604 340 572 385 q 636 214 636 296 q 540 34 632 89 q 297 -21 447 -21 m 186 -165 q 228 -139 217 -160 q 239 -69 240 -118 l 426 -69 q 366 -213 429 -157 q 186 -269 303 -269 l 186 -165 z "},"ṡ":{"ha":685,"x_min":63,"x_max":636,"o":"m 297 -21 q 183 -8 232 -21 q 69 28 135 4 l 69 242 q 176 181 110 208 q 313 153 243 153 q 362 163 350 153 q 374 190 374 172 q 335 227 374 213 q 228 253 296 242 q 110 318 158 264 q 63 469 63 372 q 109 617 63 560 q 226 699 156 675 q 368 722 296 724 q 513 703 460 718 q 610 658 567 688 l 611 471 q 562 499 601 476 q 483 533 522 521 q 407 546 444 546 q 343 533 360 546 q 326 499 326 521 q 349 459 326 471 q 422 433 371 447 q 531 401 490 418 q 604 340 572 385 q 636 214 636 296 q 540 34 632 89 q 297 -21 447 -21 m 219 786 l 219 938 l 414 938 l 414 786 l 219 786 z "},"ṣ":{"ha":685,"x_min":63,"x_max":636,"o":"m 297 -21 q 183 -8 232 -21 q 69 28 135 4 l 69 242 q 176 181 110 208 q 313 153 243 153 q 362 163 350 153 q 374 190 374 172 q 335 227 374 213 q 228 253 296 242 q 110 318 158 264 q 63 469 63 372 q 109 617 63 560 q 226 699 156 675 q 368 722 296 724 q 513 703 460 718 q 610 658 567 688 l 611 471 q 562 499 601 476 q 483 533 522 521 q 407 546 444 546 q 343 533 360 546 q 326 499 326 521 q 349 459 326 471 q 422 433 371 447 q 531 401 490 418 q 604 340 572 385 q 636 214 636 296 q 540 34 632 89 q 297 -21 447 -21 m 238 -221 l 238 -69 l 404 -69 l 404 -221 l 238 -221 z "},"ṩ":{"ha":685,"x_min":63,"x_max":636,"o":"m 297 -21 q 183 -8 232 -21 q 69 28 135 4 l 69 242 q 176 181 110 208 q 313 153 243 153 q 362 163 350 153 q 374 190 374 172 q 335 227 374 213 q 228 253 296 242 q 110 318 158 264 q 63 469 63 372 q 109 617 63 560 q 226 699 156 675 q 368 722 296 724 q 513 703 460 718 q 610 658 567 688 l 611 471 q 562 499 601 476 q 483 533 522 521 q 407 546 444 546 q 343 533 360 546 q 326 499 326 521 q 349 459 326 471 q 422 433 371 447 q 531 401 490 418 q 604 340 572 385 q 636 214 636 296 q 540 34 632 89 q 297 -21 447 -21 m 238 -221 l 238 -69 l 404 -69 l 404 -221 l 238 -221 m 219 786 l 219 938 l 414 938 l 414 786 l 219 786 z "},"ß":{"ha":911,"x_min":83,"x_max":869,"o":"m 83 614 q 127 803 83 719 q 253 933 171 886 q 450 981 336 981 q 653 950 565 981 q 788 867 740 919 q 835 753 835 815 q 776 615 835 667 q 654 543 717 563 q 808 455 746 517 q 869 269 869 393 q 790 58 869 139 q 560 -22 710 -22 q 394 1 481 -22 l 394 203 q 525 163 460 163 q 591 192 567 163 q 615 279 615 222 q 574 370 615 344 q 464 399 533 396 l 464 599 q 572 686 572 599 q 544 749 572 724 q 467 774 517 774 q 373 733 408 774 q 338 617 338 693 l 338 0 l 83 0 l 83 614 z "},"t":{"ha":603,"x_min":35,"x_max":540,"o":"m 401 -35 q 129 204 129 -35 l 129 519 l 35 519 l 35 707 l 129 707 l 129 899 l 396 899 l 396 707 l 540 707 l 540 519 l 396 519 l 396 228 q 453 176 396 176 q 497 186 472 176 q 540 211 522 196 l 540 -1 q 401 -35 481 -35 z "},"ŧ":{"ha":569,"x_min":33,"x_max":511,"o":"m 372 -10 q 190 54 251 -10 q 128 233 128 118 l 128 297 l 53 297 l 53 433 l 128 433 l 128 533 l 33 533 l 33 693 l 128 693 l 128 899 l 367 899 l 367 693 l 511 693 l 511 533 l 367 533 l 367 433 l 493 433 l 493 297 l 367 297 l 367 197 q 379 171 367 182 q 410 160 392 160 q 511 194 453 160 l 511 24 q 372 -10 451 -10 z "},"ť":{"ha":603,"x_min":35,"x_max":740,"o":"m 401 -35 q 129 204 129 -35 l 129 519 l 35 519 l 35 707 l 129 707 l 129 899 l 396 899 l 396 707 l 540 707 l 540 519 l 396 519 l 396 228 q 453 176 396 176 q 497 186 472 176 q 540 211 522 196 l 540 -1 q 401 -35 481 -35 m 444 792 l 547 1064 l 740 1064 l 607 792 l 444 792 z "},"ţ":{"ha":603,"x_min":35,"x_max":540,"o":"m 396 519 l 396 228 q 453 176 396 176 q 497 186 472 176 q 540 211 522 196 l 540 -1 q 439 -33 499 -26 l 383 -193 l 163 -193 l 282 -19 q 129 204 129 25 l 129 519 l 35 519 l 35 707 l 129 707 l 129 899 l 396 899 l 396 707 l 540 707 l 540 519 l 396 519 z "},"ẗ":{"ha":603,"x_min":22,"x_max":540,"o":"m 401 -35 q 129 204 129 -35 l 129 519 l 35 519 l 35 707 l 129 707 l 129 899 l 396 899 l 396 707 l 540 707 l 540 519 l 396 519 l 396 228 q 453 176 396 176 q 497 186 472 176 q 540 211 522 196 l 540 -1 q 401 -35 481 -35 m 22 967 l 22 1118 l 231 1118 l 231 967 l 22 967 m 299 967 l 299 1118 l 507 1118 l 507 967 l 299 967 z "},"ṭ":{"ha":603,"x_min":35,"x_max":540,"o":"m 401 -35 q 129 204 129 -35 l 129 519 l 35 519 l 35 707 l 129 707 l 129 899 l 396 899 l 396 707 l 540 707 l 540 519 l 396 519 l 396 228 q 453 176 396 176 q 497 186 472 176 q 540 211 522 196 l 540 -1 q 401 -35 481 -35 m 218 -221 l 218 -69 l 385 -69 l 385 -221 l 218 -221 z "},"ṯ":{"ha":603,"x_min":35,"x_max":540,"o":"m 401 -35 q 129 204 129 -35 l 129 519 l 35 519 l 35 707 l 129 707 l 129 899 l 396 899 l 396 707 l 540 707 l 540 519 l 396 519 l 396 228 q 453 176 396 176 q 497 186 472 176 q 540 211 522 196 l 540 -1 q 401 -35 481 -35 m 96 -215 l 96 -60 l 504 -60 l 504 -215 l 96 -215 z "},"u":{"ha":849,"x_min":83,"x_max":765,"o":"m 432 -21 q 177 51 271 -21 q 83 274 83 124 l 83 707 l 336 707 l 336 289 q 359 213 336 238 q 433 188 382 188 q 508 213 485 188 q 531 289 531 238 l 531 707 l 765 707 l 765 274 q 678 51 765 122 q 432 -21 590 -21 z "},"ú":{"ha":849,"x_min":83,"x_max":765,"o":"m 432 -21 q 177 51 271 -21 q 83 274 83 124 l 83 707 l 336 707 l 336 289 q 359 213 336 238 q 433 188 382 188 q 508 213 485 188 q 531 289 531 238 l 531 707 l 765 707 l 765 274 q 678 51 765 122 q 432 -21 590 -21 m 361 786 l 419 963 l 665 963 l 494 786 l 361 786 z "},"ŭ":{"ha":849,"x_min":83,"x_max":765,"o":"m 432 -21 q 177 51 271 -21 q 83 274 83 124 l 83 707 l 336 707 l 336 289 q 359 213 336 238 q 433 188 382 188 q 508 213 485 188 q 531 289 531 238 l 531 707 l 765 707 l 765 274 q 678 51 765 122 q 432 -21 590 -21 m 439 771 q 285 823 333 771 q 221 967 236 875 l 354 967 q 385 913 364 936 q 439 889 406 889 q 524 967 499 889 l 658 967 q 598 824 650 878 q 439 771 546 771 z "},"ǔ":{"ha":849,"x_min":83,"x_max":765,"o":"m 432 -21 q 177 51 271 -21 q 83 274 83 124 l 83 707 l 336 707 l 336 289 q 359 213 336 238 q 433 188 382 188 q 508 213 485 188 q 531 289 531 238 l 531 707 l 765 707 l 765 274 q 678 51 765 122 q 432 -21 590 -21 m 329 811 l 218 981 l 374 981 l 432 906 l 490 981 l 646 981 l 549 811 l 329 811 z "},"û":{"ha":849,"x_min":83,"x_max":765,"o":"m 432 -21 q 177 51 271 -21 q 83 274 83 124 l 83 707 l 336 707 l 336 289 q 359 213 336 238 q 433 188 382 188 q 508 213 485 188 q 531 289 531 238 l 531 707 l 765 707 l 765 274 q 678 51 765 122 q 432 -21 590 -21 m 225 797 l 350 967 l 556 967 l 681 797 l 511 797 l 453 872 l 394 797 l 225 797 z "},"ȕ":{"ha":849,"x_min":83,"x_max":765,"o":"m 432 -21 q 177 51 271 -21 q 83 274 83 124 l 83 707 l 336 707 l 336 289 q 359 213 336 238 q 433 188 382 188 q 508 213 485 188 q 531 289 531 238 l 531 707 l 765 707 l 765 274 q 678 51 765 122 q 432 -21 590 -21 m 257 786 l 86 963 l 332 963 l 390 786 l 257 786 m 542 786 l 371 963 l 617 963 l 675 786 l 542 786 z "},"ü":{"ha":849,"x_min":83,"x_max":765,"o":"m 432 -21 q 177 51 271 -21 q 83 274 83 124 l 83 707 l 336 707 l 336 289 q 359 213 336 238 q 433 188 382 188 q 508 213 485 188 q 531 289 531 238 l 531 707 l 765 707 l 765 274 q 678 51 765 122 q 432 -21 590 -21 m 211 800 l 211 951 l 419 951 l 419 800 l 211 800 m 488 800 l 488 951 l 696 951 l 696 800 l 488 800 z "},"ụ":{"ha":861,"x_min":117,"x_max":761,"o":"m 439 -10 q 117 313 117 -10 l 117 693 l 356 693 l 356 271 q 375 194 356 219 q 439 169 394 169 q 503 194 483 169 q 522 271 522 219 l 522 693 l 761 693 l 761 313 q 439 -10 761 -10 m 356 -221 l 356 -69 l 522 -69 l 522 -221 l 356 -221 z "},"ù":{"ha":849,"x_min":83,"x_max":765,"o":"m 432 -21 q 177 51 271 -21 q 83 274 83 124 l 83 707 l 336 707 l 336 289 q 359 213 336 238 q 433 188 382 188 q 508 213 485 188 q 531 289 531 238 l 531 707 l 765 707 l 765 274 q 678 51 765 122 q 432 -21 590 -21 m 376 786 l 206 963 l 451 963 l 510 786 l 376 786 z "},"ủ":{"ha":861,"x_min":117,"x_max":761,"o":"m 400 854 q 436 876 436 854 q 394 906 436 906 q 351 900 375 906 l 351 974 q 383 978 364 976 q 421 981 403 981 q 513 954 476 981 q 549 881 549 928 q 533 834 549 851 q 499 810 518 817 q 481 804 481 803 l 481 772 l 400 772 l 400 854 m 439 -10 q 117 313 117 -10 l 117 693 l 356 693 l 356 271 q 375 194 356 219 q 439 169 394 169 q 503 194 483 169 q 522 271 522 219 l 522 693 l 761 693 l 761 313 q 439 -10 761 -10 z "},"ư":{"ha":951,"x_min":83,"x_max":926,"o":"m 926 815 l 926 721 q 765 579 926 604 l 765 274 q 678 51 765 122 q 432 -21 590 -21 q 177 51 271 -21 q 83 274 83 124 l 83 707 l 336 707 l 336 289 q 359 213 336 238 q 433 188 382 188 q 508 213 485 188 q 531 289 531 238 l 531 707 l 724 707 q 778 757 778 718 l 778 815 l 926 815 z "},"ứ":{"ha":951,"x_min":83,"x_max":926,"o":"m 926 815 l 926 721 q 765 579 926 604 l 765 274 q 678 51 765 122 q 432 -21 590 -21 q 177 51 271 -21 q 83 274 83 124 l 83 707 l 336 707 l 336 289 q 359 213 336 238 q 433 188 382 188 q 508 213 485 188 q 531 289 531 238 l 531 707 l 724 707 q 778 757 778 718 l 778 815 l 926 815 m 361 786 l 419 963 l 665 963 l 494 786 l 361 786 z "},"ự":{"ha":951,"x_min":83,"x_max":926,"o":"m 926 815 l 926 721 q 765 579 926 604 l 765 274 q 678 51 765 122 q 432 -21 590 -21 q 177 51 271 -21 q 83 274 83 124 l 83 707 l 336 707 l 336 289 q 359 213 336 238 q 433 188 382 188 q 508 213 485 188 q 531 289 531 238 l 531 707 l 724 707 q 778 757 778 718 l 778 815 l 926 815 m 342 -221 l 342 -69 l 508 -69 l 508 -221 l 342 -221 z "},"ừ":{"ha":951,"x_min":83,"x_max":926,"o":"m 926 815 l 926 721 q 765 579 926 604 l 765 274 q 678 51 765 122 q 432 -21 590 -21 q 177 51 271 -21 q 83 274 83 124 l 83 707 l 336 707 l 336 289 q 359 213 336 238 q 433 188 382 188 q 508 213 485 188 q 531 289 531 238 l 531 707 l 724 707 q 778 757 778 718 l 778 815 l 926 815 m 376 786 l 206 963 l 451 963 l 510 786 l 376 786 z "},"ử":{"ha":951,"x_min":83,"x_max":926,"o":"m 926 815 l 926 721 q 765 579 926 604 l 765 274 q 678 51 765 122 q 432 -21 590 -21 q 177 51 271 -21 q 83 274 83 124 l 83 707 l 336 707 l 336 289 q 359 213 336 238 q 433 188 382 188 q 508 213 485 188 q 531 289 531 238 l 531 707 l 724 707 q 778 757 778 718 l 778 815 l 926 815 m 389 851 q 424 861 410 851 q 439 885 439 871 q 383 917 439 917 q 340 911 364 917 l 340 1001 q 438 1008 372 1008 q 560 981 514 1008 q 606 894 606 953 q 583 826 606 851 q 524 801 561 801 l 524 769 l 389 769 l 389 851 z "},"ữ":{"ha":951,"x_min":83,"x_max":926,"o":"m 926 815 l 926 721 q 765 579 926 604 l 765 274 q 678 51 765 122 q 432 -21 590 -21 q 177 51 271 -21 q 83 274 83 124 l 83 707 l 336 707 l 336 289 q 359 213 336 238 q 433 188 382 188 q 508 213 485 188 q 531 289 531 238 l 531 707 l 724 707 q 778 757 778 718 l 778 815 l 926 815 m 169 785 q 192 890 169 840 q 255 968 214 939 q 350 997 296 997 q 414 984 385 997 q 479 946 443 971 q 528 917 507 926 q 569 907 549 907 q 622 994 622 907 l 735 994 q 710 881 735 929 q 647 808 686 833 q 563 783 607 783 q 475 799 508 783 q 403 842 442 814 q 369 866 382 858 q 339 874 356 874 q 293 847 307 874 q 279 785 279 819 l 169 785 z "},"ű":{"ha":849,"x_min":83,"x_max":765,"o":"m 432 -21 q 177 51 271 -21 q 83 274 83 124 l 83 707 l 336 707 l 336 289 q 359 213 336 238 q 433 188 382 188 q 508 213 485 188 q 531 289 531 238 l 531 707 l 765 707 l 765 274 q 678 51 765 122 q 432 -21 590 -21 m 265 800 l 351 963 l 514 963 l 385 800 l 265 800 m 475 800 l 561 963 l 724 963 l 594 800 l 475 800 z "},"ȗ":{"ha":849,"x_min":83,"x_max":765,"o":"m 432 -21 q 177 51 271 -21 q 83 274 83 124 l 83 707 l 336 707 l 336 289 q 359 213 336 238 q 433 188 382 188 q 508 213 485 188 q 531 289 531 238 l 531 707 l 765 707 l 765 274 q 678 51 765 122 q 432 -21 590 -21 m 439 947 q 598 894 546 947 q 658 751 650 840 l 524 751 q 439 829 499 829 q 385 806 406 829 q 354 751 364 782 l 221 751 q 285 895 236 843 q 439 947 333 947 z "},"ū":{"ha":849,"x_min":83,"x_max":765,"o":"m 432 -21 q 177 51 271 -21 q 83 274 83 124 l 83 707 l 336 707 l 336 289 q 359 213 336 238 q 433 188 382 188 q 508 213 485 188 q 531 289 531 238 l 531 707 l 765 707 l 765 274 q 678 51 765 122 q 432 -21 590 -21 m 226 781 l 226 936 l 635 936 l 635 781 l 226 781 z "},"ṻ":{"ha":849,"x_min":83,"x_max":765,"o":"m 432 -21 q 177 51 271 -21 q 83 274 83 124 l 83 707 l 336 707 l 336 289 q 359 213 336 238 q 433 188 382 188 q 508 213 485 188 q 531 289 531 238 l 531 707 l 765 707 l 765 274 q 678 51 765 122 q 432 -21 590 -21 m 226 781 l 226 936 l 635 936 l 635 781 l 226 781 m 211 1001 l 211 1153 l 419 1153 l 419 1001 l 211 1001 m 488 1001 l 488 1153 l 696 1153 l 696 1001 l 488 1001 z "},"ț":{"ha":569,"x_min":33,"x_max":511,"o":"m 372 -10 q 190 54 251 -10 q 128 233 128 118 l 128 533 l 33 533 l 33 693 l 128 693 l 128 899 l 367 899 l 367 693 l 511 693 l 511 533 l 367 533 l 367 197 q 379 171 367 182 q 410 160 392 160 q 511 194 453 160 l 511 24 q 372 -10 451 -10 m 206 -179 q 248 -147 236 -174 q 258 -69 260 -121 l 390 -69 q 367 -170 392 -124 q 301 -243 343 -217 q 206 -269 258 -269 l 206 -179 z "},"ų":{"ha":849,"x_min":83,"x_max":765,"o":"m 765 707 l 765 274 q 600 6 765 67 l 619 0 q 482 -103 482 -53 q 494 -142 482 -132 q 531 -153 507 -153 q 628 -101 571 -153 l 628 -233 q 564 -260 594 -250 q 482 -269 533 -269 q 331 -235 379 -269 q 283 -129 283 -201 q 354 -17 283 -65 q 156 72 228 0 q 83 274 83 143 l 83 707 l 336 707 l 336 289 q 359 213 336 238 q 433 188 382 188 q 508 213 485 188 q 531 289 531 238 l 531 707 l 765 707 z "},"ů":{"ha":849,"x_min":83,"x_max":765,"o":"m 432 -21 q 177 51 271 -21 q 83 274 83 124 l 83 707 l 336 707 l 336 289 q 359 213 336 238 q 433 188 382 188 q 508 213 485 188 q 531 289 531 238 l 531 707 l 765 707 l 765 274 q 678 51 765 122 q 432 -21 590 -21 m 439 771 q 309 806 356 771 q 263 904 263 840 q 310 1002 263 967 q 439 1038 357 1038 q 569 1002 522 1038 q 615 904 615 967 q 569 806 615 840 q 439 771 522 771 m 439 861 q 488 870 474 861 q 501 904 501 879 q 487 938 501 928 q 439 947 472 947 q 391 938 406 947 q 376 904 376 928 q 390 870 376 879 q 439 861 404 861 z "},"ũ":{"ha":849,"x_min":83,"x_max":765,"o":"m 432 -21 q 177 51 271 -21 q 83 274 83 124 l 83 707 l 336 707 l 336 289 q 359 213 336 238 q 433 188 382 188 q 508 213 485 188 q 531 289 531 238 l 531 707 l 765 707 l 765 274 q 678 51 765 122 q 432 -21 590 -21 m 169 785 q 192 890 169 840 q 255 968 214 939 q 350 997 296 997 q 414 984 385 997 q 479 946 443 971 q 528 917 507 926 q 569 907 549 907 q 622 994 622 907 l 735 994 q 710 881 735 929 q 647 808 686 833 q 563 783 607 783 q 475 799 508 783 q 403 842 442 814 q 369 866 382 858 q 339 874 356 874 q 293 847 307 874 q 279 785 279 819 l 169 785 z "},"ṹ":{"ha":849,"x_min":83,"x_max":765,"o":"m 432 -21 q 177 51 271 -21 q 83 274 83 124 l 83 707 l 336 707 l 336 289 q 359 213 336 238 q 433 188 382 188 q 508 213 485 188 q 531 289 531 238 l 531 707 l 765 707 l 765 274 q 678 51 765 122 q 432 -21 590 -21 m 169 785 q 192 890 169 840 q 255 968 214 939 q 350 997 296 997 q 414 984 385 997 q 479 946 443 971 q 528 917 507 926 q 569 907 549 907 q 622 994 622 907 l 735 994 q 710 881 735 929 q 647 808 686 833 q 563 783 607 783 q 475 799 508 783 q 403 842 442 814 q 369 866 382 858 q 339 874 356 874 q 293 847 307 874 q 279 785 279 819 l 169 785 m 361 1072 l 419 1249 l 665 1249 l 494 1072 l 361 1072 z "},"v":{"ha":894,"x_min":28,"x_max":867,"o":"m 597 707 l 867 707 l 574 0 l 321 0 l 28 707 l 301 707 l 463 283 l 597 707 z "},"w":{"ha":1167,"x_min":28,"x_max":1139,"o":"m 868 707 l 1139 707 l 903 0 l 679 0 l 582 315 l 489 0 l 265 0 l 28 707 l 301 707 l 400 324 l 494 707 l 672 707 l 768 313 l 868 707 z "},"ẃ":{"ha":1167,"x_min":28,"x_max":1139,"o":"m 868 707 l 1139 707 l 903 0 l 679 0 l 582 315 l 489 0 l 265 0 l 28 707 l 301 707 l 400 324 l 494 707 l 672 707 l 768 313 l 868 707 m 507 758 l 565 935 l 811 935 l 640 758 l 507 758 z "},"ŵ":{"ha":1167,"x_min":28,"x_max":1139,"o":"m 868 707 l 1139 707 l 903 0 l 679 0 l 582 315 l 489 0 l 265 0 l 28 707 l 301 707 l 400 324 l 494 707 l 672 707 l 768 313 l 868 707 m 371 769 l 496 939 l 701 939 l 826 769 l 657 769 l 599 844 l 540 769 l 371 769 z "},"ẅ":{"ha":1167,"x_min":28,"x_max":1139,"o":"m 868 707 l 1139 707 l 903 0 l 679 0 l 582 315 l 489 0 l 265 0 l 28 707 l 301 707 l 400 324 l 494 707 l 672 707 l 768 313 l 868 707 m 357 772 l 357 924 l 565 924 l 565 772 l 357 772 m 633 772 l 633 924 l 842 924 l 842 772 l 633 772 z "},"ẁ":{"ha":1167,"x_min":28,"x_max":1139,"o":"m 868 707 l 1139 707 l 903 0 l 679 0 l 582 315 l 489 0 l 265 0 l 28 707 l 301 707 l 400 324 l 494 707 l 672 707 l 768 313 l 868 707 m 522 758 l 351 935 l 597 935 l 656 758 l 522 758 z "},"x":{"ha":861,"x_min":21,"x_max":840,"o":"m 840 707 l 569 358 l 824 0 l 528 0 l 401 179 l 285 0 l 21 0 l 286 342 l 28 707 l 322 707 l 454 521 l 576 707 l 840 707 z "},"y":{"ha":856,"x_min":28,"x_max":828,"o":"m 828 707 l 561 14 q 431 -206 503 -137 q 269 -274 358 -274 q 118 -244 179 -274 l 118 -43 q 210 -60 165 -60 q 269 -44 244 -60 q 308 13 294 -29 l 28 707 l 317 707 l 436 292 l 554 707 l 828 707 z "},"ý":{"ha":856,"x_min":28,"x_max":828,"o":"m 828 707 l 561 14 q 431 -206 503 -137 q 269 -274 358 -274 q 118 -244 179 -274 l 118 -43 q 210 -60 165 -60 q 269 -44 244 -60 q 308 13 294 -29 l 28 707 l 317 707 l 436 292 l 554 707 l 828 707 m 350 758 l 408 935 l 654 935 l 483 758 l 350 758 z "},"ŷ":{"ha":856,"x_min":28,"x_max":828,"o":"m 828 707 l 561 14 q 431 -206 503 -137 q 269 -274 358 -274 q 118 -244 179 -274 l 118 -43 q 210 -60 165 -60 q 269 -44 244 -60 q 308 13 294 -29 l 28 707 l 317 707 l 436 292 l 554 707 l 828 707 m 214 769 l 339 939 l 544 939 l 669 769 l 500 769 l 442 844 l 383 769 l 214 769 z "},"ÿ":{"ha":856,"x_min":28,"x_max":828,"o":"m 828 707 l 561 14 q 431 -206 503 -137 q 269 -274 358 -274 q 118 -244 179 -274 l 118 -43 q 210 -60 165 -60 q 269 -44 244 -60 q 308 13 294 -29 l 28 707 l 317 707 l 436 292 l 554 707 l 828 707 m 200 772 l 200 924 l 408 924 l 408 772 l 200 772 m 476 772 l 476 924 l 685 924 l 685 772 l 476 772 z "},"ẏ":{"ha":856,"x_min":28,"x_max":828,"o":"m 828 707 l 561 14 q 431 -206 503 -137 q 269 -274 358 -274 q 118 -244 179 -274 l 118 -43 q 210 -60 165 -60 q 269 -44 244 -60 q 308 13 294 -29 l 28 707 l 317 707 l 436 292 l 554 707 l 828 707 m 311 758 l 311 910 l 506 910 l 506 758 l 311 758 z "},"ỵ":{"ha":856,"x_min":28,"x_max":828,"o":"m 828 707 l 561 14 q 431 -206 503 -137 q 269 -274 358 -274 q 118 -244 179 -274 l 118 -43 q 210 -60 165 -60 q 269 -44 244 -60 q 308 13 294 -29 l 28 707 l 317 707 l 436 292 l 554 707 l 828 707 m 604 -221 l 604 -69 l 771 -69 l 771 -221 l 604 -221 z "},"ỳ":{"ha":856,"x_min":28,"x_max":828,"o":"m 828 707 l 561 14 q 431 -206 503 -137 q 269 -274 358 -274 q 118 -244 179 -274 l 118 -43 q 210 -60 165 -60 q 269 -44 244 -60 q 308 13 294 -29 l 28 707 l 317 707 l 436 292 l 554 707 l 828 707 m 365 758 l 194 935 l 440 935 l 499 758 l 365 758 z "},"ỷ":{"ha":856,"x_min":28,"x_max":828,"o":"m 828 707 l 561 14 q 431 -206 503 -137 q 269 -274 358 -274 q 118 -244 179 -274 l 118 -43 q 210 -60 165 -60 q 269 -44 244 -60 q 308 13 294 -29 l 28 707 l 317 707 l 436 292 l 554 707 l 828 707 m 378 824 q 413 833 399 824 q 428 857 428 843 q 372 889 428 889 q 329 883 353 889 l 329 974 q 426 981 361 981 q 549 953 503 981 q 594 867 594 925 q 572 799 594 824 q 513 774 550 774 l 513 742 l 378 742 l 378 824 z "},"ȳ":{"ha":856,"x_min":28,"x_max":828,"o":"m 828 707 l 561 14 q 431 -206 503 -137 q 269 -274 358 -274 q 118 -244 179 -274 l 118 -43 q 210 -60 165 -60 q 269 -44 244 -60 q 308 13 294 -29 l 28 707 l 317 707 l 436 292 l 554 707 l 828 707 m 215 753 l 215 908 l 624 908 l 624 753 l 215 753 z "},"ỹ":{"ha":856,"x_min":28,"x_max":828,"o":"m 828 707 l 561 14 q 431 -206 503 -137 q 269 -274 358 -274 q 118 -244 179 -274 l 118 -43 q 210 -60 165 -60 q 269 -44 244 -60 q 308 13 294 -29 l 28 707 l 317 707 l 436 292 l 554 707 l 828 707 m 158 757 q 181 862 158 813 q 244 940 203 911 q 339 969 285 969 q 403 956 374 969 q 468 918 432 943 q 517 889 496 899 q 558 879 538 879 q 611 967 611 879 l 724 967 q 699 853 724 901 q 635 781 675 806 q 551 756 596 756 q 464 771 497 756 q 392 814 431 786 q 358 838 371 831 q 328 846 344 846 q 282 819 296 846 q 268 757 268 792 l 158 757 z "},"z":{"ha":706,"x_min":63,"x_max":643,"o":"m 643 707 l 643 514 l 375 199 l 643 199 l 643 0 l 63 0 l 63 196 l 378 522 l 69 522 l 69 707 l 643 707 z "},"ź":{"ha":706,"x_min":63,"x_max":643,"o":"m 643 707 l 643 514 l 375 199 l 643 199 l 643 0 l 63 0 l 63 196 l 378 522 l 69 522 l 69 707 l 643 707 m 289 758 l 347 935 l 593 935 l 422 758 l 289 758 z "},"ž":{"ha":706,"x_min":63,"x_max":643,"o":"m 643 707 l 643 514 l 375 199 l 643 199 l 643 0 l 63 0 l 63 196 l 378 522 l 69 522 l 69 707 l 643 707 m 257 783 l 146 953 l 301 953 l 360 878 l 418 953 l 574 953 l 476 783 l 257 783 z "},"ż":{"ha":706,"x_min":63,"x_max":643,"o":"m 643 707 l 643 514 l 375 199 l 643 199 l 643 0 l 63 0 l 63 196 l 378 522 l 69 522 l 69 707 l 643 707 m 250 758 l 250 910 l 444 910 l 444 758 l 250 758 z "},"ﬁ":{"ha":983,"x_min":35,"x_max":900,"o":"m 131 519 l 35 519 l 35 707 l 133 707 l 133 714 q 206 941 135 874 q 421 1008 276 1008 q 475 1003 444 1008 q 524 993 506 999 l 524 769 q 488 802 504 792 q 444 813 472 813 q 401 795 415 813 q 386 750 386 778 l 386 707 l 524 707 l 524 519 l 383 519 l 383 0 l 131 0 l 131 519 m 642 790 l 642 972 l 900 972 l 900 790 l 642 790 m 644 0 l 644 693 l 897 693 l 900 0 l 644 0 z "},"ﬂ":{"ha":975,"x_min":35,"x_max":892,"o":"m 131 519 l 35 519 l 35 707 l 133 707 l 133 714 q 206 941 135 874 q 421 1008 276 1008 q 475 1003 444 1008 q 524 993 506 999 l 524 769 q 488 802 504 792 q 444 813 472 813 q 401 795 415 813 q 386 750 386 778 l 386 707 l 524 707 l 524 519 l 383 519 l 383 0 l 131 0 l 131 519 m 892 0 l 642 0 l 642 972 l 892 972 l 892 0 z "},"ª":{"ha":565,"x_min":90,"x_max":463,"o":"m 271 525 q 90 658 90 525 q 226 775 90 775 q 313 757 289 775 q 260 833 313 833 q 128 810 192 833 l 128 910 q 198 930 158 922 q 269 938 238 938 q 413 894 364 938 q 463 769 463 851 l 463 657 q 444 576 463 604 q 385 537 426 549 q 271 525 344 525 m 276 621 q 315 650 315 621 l 315 693 q 279 701 296 701 q 250 690 263 701 q 238 663 238 678 q 276 621 238 621 z "},"º":{"ha":589,"x_min":103,"x_max":476,"o":"m 290 540 q 151 592 200 540 q 103 739 103 643 q 151 888 103 836 q 290 939 200 939 q 428 888 379 939 q 476 739 476 836 q 428 592 476 643 q 290 540 379 540 m 290 638 q 343 739 343 638 q 290 842 343 842 q 236 739 236 842 q 290 638 236 638 z "},"π":{"ha":881,"x_min":49,"x_max":829,"o":"m 182 0 l 182 519 l 49 519 l 49 693 l 829 693 l 829 519 l 693 519 l 693 0 l 519 0 l 519 519 l 358 519 l 358 0 l 182 0 z "},"₀":{"ha":528,"x_min":21,"x_max":507,"o":"m 264 -214 q 78 -151 135 -214 q 21 42 21 -89 q 78 234 21 171 q 264 297 136 297 q 450 234 393 297 q 507 42 507 171 q 450 -151 507 -89 q 264 -214 393 -214 m 264 -75 q 314 -50 296 -75 q 332 42 332 -25 q 313 134 332 108 q 264 160 294 160 q 196 42 196 160 q 264 -75 196 -75 z "},"₁":{"ha":347,"x_min":24,"x_max":271,"o":"m 128 290 l 271 290 l 271 -208 l 104 -208 l 104 115 l 24 71 l 24 225 l 128 290 z "},"₂":{"ha":471,"x_min":60,"x_max":429,"o":"m 429 -51 l 429 -208 l 60 -208 l 60 -107 q 107 -75 64 -104 q 215 10 178 -26 q 253 92 253 47 q 233 146 253 128 q 185 164 213 164 q 122 153 146 164 q 63 117 97 142 l 63 247 q 218 297 144 297 q 378 251 329 297 q 426 138 426 206 q 386 31 426 81 q 275 -51 346 -18 l 429 -51 z "},"₃":{"ha":465,"x_min":56,"x_max":422,"o":"m 207 -215 q 56 -174 142 -215 l 56 -50 q 90 -71 64 -54 q 135 -94 115 -87 q 174 -100 154 -100 q 227 -85 207 -100 q 247 -49 247 -71 q 231 -9 247 -25 q 172 7 214 7 l 118 7 l 118 99 l 174 99 q 213 110 200 99 q 225 140 225 122 q 205 168 225 158 q 160 178 185 178 q 65 151 118 178 l 65 260 q 201 296 133 296 q 339 263 276 296 q 401 158 401 231 q 377 95 401 124 q 324 61 353 67 q 395 13 368 49 q 422 -69 422 -22 q 356 -183 422 -150 q 207 -215 290 -215 z "},"₄":{"ha":476,"x_min":33,"x_max":463,"o":"m 403 28 l 463 28 l 463 -96 l 403 -96 l 403 -208 l 250 -208 l 250 -96 l 33 -96 l 33 17 l 251 290 l 403 290 l 403 28 m 169 28 l 250 28 l 250 133 l 169 28 z "},"₅":{"ha":453,"x_min":64,"x_max":432,"o":"m 238 -214 q 75 -181 146 -214 l 75 -50 q 192 -86 131 -86 q 242 -72 226 -86 q 257 -31 257 -58 q 240 7 257 -7 q 197 21 222 21 q 135 1 171 21 l 64 50 l 92 292 l 400 292 l 400 163 l 203 163 l 200 119 q 265 121 211 121 q 382 82 332 121 q 432 -37 432 43 q 380 -172 432 -129 q 238 -214 328 -214 z "},"₆":{"ha":482,"x_min":17,"x_max":453,"o":"m 250 -215 q 71 -157 125 -215 q 17 21 17 -99 q 97 241 17 186 q 297 296 176 296 q 354 291 326 296 q 399 278 382 286 l 399 169 q 308 186 346 186 q 228 158 265 186 q 192 74 192 131 q 233 107 207 94 q 315 119 260 119 q 412 80 371 119 q 453 -33 453 40 q 401 -167 453 -119 q 250 -215 350 -215 m 236 -118 q 265 -96 253 -118 q 276 -47 276 -74 q 267 8 276 -8 q 242 25 257 25 q 214 10 228 25 q 193 -22 200 -4 q 204 -90 193 -62 q 236 -118 215 -118 z "},"₇":{"ha":447,"x_min":49,"x_max":426,"o":"m 49 290 l 426 290 l 426 210 l 261 -208 l 71 -208 l 224 135 l 49 135 l 49 290 z "},"₈":{"ha":476,"x_min":8,"x_max":467,"o":"m 238 -215 q 64 -178 119 -215 q 8 -64 8 -140 q 38 14 8 -19 q 108 58 67 47 q 52 94 76 68 q 28 158 28 121 q 78 263 28 229 q 238 296 128 296 q 397 263 347 296 q 446 158 446 229 q 422 94 446 121 q 367 58 399 68 q 438 14 408 47 q 467 -64 467 -19 q 411 -178 467 -140 q 238 -215 356 -215 m 238 93 q 274 104 260 93 q 288 140 288 115 q 275 176 288 161 q 238 190 263 190 q 201 176 214 190 q 189 140 189 161 q 203 105 189 117 q 238 93 218 93 m 238 -110 q 281 -92 267 -110 q 294 -49 294 -75 q 280 -15 294 -31 q 238 1 265 1 q 194 -15 210 1 q 179 -49 179 -31 q 194 -92 179 -75 q 238 -110 208 -110 z "},"₉":{"ha":485,"x_min":17,"x_max":453,"o":"m 172 -214 q 115 -209 143 -214 q 71 -196 88 -204 l 71 -87 q 161 -104 124 -104 q 241 -76 204 -104 q 278 8 278 -49 q 236 -25 263 -12 q 154 -37 210 -37 q 58 2 99 -37 q 17 115 17 42 q 68 249 17 201 q 219 297 119 297 q 399 239 344 297 q 453 61 453 181 q 373 -159 453 -104 q 172 -214 293 -214 m 228 57 q 256 72 242 57 q 276 104 269 86 q 265 172 276 144 q 233 200 254 200 q 205 178 217 200 q 193 129 193 156 q 203 74 193 90 q 228 57 213 57 z "},"⁰":{"ha":528,"x_min":21,"x_max":507,"o":"m 264 638 q 78 700 135 638 q 21 893 21 763 q 78 1085 21 1022 q 264 1149 136 1149 q 450 1085 393 1149 q 507 893 507 1022 q 450 700 507 763 q 264 638 393 638 m 264 776 q 314 801 296 776 q 332 893 332 826 q 313 985 332 960 q 264 1011 294 1011 q 196 893 196 1011 q 264 776 196 776 z "},"¹":{"ha":347,"x_min":24,"x_max":271,"o":"m 128 1140 l 271 1140 l 271 642 l 104 642 l 104 965 l 24 921 l 24 1075 l 128 1140 z "},"²":{"ha":471,"x_min":60,"x_max":429,"o":"m 429 800 l 429 643 l 60 643 l 60 744 q 107 776 64 747 q 215 862 178 825 q 253 943 253 899 q 233 997 253 979 q 185 1015 213 1015 q 122 1004 146 1015 q 63 968 97 993 l 63 1099 q 218 1149 144 1149 q 378 1103 329 1149 q 426 989 426 1057 q 386 883 426 932 q 275 800 346 833 l 429 800 z "},"³":{"ha":465,"x_min":56,"x_max":422,"o":"m 207 636 q 56 678 142 636 l 56 801 q 90 781 64 797 q 135 758 115 764 q 174 751 154 751 q 227 766 207 751 q 247 803 247 781 q 231 842 247 826 q 172 858 214 858 l 118 858 l 118 950 l 174 950 q 213 962 200 950 q 225 992 225 974 q 205 1019 225 1010 q 160 1029 185 1029 q 65 1003 118 1029 l 65 1111 q 201 1147 133 1147 q 339 1115 276 1147 q 401 1010 401 1082 q 377 947 401 975 q 324 913 353 918 q 395 865 368 900 q 422 782 422 829 q 356 669 422 701 q 207 636 290 636 z "},"⁴":{"ha":476,"x_min":33,"x_max":463,"o":"m 403 879 l 463 879 l 463 756 l 403 756 l 403 643 l 250 643 l 250 756 l 33 756 l 33 868 l 251 1142 l 403 1142 l 403 879 m 169 879 l 250 879 l 250 985 l 169 879 z "},"⁵":{"ha":453,"x_min":64,"x_max":432,"o":"m 238 636 q 75 669 146 636 l 75 800 q 192 764 131 764 q 242 778 226 764 q 257 819 257 792 q 240 857 257 843 q 197 871 222 871 q 135 851 171 871 l 64 900 l 92 1142 l 400 1142 l 400 1013 l 203 1013 l 200 969 q 265 971 211 971 q 382 932 332 971 q 432 813 432 893 q 380 678 432 721 q 238 636 328 636 z "},"⁶":{"ha":482,"x_min":17,"x_max":453,"o":"m 250 636 q 71 694 125 636 q 17 872 17 753 q 97 1092 17 1038 q 297 1147 176 1147 q 354 1142 326 1147 q 399 1129 382 1138 l 399 1021 q 308 1038 346 1038 q 228 1010 265 1038 q 192 925 192 982 q 233 958 207 946 q 315 971 260 971 q 412 931 371 971 q 453 818 453 892 q 401 684 453 732 q 250 636 350 636 m 236 733 q 265 756 253 733 q 276 804 276 778 q 267 860 276 843 q 242 876 257 876 q 214 862 228 876 q 193 829 200 847 q 204 761 193 789 q 236 733 215 733 z "},"⁷":{"ha":447,"x_min":49,"x_max":426,"o":"m 49 1140 l 426 1140 l 426 1060 l 261 642 l 71 642 l 224 985 l 49 985 l 49 1140 z "},"⁸":{"ha":476,"x_min":8,"x_max":467,"o":"m 238 636 q 64 674 119 636 q 8 788 8 711 q 38 865 8 832 q 108 910 67 899 q 52 946 76 919 q 28 1010 28 972 q 78 1114 28 1081 q 238 1147 128 1147 q 397 1114 347 1147 q 446 1010 446 1081 q 422 946 446 972 q 367 910 399 919 q 438 865 408 899 q 467 788 467 832 q 411 674 467 711 q 238 636 356 636 m 238 944 q 274 956 260 944 q 288 992 288 967 q 275 1027 288 1013 q 238 1042 263 1042 q 201 1027 214 1042 q 189 992 189 1013 q 203 956 189 968 q 238 944 218 944 m 238 742 q 281 759 267 742 q 294 803 294 776 q 280 837 294 821 q 238 853 265 853 q 194 837 210 853 q 179 803 179 821 q 194 759 179 776 q 238 742 208 742 z "},"⁹":{"ha":485,"x_min":17,"x_max":453,"o":"m 172 636 q 115 641 143 636 q 71 654 88 646 l 71 763 q 161 746 124 746 q 241 774 204 746 q 278 858 278 801 q 236 825 263 838 q 154 813 210 813 q 58 852 99 813 q 17 965 17 892 q 68 1099 17 1051 q 219 1147 119 1147 q 399 1089 344 1147 q 453 911 453 1031 q 373 691 453 746 q 172 636 293 636 m 228 907 q 256 922 242 907 q 276 954 269 936 q 265 1022 276 994 q 233 1050 254 1050 q 205 1028 217 1050 q 193 979 193 1006 q 203 924 193 940 q 228 907 213 907 z "},"⁄":{"ha":544,"x_min":-99,"x_max":639,"o":"m -99 -31 l 467 951 l 639 951 l 74 -31 l -99 -31 z "},"½":{"ha":1054,"x_min":24,"x_max":985,"o":"m 128 932 l 271 932 l 271 433 l 104 433 l 104 757 l 24 713 l 24 867 l 128 932 m 82 -31 l 647 951 l 819 951 l 254 -31 l 82 -31 m 985 157 l 985 0 l 615 0 l 615 101 q 663 133 619 104 q 771 219 733 182 q 808 300 808 256 q 788 354 808 336 q 740 372 768 372 q 677 361 701 372 q 618 325 653 350 l 618 456 q 774 506 700 506 q 933 460 885 506 q 982 346 982 414 q 942 240 982 289 q 831 157 901 190 l 985 157 z "},"⅓":{"ha":1069,"x_min":24,"x_max":1000,"o":"m 128 932 l 271 932 l 271 433 l 104 433 l 104 757 l 24 713 l 24 867 l 128 932 m 82 -31 l 647 951 l 819 951 l 254 -31 l 82 -31 m 785 -7 q 633 35 719 -7 l 633 158 q 667 138 642 154 q 713 115 693 121 q 751 108 732 108 q 805 123 785 108 q 825 160 825 138 q 808 199 825 183 q 750 215 792 215 l 696 215 l 696 307 l 751 307 q 790 319 778 307 q 803 349 803 331 q 783 376 803 367 q 738 386 763 386 q 643 360 696 386 l 643 468 q 779 504 711 504 q 917 472 854 504 q 979 367 979 439 q 955 303 979 332 q 901 269 931 275 q 973 222 946 257 q 1000 139 1000 186 q 934 26 1000 58 q 785 -7 868 -7 z "},"¼":{"ha":1018,"x_min":24,"x_max":949,"o":"m 128 932 l 271 932 l 271 433 l 104 433 l 104 757 l 24 713 l 24 867 l 128 932 m 82 -31 l 647 951 l 819 951 l 254 -31 l 82 -31 m 889 236 l 949 236 l 949 113 l 889 113 l 889 0 l 736 0 l 736 113 l 519 113 l 519 225 l 738 499 l 889 499 l 889 236 m 656 236 l 736 236 l 736 342 l 656 236 z "}}}
